/* XPM */
static char *xpm_prev[] = {
/* columns rows colors chars-per-pixel */
"32 32 220 2",
"   c #1709191278C7",
".  c #19F91C037A74",
"X  c #1A9C21007D03",
"o  c #214523387EF1",
"O  c #59EC59F45AEA",
"+  c #658365A2684D",
"@  c #16D429C68192",
"#  c #18E42BAC82C8",
"$  c #151B3342868D",
"%  c #13273CC68B8E",
"&  c #1ED13BB98BB7",
"*  c #23A6259F801E",
"=  c #22A32A3A8253",
"-  c #2AAC2C868443",
";  c #210933218719",
":  c #2F05363D895C",
">  c #2B153C568C97",
",  c #314032F787E2",
"<  c #33C73592898A",
"1  c #3D0D3E9A8EBB",
"2  c #0E8F44348F35",
"3  c #174B40258DA6",
"4  c #192441A38E79",
"5  c #0DFA4EF294DC",
"6  c #10EC45FC9046",
"7  c #1D59453B9095",
"8  c #1A574D3994A5",
"9  c #0B1557AD996F",
"0  c #1194518C9682",
"q  c #1E195069968A",
"w  c #16F0557598F0",
"e  c #15C05EE49DD8",
"r  c #2613422B8F5C",
"t  c #29EC454E9146",
"y  c #281F4E0795CC",
"u  c #344D44C8917E",
"i  c #34204E4E968C",
"p  c #265656A39A4C",
"a  c #2DB252A398B4",
"s  c #24495ED89E8D",
"d  c #2A6959E19C35",
"f  c #327D56999AF5",
"g  c #3D2C561E9B35",
"h  c #30BB5EB59F2B",
"j  c #3CF05F37A00B",
"k  c #0A9062029F00",
"l  c #18E461539F4C",
"z  c #0C496DE2A571",
"x  c #1D696E06A66E",
"c  c #0698751EA919",
"v  c #03507DCEAD9F",
"b  c #0E90796CABE0",
"n  c #115270E5A756",
"m  c #1B7B7C20ADE8",
"M  c #22DE6747A2ED",
"N  c #2D236608A2CB",
"B  c #2C7A6E9EA75F",
"V  c #3B3D66EEA40D",
"C  c #398C6ECFA826",
"Z  c #2F397A24ADD7",
"A  c #387F76C5AC5F",
"S  c #35B87DBEB00C",
"D  c #401843629162",
"F  c #4AA34C2B966C",
"G  c #453A5DD19FC7",
"H  c #54E1565E9BFE",
"J  c #5AB65C1D9FF7",
"K  c #5CF75E69A13C",
"L  c #4707677CA50E",
"P  c #4CBC63D8A358",
"I  c #45C86F14A8F8",
"U  c #4E4F6D73A882",
"Y  c #59266751A5D1",
"T  c #50CC6F65A9D1",
"R  c #44377697ACCF",
"E  c #4CEB7413ABB3",
"W  c #42007CBDAFF0",
"Q  c #48A57A35AF04",
"!  c #5044773BADE2",
"~  c #42EE7E01B0B7",
"^  c #4EBA7E4EB175",
"/  c #5D027E10B235",
"(  c #605461C6A362",
")  c #695A6AB3A63D",
"_  c #6B436C8FA9AC",
"`  c #6FEB7132A7E1",
"'  c #7246743CAB72",
"]  c #797C7A9BAD29",
"[  c #64DC7D09B221",
"{  c #74067F70B412",
"}  c #7B077CB0B2F7",
"|  c #08A780A6AF68",
" . c #0100875FB29B",
".. c #0B3281E9B03A",
"X. c #05428975B3F0",
"o. c #0B988C2DB5B1",
"O. c #1B748595B2FC",
"+. c #198C88F0B4B7",
"@. c #00D59191B82B",
"#. c #02299221B88A",
"$. c #0A8E959CBAD0",
"%. c #164491D6B94C",
"&. c #1D8A9D77BFF3",
"*. c #25028F80B8D0",
"=. c #31BF8506B3B5",
"-. c #3CE78B0CB78C",
";. c #273399E6BE7B",
":. c #3A5F9214BB51",
">. c #34CA9818BE2B",
",. c #4206852AB4A1",
"<. c #4A058234B355",
"1. c #496E8969B74C",
"2. c #4C558BCEB8AE",
"3. c #56738392B4B9",
"4. c #5BAB8280B47A",
"5. c #58388C81B9B4",
"6. c #4B7E93C2BCED",
"7. c #56F29315BD16",
"8. c #649F8E5EBB4B",
"9. c #6C168E6CBBA3",
"0. c #79B383EEB3E0",
"q. c #7707895BB967",
"w. c #65439282BD78",
"e. c #1E979DFDC049",
"r. c #2DE49D57C09C",
"t. c #3C2DA36FC486",
"y. c #549C9CE7C24B",
"u. c #64419B01C20B",
"i. c #6E7D9BEDC2FD",
"p. c #45A2A03DC37C",
"a. c #44B9ADC0CA91",
"s. c #5F5CA51EC6A4",
"d. c #6051A04BC4A3",
"f. c #6C4DA418C6B6",
"g. c #6059A701C84C",
"h. c #6AFBA69EC89B",
"j. c #6095ADECCC21",
"k. c #6A4FAC99CBD0",
"l. c #76AEAABBCB63",
"z. c #7E3DAC0BCC7B",
"x. c #6AAAB110CD86",
"c. c #74E0B27DCF7C",
"v. c #71DEB73FD1EB",
"b. c #7B9CB73AD256",
"n. c #7FA9BB18D4A2",
"m. c #6518C146D665",
"M. c #704CC580D916",
"N. c #7DBAC533D921",
"B. c #880188329099",
"V. c #8C1F8C6496AB",
"C. c #83288412AED1",
"Z. c #95CC961DA5DE",
"A. c #915291E0ACB8",
"S. c #9AF49B45A877",
"D. c #83818492B22D",
"F. c #8A9A8B78B415",
"G. c #86768766B945",
"H. c #87A388A5B9EC",
"J. c #8AA88BECBBD2",
"K. c #8A0E9788BD80",
"L. c #9BAD9C41B424",
"P. c #8A379AB0C3C7",
"I. c #95B696A7C248",
"U. c #980798F2C347",
"Y. c #9A009AE6C477",
"T. c #81C7A155C437",
"R. c #8535A7B1CA6C",
"E. c #8224AF07CE40",
"W. c #8C60AA32CC2E",
"Q. c #9FDCA0BAC7D5",
"!. c #9FB3ACB1C5BD",
"~. c #8C3EB23DCDB6",
"^. c #80B2B3ADD0AA",
"/. c #8B72BCA0D603",
"(. c #99C1BD40D716",
"). c #A59CA651CB61",
"_. c #A3DBAC5CCE77",
"`. c #A902A9A7CD53",
"'. c #AE8EB69FC28C",
"]. c #AF07C022CF9B",
"[. c #AE81AF33D08E",
"{. c #ABA0B3ABD2EF",
"}. c #B687B74DD583",
"|. c #B2C1B8F9D5F2",
" X c #BA03BADBD779",
".X c #B3FCBF05D943",
"XX c #BEB3BF43DA24",
"oX c #8AAEC4CFD96A",
"OX c #85BDCD64DDF9",
"+X c #9577C4A7DADD",
"@X c #9853C1FED984",
"#X c #953EC930DD52",
"$X c #9A79CBC0DEE6",
"%X c #A3DAC533DBCF",
"&X c #A0C9CAD6DEB7",
"*X c #AA1FCC7BE010",
"=X c #B303CA19DF26",
"-X c #BC4FCC3BDC60",
";X c #BCD6D3C9DD50",
":X c #AA81CD78E097",
">X c #ACBDD17FE2F1",
",X c #A505D891E4B6",
"<X c #B601D54BE556",
"1X c #B88FD574E5A1",
"2X c #B7DFDAC4E49E",
"3X c #C633C699DE80",
"4X c #CC20CC79E1E4",
"5X c #C410DC31E9C8",
"6X c #D508D546E71A",
"7X c #D75DD791E873",
"8X c #D437DED4EC12",
"9X c #DCD7DD7AEBBA",
"0X c #D09EE264EDB6",
"qX c #E3D9E43AEFBE",
"wX c #E5E0E677F10F",
"eX c #ED52EDBAF53E",
"rX c #F0EBF0EFF724",
"tX c #F4FCF61FFA2A",
"yX c #FF7BFF8AFFBA",
"uX c None",
/* pixels */
"uXuXuXuXuXuXuXuXuXuXuXuXuXuXuXuXuXuXuXuXuXuXuXuXuXuXuXuXuXuXuXuX",
"uXuXuXuXuXuXuXuXuXuXuXuXuXuXO + + O uXuXuXuXuXuXuXuXuXuXuXuXuXuX",
"uXuXuXuXuXuXuXuXuXuXO V.A.C.] ` ` ] C.A.V.O uXuXuXuXuXuXuXuXuXuX",
"uXuXuXuXuXuXuXuXO Z.C.H < o       . o < H D.Z.O uXuXuXuXuXuXuXuX",
"uXuXuXuXuXuXuXB.F.F o   o D J _ _ J D o   o F F.B.uXuXuXuXuXuXuX",
"uXuXuXuXuXuXZ.' -   < } XX9XeXrXrXeX9XXX] <   - ' Z.uXuXuXuXuXuX",
"uXuXuXuXuXZ.) o . ( 3XqXwXqXqXqXqXqXqXwXwXXXK . o ) Z.uXuXuXuXuX",
"uXuXuXuXV.' o . _ 3X6X6X6X6X6X6X6X6X6X6X6X7X4X_ X o ' V.uXuXuXuX",
"uXuXuXuXF.-   H XX4X4XXX3X3X3X3X3X3X3X3X3X3X3XXXH   - F.uXuXuXuX",
"uXuXuXL.F   - I.}.}.}.}.}.}.}.}.}.}. X}.}.}.}. XI.- . F L.uXuXuX",
"uXuXuXD.*   F ).`.).`.`.`.`.).}.7XXX).`.`.`.`.`.).F   o D.uXuXuX",
"uXuXS.J     K Y.Y.Y.Y.Y.Y.Y.3XeXyX XU.Y.Y.Y.Y.Y.Y.J .   J S.uXuX",
"uXuXL.< . . K J.J.J.H.J.[.9XyXyXyX`.H.J.J.J.J.J.J.J . . < L.uXuX",
"uXuXF.* . . F } } } I.4XtXyXyXyXyX7X3X3X3X X).I.G.F   . o F.uXuX",
"uXuX] X . * 1 ' } [.rXyXyXyXyXyXyXyXyXyXyXwX3X).} , . . X } uXuX",
"uXuX' . . * < I.wXyXyXyXyXyXyXyXyXyXyXyXyXwXXXY.( X . . . ' uXuX",
"uXuX' X X = : } 9XyXyXyXyXyXyXyXyXyXyXyXyXqX.XJ.u X X X X ' uXuX",
"uXuX0.@ # ; > u Y {.eXyXyXyXyXyXyXyXyXyXyXwX|.{ u # @ @ @ 0.uXuX",
"uXuXK.& $ > t i g P q..XtXyXyXyXyX-X_._._.P.[ G t $ $ $ & K.uXuX",
"uXuX!.p % 7 y f j L T U / -XtXyXyX4.3 7 % % % % % % 4 & a !.uXuX",
"uXuX'.E 6 8 p h V I ! / E d 9.8XtX/ 2 2 6 6 6 6 3 8 4.8 E '.uXuX",
"uXuXuXT.w 0 s N C R 3.3.8.4.s N R.^ 5 5 5 5 5 5 s W.9.w T.uXuXuX",
"uXuXuX=XS 9 x B A ~ <.5.w.i.i.<.M e 9 9 9 9 e ^ *X%Xe W =XuXuXuX",
"uXuXuXuX~.x 9 x S ,.2.7.y.i.l.E.z.u.1.,.1.u.(.0X<XS x ~.uXuXuXuX",
"uXuXuXuXuXh.n z m -.6.7.s.h.l.b./.@X&X*X<X5X0X*X=.z f.uXuXuXuXuX",
"uXuXuXuXuX-Xs.b c O.:.y.s.k.c.n./.+X&X>X1X<Xb.O.b d.;XuXuXuXuXuX",
"uXuXuXuXuXuX;Xx.+.| ..*.p.j.v.n.oX+X$X#Xv.>.| +.x.;XuXuXuXuXuXuX",
"uXuXuXuXuXuXuXuXoXt.o. . .%.;.t.p.t.r.%.X.o.t.oXuXuXuXuXuXuXuXuX",
"uXuXuXuXuXuXuXuXuX2XN.a.e.$.#.#.#.#.$.&.a.N.2XuXuXuXuXuXuXuXuXuX",
"uXuXuXuXuXuXuXuXuXuXuXuX,XOXM.m.m.M.OX,XuXuXuXuXuXuXuXuXuXuXuXuX",
"uXuXuXuXuXuXuXuXuXuXuXuXuXuXuXuXuXuXuXuXuXuXuXuXuXuXuXuXuXuXuXuX",
"uXuXuXuXuXuXuXuXuXuXuXuXuXuXuXuXuXuXuXuXuXuXuXuXuXuXuXuXuXuXuXuX"
};
