/* XPM */
static char *xpm_disabled_next[] = {
/* columns rows colors chars-per-pixel */
"32 32 149 2",
"   c gray28",
".  c #484848",
"X  c #494949",
"o  c gray29",
"O  c #4B4B4B",
"+  c #4C4C4C",
"@  c gray30",
"#  c #4E4E4E",
"$  c gray31",
"%  c #505050",
"&  c #515151",
"*  c gray32",
"=  c #535353",
"-  c gray33",
";  c #555555",
":  c #565656",
">  c gray34",
",  c #585858",
"<  c gray35",
"1  c #5A5A5A",
"2  c #5B5B5B",
"3  c gray36",
"4  c #5D5D5D",
"5  c gray37",
"6  c #5F5F5F",
"7  c #606060",
"8  c gray38",
"9  c #626262",
"0  c gray39",
"q  c #646464",
"w  c #656565",
"e  c gray40",
"r  c #676767",
"t  c #686868",
"y  c DimGray",
"u  c #6D6D6D",
"i  c gray43",
"p  c #6F6F6F",
"a  c gray44",
"s  c #727272",
"d  c gray46",
"f  c #767676",
"g  c #777777",
"h  c gray47",
"j  c #797979",
"k  c gray48",
"l  c #7B7B7B",
"z  c #7C7C7C",
"x  c gray49",
"c  c #7E7E7E",
"v  c gray50",
"b  c #808080",
"n  c #818181",
"m  c gray51",
"M  c #838383",
"N  c #848484",
"B  c #868686",
"V  c gray53",
"C  c #888888",
"Z  c #898989",
"A  c gray54",
"S  c #8B8B8B",
"D  c gray55",
"F  c #8D8D8D",
"G  c #8E8E8E",
"H  c gray56",
"J  c #909090",
"K  c gray57",
"L  c #929292",
"P  c #939393",
"I  c gray58",
"U  c #959595",
"Y  c gray59",
"T  c #979797",
"R  c #989898",
"E  c gray60",
"W  c #9A9A9A",
"Q  c #9B9B9B",
"!  c gray61",
"~  c #9D9D9D",
"^  c gray62",
"/  c #9F9F9F",
"(  c #A0A0A0",
")  c gray63",
"_  c #A2A2A2",
"`  c gray64",
"'  c #A4A4A4",
"]  c #A5A5A5",
"[  c gray65",
"{  c #A7A7A7",
"}  c gray66",
"|  c #A9A9A9",
" . c #AAAAAA",
".. c gray67",
"X. c #ACACAC",
"o. c gray68",
"O. c #AEAEAE",
"+. c gray69",
"@. c #B1B1B1",
"#. c gray70",
"$. c #B7B7B7",
"%. c gray72",
"&. c #B9B9B9",
"*. c gray73",
"=. c #BCBCBC",
"-. c gray74",
";. c gray",
":. c gray75",
">. c #C0C0C0",
",. c #C3C3C3",
"<. c gray77",
"1. c #C5C5C5",
"2. c #C6C6C6",
"3. c gray78",
"4. c #C8C8C8",
"5. c gray79",
"6. c #CBCBCB",
"7. c gray80",
"8. c #CDCDCD",
"9. c #CECECE",
"0. c gray81",
"q. c #D0D0D0",
"w. c gray82",
"e. c #D2D2D2",
"r. c LightGray",
"t. c gray84",
"y. c #D7D7D7",
"u. c #DDDDDD",
"i. c gray87",
"p. c #DFDFDF",
"a. c gray88",
"s. c gray90",
"d. c #E6E6E6",
"f. c #E7E7E7",
"g. c #E9E9E9",
"h. c #EAEAEA",
"j. c gray92",
"k. c #ECECEC",
"l. c gray93",
"z. c #EEEEEE",
"x. c #F1F1F1",
"c. c #F3F3F3",
"v. c gray96",
"b. c #F9F9F9",
"n. c #FBFBFB",
"m. c #FDFDFD",
"M. c #FEFEFE",
"N. c gray100",
"B. c None",
/* pixels */
"B.B.B.B.B.B.B.B.B.B.B.B.B.B.B.B.B.B.B.B.B.B.B.B.B.B.B.B.B.B.B.B.",
"B.B.B.B.B.B.B.B.B.B.B.B.B.B.1 t w 1 B.B.B.B.B.B.B.B.B.B.B.B.B.B.",
"B.B.B.B.B.B.B.B.B.B.1 J ! W J C C J W ! J 1 B.B.B.B.B.B.B.B.B.B.",
"B.B.B.B.B.B.B.B.1 W W d 7 $ O   O O % 5 d W ! 1 B.B.B.B.B.B.B.B.",
"B.B.B.B.B.B.B.D ! a $   % t z C C z t % O $ i ! D B.B.B.B.B.B.B.",
"B.B.B.B.B.B.! D 1   5 I 6.s.x.x.v.x.a.6.I 5   1 D ! B.B.B.B.B.B.",
"B.B.B.B.B.! B $ $ z 6.j.z.j.j.j.j.s.j.z.j.0.z O % C ! B.B.B.B.B.",
"B.B.B.B.I D $ O C t.u.u.u.u.u.u.u.u.u.u.u.u.t.D $ % D J B.B.B.B.",
"B.B.B.B.! 1 O d 6.e.e.e.e.e.e.e.e.e.e.e.e.e.e.6.d   1 ! B.B.B.B.",
"B.B.B.[ a   % O.6.,.2.2.2.2.2.2.2.2.2.6.2.2.2.6.O.%   a [ B.B.B.",
"B.B.B.W $   i %.=.%.%.%.%.%.6.u.,.%.=.%.%.%.%.=.%.i O % W B.B.B.",
"B.B.( h   O z O.O.O.O.+.O.O.2.M.x.0.+.O.O.+.O.O.+.z     h ( B.B.",
"B.B.| 5 O   z [ ( [ ( ( ( ( ,.M.M.M.s.=.( ( ( ( [ h O   5 | B.B.",
"B.B.! % O   a ( O.%.6.e.e.e.a.M.M.M.M.n.u.| I W I i   O % ! B.B.",
"B.B.I $ O $ w ! %.e.z.M.M.M.M.M.M.M.M.M.M.x.,.I C 5     $ I B.B.",
"B.B.D O O % 5 J %.0.j.M.M.M.M.M.M.M.M.M.M.M.M.j.! $ O O O D B.B.",
"B.B.D O O : 1 z +.0.j.M.M.M.M.M.M.M.M.M.M.M.M.a.B O O O O D B.B.",
"B.B.I $ $ % 5 d [ 0.z.M.M.M.M.M.M.M.M.M.M.z.O.w O O O O $ I B.B.",
"B.B.[ : $ % 5 a D [ %.=.%.%.0.M.M.M.M.v.=.d % $ $ O $ $ % [ B.B.",
"B.B.+.7 $ : 5 w i d M d 1 % C M.M.n.0.M : $ $ % $ $ % % 7 +.B.B.",
"B.B.$.z $ : 5 t i d z C z : B M.a.I 1 $ $ % % % $ 1 C 1 z $.B.B.",
"B.B.B.( 1 : 7 t a h z C D M D | w % % : % % % % 7 O.J : [ B.B.B.",
"B.B.B.,.d % 5 t d h M C J W ! z 7 : % % % % 1 z 6.=.1 h =.B.B.B.",
"B.B.B.B.O.7 : 7 a h M C J W ( [ [ J B h M I %.u.0.i 7 O.B.B.B.B.",
"B.B.B.B.B.W 1 : w h M C I W ( | O.$.=.2.0.t.u.2.a 1 W B.B.B.B.B.",
"B.B.B.B.B.6.J 5 1 7 h D I W ( | +.$.,.6.0.0.[ t 5 J 6.B.B.B.B.B.",
"B.B.B.B.B.B.0.W t 1 5 i B I ( | +.%.=.%.! h 5 w ! 0.B.B.B.B.B.B.",
"B.B.B.B.B.B.B.B.+.z 7 1 5 w a M M M d w 5 7 z +.B.B.B.B.B.B.B.B.",
"B.B.B.B.B.B.B.B.B.0.| B a 7 5 5 1 5 7 i B | 0.B.B.B.B.B.B.B.B.B.",
"B.B.B.B.B.B.B.B.B.B.B.B.2.+.( ! ! [ +.,.B.B.B.B.B.B.B.B.B.B.B.B.",
"B.B.B.B.B.B.B.B.B.B.B.B.B.B.B.B.B.B.B.B.B.B.B.B.B.B.B.B.B.B.B.B.",
"B.B.B.B.B.B.B.B.B.B.B.B.B.B.B.B.B.B.B.B.B.B.B.B.B.B.B.B.B.B.B.B."
};
