/* XPM */
static char *xpm_disabled_pause[] = {
/* columns rows colors chars-per-pixel */
"32 32 145 2",
"   c gray28",
".  c #484848",
"X  c #494949",
"o  c gray29",
"O  c #4B4B4B",
"+  c #4C4C4C",
"@  c gray30",
"#  c #4E4E4E",
"$  c gray31",
"%  c #505050",
"&  c #515151",
"*  c gray32",
"=  c #535353",
"-  c gray33",
";  c #555555",
":  c #565656",
">  c gray34",
",  c #585858",
"<  c gray35",
"1  c #5A5A5A",
"2  c #5B5B5B",
"3  c gray36",
"4  c #5D5D5D",
"5  c gray37",
"6  c #5F5F5F",
"7  c #606060",
"8  c gray38",
"9  c #626262",
"0  c gray39",
"q  c #656565",
"w  c gray40",
"e  c #676767",
"r  c #686868",
"t  c DimGray",
"y  c #6A6A6A",
"u  c gray42",
"i  c #6D6D6D",
"p  c gray43",
"a  c #6F6F6F",
"s  c gray44",
"d  c #717171",
"f  c #727272",
"g  c #767676",
"h  c #777777",
"j  c gray47",
"k  c #797979",
"l  c gray48",
"z  c #7C7C7C",
"x  c gray49",
"c  c #7E7E7E",
"v  c gray50",
"b  c #808080",
"n  c #818181",
"m  c #838383",
"M  c #848484",
"N  c #868686",
"B  c #888888",
"V  c #898989",
"C  c gray54",
"Z  c #8B8B8B",
"A  c gray55",
"S  c #8D8D8D",
"D  c #8E8E8E",
"F  c gray56",
"G  c #909090",
"H  c gray57",
"J  c #929292",
"K  c gray58",
"L  c #959595",
"P  c gray59",
"I  c #979797",
"U  c #989898",
"Y  c gray60",
"T  c #9A9A9A",
"R  c #9B9B9B",
"E  c gray61",
"W  c #9D9D9D",
"Q  c gray62",
"!  c #9F9F9F",
"~  c #A0A0A0",
"^  c gray63",
"/  c #A2A2A2",
"(  c gray64",
")  c #A4A4A4",
"_  c #A5A5A5",
"`  c gray65",
"'  c #A7A7A7",
"]  c gray66",
"[  c #A9A9A9",
"{  c #AAAAAA",
"}  c gray67",
"|  c #ACACAC",
" . c gray68",
".. c #AFAFAF",
"X. c gray69",
"o. c #B1B1B1",
"O. c gray70",
"+. c #B4B4B4",
"@. c gray71",
"#. c #B7B7B7",
"$. c gray72",
"%. c #B9B9B9",
"&. c gray73",
"*. c #BCBCBC",
"=. c gray74",
"-. c gray",
";. c gray75",
":. c #C0C0C0",
">. c gray77",
",. c #C5C5C5",
"<. c gray78",
"1. c gray79",
"2. c #CBCBCB",
"3. c gray80",
"4. c #CDCDCD",
"5. c #CECECE",
"6. c gray81",
"7. c #D0D0D0",
"8. c gray82",
"9. c gray84",
"0. c #DADADA",
"q. c #DDDDDD",
"w. c gray87",
"e. c #DFDFDF",
"r. c gray89",
"t. c gray90",
"y. c #E7E7E7",
"u. c #E9E9E9",
"i. c #EAEAEA",
"p. c gray92",
"a. c #ECECEC",
"s. c #EFEFEF",
"d. c gray94",
"f. c #F1F1F1",
"g. c gray95",
"h. c #F3F3F3",
"j. c #F4F4F4",
"k. c gray96",
"l. c #F6F6F6",
"z. c #F9F9F9",
"x. c gray99",
"c. c #FDFDFD",
"v. c #FEFEFE",
"b. c gray100",
"n. c None",
/* pixels */
"n.n.n.n.n.n.n.n.n.n.n.n.n.n.n.n.n.n.n.n.n.n.n.n.n.n.n.n.n.n.n.n.",
"n.n.n.n.n.n.n.n.n.n.n.n.n.n.2 q q 2 n.n.n.n.n.n.n.n.n.n.n.n.n.n.",
"n.n.n.n.n.n.n.n.n.n.2 G E T G Z Z G T E G 2 n.n.n.n.n.n.n.n.n.n.",
"n.n.n.n.n.n.n.n.2 E K g 7 % O     O % 5 j K E 2 n.n.n.n.n.n.n.n.",
"n.n.n.n.n.n.n.A T s $   % r z Z Z z r % O $ p E A n.n.n.n.n.n.n.",
"n.n.n.n.n.n.E A 2   5 K 1.y.d.d.d.d.y.1.G 5 O - A E n.n.n.n.n.n.",
"n.n.n.n.n.E N $ O z 6.u.a.u.u.u.u.u.u.u.u.1.m O % Z E n.n.n.n.n.",
"n.n.n.n.K A $ O Z 9.e.e.e.e.e.e.e.e.e.e.r.e.9.Z O $ A G n.n.n.n.",
"n.n.n.n.E 2   g 1.7.6.7.7.7.7.7.7.7.7.7.7.7.7.1.g   - ~ n.n.n.n.",
"n.n.n.` s   - ..=.T K K K K K @.@.K K K K K T =...- O p ` n.n.n.",
"n.n.n.T $   p %...Z [ @.@...G ~ ~ G ..@.@.[ Z ..%.p   $ T n.n.n.",
"n.n.~ j   O z ..~ A 0.b.b.a.T E T T a.b.b.0.G ~ ..z O   j ~ n.n.",
"n.n.[ 5 O   z ` T G e.b.b.d.E G G E d.b.b.e.A T ` j O   5 [ n.n.",
"n.n.E % O   s T A G r.b.b.d.~ Z Z ~ d.b.b.r.G G T p   O % E n.n.",
"n.n.K $ O $ q A N G u.b.b.l.` z m ` l.b.b.y.G N N 5     $ K n.n.",
"n.n.A O O % 2 m Z K u.b.b.l.[ g g [ l.b.b.a.G j s O O O O A n.n.",
"n.n.A O $ % 2 p N E a.b.b.l...s p ..l.b.b.a.G p - O O O O A n.n.",
"n.n.K $ $ % 2 7 p ~ l.b.b.b.X.q q X.b.b.b.l.G % O O O O $ G n.n.",
"n.n.` - $ - 5 q r ~ z.b.b.b.@.5 5 @.b.b.b.z.Z O $ O O $ - ` n.n.",
"n.n.X.7 $ - 7 q r [ b.b.b.b.%.- - @.b.b.b.b.A $ $ $ % - 7 X.n.n.",
"n.n.@.z $ - 7 q p [ b.b.b.b.%.% % %.b.b.b.b.G $ % - Z 5 z @.n.n.",
"n.n.n.` 2 - 7 r p ` d.d.d.l.@.% $ ..a.u.u.u.Z $ 7 ..A - ` n.n.n.",
"n.n.n.=.j % 5 r s m A T E ` ~ z 7 7 r q q q 7 z 1.:.2 g =.n.n.n.",
"n.n.n.n...7 - 7 s j z Z G K ~ [ ` G m j z K %.e.6.p 7 ..n.n.n.n.",
"n.n.n.n.n.T 5 - 7 j N Z G T ~ [ ..%.=.,.1.9.e.,.s 5 T n.n.n.n.n.",
"n.n.n.n.n.1.G 5 2 7 j A K T ~ [ X.%.=.1.7.6.` r 5 G 1.n.n.n.n.n.",
"n.n.n.n.n.n.6.T r 2 5 p N K ~ [ X.%.=.%.~ j 5 q T 6.n.n.n.n.n.n.",
"n.n.n.n.n.n.n.n.X.z 7 2 5 q s m m m g q 5 7 z X.n.n.n.n.n.n.n.n.",
"n.n.n.n.n.n.n.n.n.6.[ N s 7 5 5 2 5 7 s N [ 6.n.n.n.n.n.n.n.n.n.",
"n.n.n.n.n.n.n.n.n.n.n.n.,.X.~ E E ~ X.,.n.n.n.n.n.n.n.n.n.n.n.n.",
"n.n.n.n.n.n.n.n.n.n.n.n.n.n.n.n.n.n.n.n.n.n.n.n.n.n.n.n.n.n.n.n.",
"n.n.n.n.n.n.n.n.n.n.n.n.n.n.n.n.n.n.n.n.n.n.n.n.n.n.n.n.n.n.n.n."
};
