/* XPM */
static char *xpm_hover_play[] = {
/* columns rows colors chars-per-pixel */
"32 32 151 2",
"   c #59BD5783569C",
".  c #6961639D6147",
"X  c #FFFF478D0000",
"o  c #FFFF4B73014F",
"O  c #FFFF4F540855",
"+  c #FFFF54530073",
"@  c #FFFF5A3400A5",
"#  c #FFFF53280AAD",
"$  c #FFFF5C1D0B24",
"%  c #FFFF578D1303",
"&  c #FFFF5C2114D2",
"*  c #FFFF5DD41B78",
"=  c #FFFF64BF02E0",
"-  c #FFFF69F702C0",
";  c #FFFF6341098D",
":  c #FFFF6D3508AE",
">  c #FFFF64FB15A8",
",  c #FFFF6B171398",
"<  c #FFFE64C11B78",
"1  c #FFFF717D12E4",
"2  c #FFFF70FF1920",
"3  c #FFFF791A1AFF",
"4  c #FFFF64B423CC",
"5  c #FFFF6C9721BD",
"6  c #FFFF6AFA2C64",
"7  c #FFFF764D234F",
"8  c #FFFF7C6E23D5",
"9  c #FFFE74822D5B",
"0  c #FFFF79522B7E",
"q  c #FEA96FC13567",
"w  c #FD9571A136E8",
"e  c #FF887C593544",
"r  c #FFFF7B2C3A10",
"t  c #FD6F76EF4029",
"y  c #FD9C7E96423D",
"u  c #FFE77EA549CD",
"i  c #FFFF80A62ABA",
"p  c #FFEA843D346B",
"a  c #FFFF81683B43",
"s  c #FFFF8B153C1D",
"d  c #DFD482D556E0",
"f  c #DB8F86355DA9",
"g  c #FF8D854C41CE",
"h  c #FFD98D0641AB",
"j  c #FFFF916C4E67",
"k  c #E49E87275A7D",
"l  c #FDB885AC53A1",
"z  c #FFFF8A8A52AF",
"x  c #F49F89095D1A",
"c  c #FE368C095D38",
"v  c #FE8196C856E6",
"b  c #FFF695EF5C28",
"n  c #FFFF9AA45CFB",
"m  c #D7BF8A406385",
"M  c #D46B8E75686D",
"N  c #D1CD92516CC8",
"B  c #CFA9965170A3",
"V  c #CD9C9C327569",
"C  c #DE8D9E567D86",
"Z  c #F5378CE4624B",
"A  c #FFFF8ED760AC",
"S  c #E9EB983E6FC7",
"D  c #FEB4927865E4",
"F  c #FECA9D9A6364",
"G  c #F62891DF68BA",
"H  c #FD3A962D6B3A",
"J  c #FFFF9A546C66",
"K  c #E7309673757E",
"L  c #EDA094CD7089",
"P  c #E9C398BC74FE",
"I  c #ECBD9BDD7AD8",
"U  c #F29D977971FE",
"Y  c #FEA69D687535",
"T  c #FA569E8F789A",
"R  c #CD0CA1877863",
"E  c #D050A385782B",
"W  c #FF60A29362A2",
"Q  c #FFFFA7C26E95",
"!  c #FEDCA9A86C18",
"~  c #EFC0A09A780B",
"^  c #FD37A4BE72D1",
"/  c #FFFFAC087790",
"(  c #F4D8A31E7C24",
")  c #FFEFA4767D4A",
"_  c #FF19ACFB7A90",
"`  c #9A018886815F",
"'  c #A2FA8DA38501",
"]  c #B68C99198D21",
"[  c #BBC99A428CA5",
"{  c #B9189DD392AC",
"}  c #D13D9B33853F",
"|  c #E6259FE5810D",
" . c #CD23A46B8005",
".. c #C699AC2588E1",
"X. c #D463A1D480F4",
"o. c #DD7AA6048D9A",
"O. c #DBB5B0658D36",
"+. c #C9D8A278926F",
"@. c #CC31AFDE9434",
"#. c #D0E8ABD8926A",
"$. c #E3D5AF1B8FA7",
"%. c #EC91ABE28CA7",
"&. c #F465A6638478",
"*. c #FAA9AC9F83FF",
"=. c #FFDDAF0D8DD0",
"-. c #FE61B52084CE",
";. c #E9ECB0509503",
":. c #FDA4B2119219",
">. c #FFFDBBFA9308",
",. c #FBC6B7A99BBF",
"<. c #FFC0BAF79EB5",
"1. c #D2F9B5BFA738",
"2. c #E665BD7AA722",
"3. c #FE27BDCAA224",
"4. c #FFFFC23A9BF5",
"5. c #DA8BCB14BCE8",
"6. c #DB22D0D9BEC1",
"7. c #ECE0C06AAD36",
"8. c #FD24C4F7A34F",
"9. c #FFFFC87CA736",
"0. c #F505C79BB02E",
"q. c #FFFFC691AF2C",
"w. c #FFE4CA7FAC80",
"e. c #E18DC598B6DD",
"r. c #EB2FCA4FB5D7",
"t. c #F687CE6DB2E5",
"y. c #FD72CD4DB45B",
"u. c #F30ECFD6B9D8",
"i. c #FFFFCDAEB91C",
"p. c #FFFFD185B55F",
"a. c #FFF5D234BF72",
"s. c #DDC6D333C30B",
"d. c #FFFFD3E2C1DB",
"f. c #FFFFD905C1D5",
"g. c #FF85DD96CE82",
"h. c #E4EFDE29D31D",
"j. c #FFFFDF0FD171",
"k. c #FFFFE105CEB0",
"l. c #E77EE253DAD6",
"z. c #FFFFE6D0DC70",
"x. c #FF65EAD1E05E",
"c. c #ECACE74CE2B3",
"v. c #ED5BE9F7E5C8",
"b. c #FF51EADDE287",
"n. c #F118EDF2E9E7",
"m. c #F4CCF20EF02E",
"M. c #FFDDF325EDC7",
"N. c #F824F614F4AC",
"B. c #FF65FA40F7A2",
"V. c #FF79FF80FF72",
"C. c None",
/* pixels */
"C.C.C.C.C.C.C.C.C.C.C.C.C.C.C.C.C.C.C.C.C.C.C.C.C.C.C.C.C.C.C.C.",
"C.C.C.C.C.C.C.C.C.C.C.C.C.C.  . .   C.C.C.C.C.C.C.C.C.C.C.C.C.C.",
"C.C.C.C.C.C.C.C.C.C.  ' } K Z x x Z K } '   C.C.C.C.C.C.C.C.C.C.",
"C.C.C.C.C.C.C.C.  [ L t * O o o o o O * t L [   C.C.C.C.C.C.C.C.",
"C.C.C.C.C.C.C.` I w o X # 4 u c c u 6 # X O q I ` C.C.C.C.C.C.C.",
"C.C.C.C.C.C.] Z % X 6 Y i.z.M.M.M.M.z.i.Y 4 X % Z ] C.C.C.C.C.C.",
"C.C.C.C.C.] l O o A d.b.b.b.b.b.z.b.b.b.b.d.A O # l ] C.C.C.C.C.",
"C.C.C.C.' Z O # Y g.g.u.j.j.j.j.g.j.g.g.j.j.g.Y O O Z ' C.C.C.C.",
"C.C.C.C.| % X A d.d.0.V O.t.d.d.d.d.d.i.d.d.d.i.c o % I C.C.C.C.",
"C.C.C.+.w X 4 3.q.q.3.E ..R O.3.q.q.q.q.q.q.q.q.3.4 X q +.C.C.C.",
"C.C.C.U O X l 3.3.3.,.V 6.s.@.} %.,.<.<.<.<.<.<.3.l o # U C.C.C.",
"C.C.{ t X o D =.=.=.&.V h.V.v.s.#.C &.=.=.=.=.=.=.D o X t { C.C.",
"C.C.$.* X o A *.T *.T B h.V.V.B.v.5.o.P T *.T &.*.A O X * o.C.C.",
"C.C.I # X o u J H H G N h.V.V.V.V.N.c.e.| G H H H u o X # I C.C.",
"C.C.G o o O w A A A l M c.V.V.V.V.V.V.N.v.2.U c c 4 X o o G C.C.",
"C.C.Z o o O 4 c A u u m c.V.V.V.V.V.V.V.V.N.b.,.u # o o o A C.C.",
"C.C.x o o # % w c l q m v.V.V.V.V.V.V.V.V.V.b.=.4 X o o o c C.C.",
"C.C.G + # # & 4 r l w d v.V.V.V.V.V.V.V.M.3.g % o o + o o G C.C.",
"C.C.( # + # > 4 6 y y k n.V.V.V.V.V.B.i.l & # + + + o o $ ( C.C.",
"C.C.;.< + $ & 5 6 r r S N.V.V.V.B.g.b > + + + + + o $ + < ;.C.C.",
"C.C.1.g + $ > 5 9 r y ~ N.V.V.x.) < + + + + + + + $ z $ y 1.C.C.",
"C.C.C.^ $ @ > 5 9 e a ( B.B.w.9 + + + @ @ @ @ + < *.b $ ^ C.C.C.",
"C.C.C.2.e @ ; 5 0 e g _ k.>.J a , @ @ @ + @ $ a w.8.; e 2.C.C.C.",
"C.C.C.C.*., @ , 0 a g b F F ^ _ / b g a g n >.k.p.7 , *.C.C.C.C.",
"C.C.C.C.C.F ; @ , p h j b F Q _ -.4.4.9.p.a.k.9.0 ; F C.C.C.C.C.",
"C.C.C.C.C.r.v : = , p j n W / _ -.>.4.w.p.p._ 2 ; v r.C.C.C.C.C.",
"C.C.C.C.C.C.r.F 1 = : 3 h n Q _ -.>.4.>.! i - , W r.C.C.C.C.C.C.",
"C.C.C.C.C.C.C.C.-.p : - = 1 8 p s s i 1 - : p -.C.C.C.C.C.C.C.C.",
"C.C.C.C.C.C.C.C.C.t._ h i : - - - - : 3 h _ t.C.C.C.C.C.C.C.C.C.",
"C.C.C.C.C.C.C.C.C.C.C.C.4._ ! W W ! -.4.C.C.C.C.C.C.C.C.C.C.C.C.",
"C.C.C.C.C.C.C.C.C.C.C.C.C.C.C.C.C.C.C.C.C.C.C.C.C.C.C.C.C.C.C.C.",
"C.C.C.C.C.C.C.C.C.C.C.C.C.C.C.C.C.C.C.C.C.C.C.C.C.C.C.C.C.C.C.C."
};
