/* XPM */
static char *xpm_hover_help[] = {
/* columns rows colors chars-per-pixel */
"32 32 118 2",
"   c #59BD5783569C",
".  c #6961639D6147",
"X  c #FFFF478D0000",
"o  c #FFFF4B760152",
"O  c #FFFF4F540855",
"+  c #FFFF546A00E2",
"@  c #FFFF5A2100C0",
"#  c #FFFF53560A8D",
"$  c #FFFF5BB60A7B",
"%  c #FFFF578D1303",
"&  c #FFFF5C5D14F2",
"*  c #FFFF5DD41B78",
"=  c #FFFF64BF02E0",
"-  c #FFFF69F702C0",
";  c #FFFF6341098D",
":  c #FFFF6D3508AE",
">  c #FFFF6524154D",
",  c #FFFF6BA61324",
"<  c #FFFF630A1A75",
"1  c #FFFF69191E7D",
"2  c #FFFF717D12E4",
"3  c #FFFF70FF1920",
"4  c #FFFF791A1AFF",
"5  c #FFFF64B423CC",
"6  c #FFFF6CBC22DA",
"7  c #FFFF6A962AA9",
"8  c #FFFF764D234F",
"9  c #FFFF7C6E23D5",
"0  c #FFFF74932D35",
"q  c #FFFF79522B7E",
"w  c #FEA96FC13567",
"e  c #FFFF7153367F",
"r  c #FF887C593544",
"t  c #FFFF749F3AC4",
"y  c #FFFF7B893AA0",
"u  c #FD6F76EF4029",
"i  c #FF677BF94098",
"p  c #FFFF7F2D4A89",
"a  c #FFFF80A62ABA",
"s  c #FFEA843D346B",
"d  c #FFFF81653AC3",
"f  c #FFFF8B153C1D",
"g  c #FFFF845D43BB",
"h  c #FFD98D0541A9",
"j  c #FFFF82804C7B",
"k  c #FFFF8BE64EF8",
"l  c #FFFF91994EAD",
"z  c #FD988572543F",
"x  c #FFFF8A1A5220",
"c  c #F49F89095D1A",
"v  c #FF008BE35C9E",
"b  c #FE8196C856E6",
"n  c #FFFF959B5B20",
"m  c #FFFF9AA45CFB",
"M  c #F5378CE4624B",
"N  c #FFFF8ED760AC",
"B  c #FFFF9252655A",
"V  c #FECA9D70637A",
"C  c #F71A91FF68D7",
"Z  c #FE8596746B75",
"A  c #FFFF99B56E74",
"S  c #E7309673757E",
"D  c #EDA094CD7089",
"F  c #ECBE9BDE7AD3",
"G  c #F1F697AA72C1",
"H  c #FFFF9CCE73C1",
"J  c #FF60A29362A2",
"K  c #FFFFA7C26E95",
"L  c #FEDCA9A86C18",
"P  c #FBD2A45B73E6",
"I  c #FFFFAC087790",
"U  c #F414A19F7C30",
"Y  c #FFFFA3377C9B",
"T  c #FF4EADE07AFB",
"R  c #9A018886815F",
"E  c #A2FA8DA38501",
"W  c #B68C99198D21",
"Q  c #BBC99A428CA5",
"!  c #B9189DD392AC",
"~  c #D13D9B33853F",
"^  c #DF49A5A68E3D",
"/  c #C9D8A278926F",
"(  c #FD1DACAB832F",
")  c #FFFFAEC38D73",
"_  c #FE61B50E84B3",
"`  c #FFFFB03A8F8C",
"'  c #E9EBB0509503",
"]  c #FFFFB0DF906C",
"[  c #FFFFBBDD92FC",
"{  c #FFFFBAE99EA5",
"}  c #D2F9B5BFA738",
"|  c #E665BD7AA722",
" . c #FFFFBD24A1B3",
".. c #FFFFC23B9BF7",
"X. c #FE5BC5F2A2FC",
"o. c #FFFFC87CA736",
"O. c #FFFFC641AEB6",
"+. c #FFFFCB13AC71",
"@. c #EB2FCA4FB5D7",
"#. c #F687CE6DB2E5",
"$. c #FFFFCB39B2D0",
"%. c #FFFFCEDCBAD6",
"&. c #FFFFD185B55F",
"*. c #FFFFD217BF4C",
"=. c #FFFFD3BBC19F",
"-. c #FFFFD905C1D5",
";. c #FFFFDCEECDE3",
":. c #FFFFDF8ED1D9",
">. c #FFFFE105CEB0",
",. c #FFFFE254D4E4",
"<. c #FFFFE573DA90",
"1. c #FFFFE8C3DF4D",
"2. c #FFFFEAF1E25A",
"3. c #FFFFF2A2ED19",
"4. c #FFFFF605F1EE",
"5. c #FFFFF9C6F739",
"6. c #FFFFFF47FEF6",
"7. c None",
/* pixels */
"7.7.7.7.7.7.7.7.7.7.7.7.7.7.7.7.7.7.7.7.7.7.7.7.7.7.7.7.7.7.7.7.",
"7.7.7.7.7.7.7.7.7.7.7.7.7.7.  . .   7.7.7.7.7.7.7.7.7.7.7.7.7.7.",
"7.7.7.7.7.7.7.7.7.7.  E ~ S M c c M S ~ E   7.7.7.7.7.7.7.7.7.7.",
"7.7.7.7.7.7.7.7.  Q D u * O o o o o O * u D Q   7.7.7.7.7.7.7.7.",
"7.7.7.7.7.7.7.R F w O X % 7 p z v p 7 # X O w F R 7.7.7.7.7.7.7.",
"7.7.7.7.7.7.W M % X 5 H %.<.3.3.3.3.1.%.H 5 X % M W 7.7.7.7.7.7.",
"7.7.7.7.7.W z O O N =.2.2.2.2.2.1.2.2.2.2.=.N O # z W 7.7.7.7.7.",
"7.7.7.7.E M O # H ;.:.;.:.;.:.;.;.;.;.;.:.:.;.H O O M E 7.7.7.7.",
"7.7.7.7.F % o v %.=.=.=.=.;.:.2.2.<.;.=.=.=.=.%.v o % F 7.7.7.7.",
"7.7.7./ w X 5  .O.O.O.O.:.5.6.6.6.6.5.<.O.O.O.O. .5 X w / 7.7.7.",
"7.7.7.G O o z  .{ {  .;.6.6.5.2.1.4.6.6.:. . . . .z o # G 7.7.7.",
"7.7.! u X O B ] ) )  .4.6.5. .` )  .2.6.6. .] ] ] B o X u ! 7.7.",
"7.7.^ * o O N Y H (  .3.5.%.H ( Y H %.6.6.O.H H Y N O X * ^ 7.7.",
"7.7.F # X o p H Z Z H H ) H Z Z Z A ;.6.5.{ A A A p o o # F 7.7.",
"7.7.C o o O w B N N v v v v v v B $.5.6.<.A v v v 7 X o o C 7.7.",
"7.7.M o o # 5 z N p p p p p p v %.6.6.2.H p p p u # o o o M 7.7.",
"7.7.M o o # & e v z t e t e i +.6.6.,.B e t t e & o o o o v 7.7.",
"7.7.C + + # & 5 t x t 7 7 7 v 3.6.:.j 7 7 7 7 & o o + o o C 7.7.",
"7.7.U # o $ & 5 0 i p 6 < & A 6.6.H & < > & # + + + o o $ U 7.7.",
"7.7.' < + $ > 6 0 t g y & $ j %.+.r # $ # + + + + o $ + < ' 7.7.",
"7.7.} i + $ > 6 0 r g j y $ 6 k x 6 + + + + + + + $ x $ g } 7.7.",
"7.7.7.P $ @ > 6 0 y g x b j Y 5.6.T + + @ @ @ + > _ B $ P 7.7.7.",
"7.7.7.| r + ; 6 q d g k b V X.6.6.( + @ @ + ; d +.X.; r | 7.7.7.",
"7.7.7.7.( , @ , q y h l n V [ >.,.[ g s g m [ ;.%.8 , ( 7.7.7.7.",
"7.7.7.7.7.V ; @ , d h l m V P T _ [ ..o.&.*.>.o.q ; V 7.7.7.7.7.",
"7.7.7.7.7.@.b : = : r l m J I T _ [ ..o.&.&.T 3 ; b @.7.7.7.7.7.",
"7.7.7.7.7.7.@.V 2 = - 4 h m L T _ ....[ L s - , V @.7.7.7.7.7.7.",
"7.7.7.7.7.7.7.7._ f : - = 2 9 s f f a 2 - - s _ 7.7.7.7.7.7.7.7.",
"7.7.7.7.7.7.7.7.7.#.T h a : - - - - - 4 h T #.7.7.7.7.7.7.7.7.7.",
"7.7.7.7.7.7.7.7.7.7.7.7...T L J J L _ ..7.7.7.7.7.7.7.7.7.7.7.7.",
"7.7.7.7.7.7.7.7.7.7.7.7.7.7.7.7.7.7.7.7.7.7.7.7.7.7.7.7.7.7.7.7.",
"7.7.7.7.7.7.7.7.7.7.7.7.7.7.7.7.7.7.7.7.7.7.7.7.7.7.7.7.7.7.7.7."
};
