/* XPM */
static char *xpm_stop[] = {
/* columns rows colors chars-per-pixel */
"32 32 221 2",
"   c #1709191278C7",
".  c #19FA1C047A75",
"X  c #1A6E20D27CE7",
"o  c #214523387EF1",
"O  c #59EC59F45AEA",
"+  c #658365A2684D",
"@  c #1694298A8171",
"#  c #18E32BAC82C8",
"$  c #14B732E78651",
"%  c #124B3C1C8B24",
"&  c #1ED13BB98BB7",
"*  c #23B025A88023",
"=  c #241D2BB08330",
"-  c #2AAC2C868443",
";  c #217933988743",
":  c #2C8333C087EA",
">  c #2B503C918CB9",
",  c #30CF328687A1",
"<  c #3373353E8959",
"1  c #3D433ED08EDA",
"2  c #0F4244BF8F85",
"3  c #18E841668E56",
"4  c #0A6C4C7C935E",
"5  c #1D59453B9095",
"6  c #1A574D3994A5",
"7  c #0B6A57D2998B",
"8  c #1194518C9682",
"9  c #1E195069968A",
"0  c #16F0557598F0",
"q  c #16FC5FCC9E6B",
"w  c #2F02478E8C81",
"e  c #29EC454E9146",
"r  c #29E24E929445",
"t  c #356145E3922C",
"y  c #34234E529691",
"u  c #265656A39A4C",
"i  c #2DB252A398B4",
"p  c #23665E589E3B",
"a  c #2C3D5AB19BAC",
"s  c #327E569B9AF8",
"d  c #3CFF55F69AF6",
"f  c #30BB5EB59F2C",
"g  c #3B985E109F40",
"h  c #0A9062029F00",
"j  c #190161359F3D",
"k  c #26BA61309FE9",
"l  c #0C496DE2A571",
"z  c #1D976E2DA683",
"x  c #0698751EA919",
"c  c #03507DCEAD9F",
"v  c #0E90796CABE0",
"b  c #115270E5A756",
"n  c #1B7B7C20ADE8",
"m  c #2F2A672DA386",
"M  c #25F46AD7A50C",
"N  c #2BC86E6CA73E",
"B  c #39E265DCA35F",
"V  c #385A6DEFA79E",
"C  c #2F397A24ADD7",
"Z  c #385776A9AC4E",
"A  c #35BB7DC0B00E",
"S  c #3E3B7AE1AECD",
"D  c #400D41AD907F",
"F  c #44844B119586",
"G  c #4AA54C319679",
"H  c #4544528E91B8",
"J  c #48C857E29C91",
"K  c #53DC595194A4",
"L  c #5BAC5D5096D7",
"P  c #54E1565E9BFE",
"I  c #5AB75C1D9FF7",
"U  c #5EFB609D98C1",
"Y  c #61E863B99A4E",
"T  c #67486A4C9E98",
"R  c #5D225E99A15B",
"E  c #58306B81A1DB",
"W  c #4F3075CDAC96",
"Q  c #41D57C9FAFDE",
"!  c #57617354A866",
"~  c #45557FB8B1C0",
"^  c #59B27E0FB0D9",
"/  c #629E6434A4CD",
"(  c #6B0D6CC5A458",
")  c #674A6CB0A914",
"_  c #6B8D6CE3A9C2",
"`  c #66ED7179A3EC",
"'  c #6FEB7132A7E1",
"]  c #713773CEA726",
"[  c #72B974CEABBA",
"{  c #797F7AA3AD2A",
"}  c #7A7F7D04B1CD",
"|  c #08A780A6AF68",
" . c #0100875FB29B",
".. c #0B3281E9B03A",
"X. c #05428975B3F0",
"o. c #0B988C2DB5B1",
"O. c #1B748595B2FC",
"+. c #198C88F0B4B7",
"@. c #00D59191B82B",
"#. c #02299221B88A",
"$. c #0A8E959CBAD0",
"%. c #164491D6B94C",
"&. c #1D8A9D77BFF3",
"*. c #25028F80B8D0",
"=. c #31BF8506B3B5",
"-. c #3CE78B0CB78C",
";. c #273399E6BE7B",
":. c #3A5F9214BB51",
">. c #34CA9818BE2B",
",. c #413584C3B460",
"<. c #487680B3B270",
"1. c #4799881AB681",
"2. c #4AAE8A21B7B2",
"3. c #4AFD8B57B85E",
"4. c #56978419B506",
"5. c #5D9680F7B3C3",
"6. c #4B7E93C2BCED",
"7. c #55AE922CBC8A",
"8. c #5F6A91F9BCEE",
"9. c #79BA83EFB3E7",
"0. c #669A9365BDFB",
"q. c #1E979DFDC049",
"w. c #2DE49D57C09C",
"e. c #3C2DA36FC486",
"r. c #549C9CE7C24B",
"t. c #62CF99F7C16B",
"y. c #6B539D20C397",
"u. c #45A2A03DC37C",
"i. c #44B9ADC0CA91",
"p. c #5F5CA51EC6A4",
"a. c #6051A04BC4A3",
"s. c #6C64A5CAC748",
"d. c #6059A701C84C",
"f. c #6AFBA69EC89B",
"g. c #6095ADECCC21",
"h. c #6A4FAC99CBD0",
"j. c #74ECA0CFC5DB",
"k. c #7625A741C98D",
"l. c #7E62A750C9DA",
"z. c #75C8AD30CC9A",
"x. c #7C99AADECBC5",
"c. c #6AAAB110CD86",
"v. c #74E0B27DCF7C",
"b. c #71DEB73FD1EB",
"n. c #7B9CB73AD256",
"m. c #7FA9BB18D4A2",
"M. c #6518C146D665",
"N. c #704CC580D916",
"B. c #7DBAC533D921",
"V. c #880188329099",
"C. c #8C1F8C6496AB",
"Z. c #83288412AED1",
"A. c #95CC961DA5DE",
"S. c #915291E0ACB8",
"D. c #9AF49B45A877",
"F. c #83818492B22D",
"G. c #84F488A1B485",
"H. c #8A9A8B7AB418",
"J. c #8ABD8C3FBB8C",
"K. c #8A15978ABD7E",
"L. c #9BAD9C41B424",
"P. c #96D497DEC31B",
"I. c #980C9901C327",
"U. c #9B9F9C81C55F",
"Y. c #81C7A155C437",
"T. c #8241AC75CCE0",
"R. c #8C60AA32CC2E",
"E. c #9FB4ACB1C5BD",
"W. c #8C3CB23CCDB5",
"Q. c #80B2B3ADD0AA",
"!. c #8B72BCA0D603",
"~. c #998CBD1AD6FF",
"^. c #A218A53AC6CA",
"/. c #AA05AC39C83B",
"(. c #A67AA729CBCE",
"). c #AE8EB69FC28C",
"_. c #AF08C022CF9C",
"`. c #B12BB2C1CA39",
"'. c #B7F5B978CCF8",
"]. c #BE67BF59CFC0",
"[. c #B7EFB8BDD656",
"{. c #BBCEBC47D849",
"}. c #BE96BF2CDA1B",
"|. c #8AAEC4CFD96A",
" X c #85BDCD64DDF9",
".X c #9577C4A7DADD",
"XX c #9853C1FED984",
"oX c #953EC930DD52",
"OX c #9A79CBC0DEE6",
"+X c #A3DAC533DBCF",
"@X c #A0C9CAD6DEB7",
"#X c #AA1FCC7BE010",
"$X c #B303CA19DF26",
"%X c #BA6FCF13D95A",
"&X c #BCD6D3C9DD50",
"*X c #AA81CD78E097",
"=X c #ACBDD17FE2F1",
"-X c #A505D891E4B6",
";X c #B601D54BE556",
":X c #B88FD574E5A1",
">X c #B7DFDAC4E49E",
",X c #C4BBC57CD370",
"<X c #CB25CC56D82D",
"1X c #C45FC4D2DD82",
"2X c #D2B8D444DE1F",
"3X c #CBA0CBEBE199",
"4X c #C880D812E7D6",
"5X c #C410DC31E9C8",
"6X c #D505D582E6A5",
"7X c #DA90DD0BE50B",
"8X c #D778D7AAE883",
"9X c #DD11DECDEB2E",
"0X c #D298E253EDCC",
"qX c #E3CAE498EF6E",
"wX c #E54EE6C4F0FF",
"eX c #E279EB24F358",
"rX c #EBD3ED61F4A9",
"tX c #ED49F2C6F7F5",
"yX c #F0EBF0EFF724",
"uX c #FFA8FFADFFC1",
"iX c None",
/* pixels */
"iXiXiXiXiXiXiXiXiXiXiXiXiXiXiXiXiXiXiXiXiXiXiXiXiXiXiXiXiXiXiXiX",
"iXiXiXiXiXiXiXiXiXiXiXiXiXiXO + + O iXiXiXiXiXiXiXiXiXiXiXiXiXiX",
"iXiXiXiXiXiXiXiXiXiXO C.S.Z.{ ] ' { Z.S.C.O iXiXiXiXiXiXiXiXiXiX",
"iXiXiXiXiXiXiXiXO A.Z.P < o .     . o < P F.A.O iXiXiXiXiXiXiXiX",
"iXiXiXiXiXiXiXV.H.G *   * D I _ _ I D *   o G H.V.iXiXiXiXiXiXiX",
"iXiXiXiXiXiXA.[ -   < } {.9XrXyXyXrX9X{.} <   - [ A.iXiXiXiXiXiX",
"iXiXiXiXiXA.( o . R }.wXwXwXqXqXqXqXwXwXwX}.R . o ( D.iXiXiXiXiX",
"iXiXiXiXC.[ o . _ 3X8X6X6X6X6X6X6X6X6X6X6X6X3X_ . o [ C.iXiXiXiX",
"iXiXiXiXH.- . P {.3X}.1X1X1X1X1X1X1X1X1X1X1X1X}.P . - H.iXiXiXiX",
"iXiXiXL.G   - P.[.J.} } } { } } } } { } } } J.[.P.* . G L.iXiXiX",
"iXiXiXF.*   G (.(.[ G.^.E.U.^.^.^.^.E.U.^.G.[ /.(.G   o F.iXiXiX",
"iXiXD.P     R U.I.' (.uXuXuXuXuXuXuXuXuXuX/.] I.U.R .   P D.iXiX",
"iXiXL.< . . R J.J.( `.uXuXuXuXuXuXuXuXuXuX`.T J.J.R . . < L.iXiX",
"iXiXH.o . . G } { T '.uXuXuXuXuXuXuXuXuXuX'.T { } G . . * H.iXiX",
"iXiX{ o . * 1 [ ' Y }.uXuXuXuXuXuXuXuXuXuX}.Y _ _ , . . . } iXiX",
"iXiX[ . . * , / [ L ,XuXuXuXuXuXuXuXuXuXuX,XL R G . . . . [ iXiX",
"iXiX[ X X = : F ) T <XuXuXuXuXuXuXuXuXuXuX<XK F o X X X X [ iXiX",
"iXiX9.# # # > t J ` 2XuXuXuXuXuXuXuXuXuXuX2XH & $ X $ X # 9.iXiX",
"iXiXK.& $ > e y d E 7XuXuXuXuXuXuXuXuXuXuX6Xw $ $ $ $ $ & K.iXiX",
"iXiXE.u % 5 r s g ! qXuXuXuXuXuXuXuXuXuXuX7Xr % % % 3 3 i E.iXiX",
"iXiX).W 2 6 u f B ^ rXuXuXuXuXuXuXuXuXuXuXwXa 2 2 6 5.9 W ).iXiX",
"iXiXiXY.0 8 p m V 4.0XtXtXtXtXeXeXeXeXeXeX4Xk 4 p R.0.0 Y.iXiXiX",
"iXiXiX+XQ 7 j N Z ~ 8.y.j.x.T.0.S N M M M M j <.$X+Xj Q +XiXiXiX",
"iXiXiXiXW.z h z A ,.2.7.8.s.k.T.x.t.2.,.1.t.~.0X;XZ M W.iXiXiXiX",
"iXiXiXiXiXf.b l n -.6.7.a.f.z.n.!.XX@X#X;X5X0X#X=.l s.iXiXiXiXiX",
"iXiXiXiXiX<Xp.v x O.:.r.d.h.v.m.!..X@X=X;X;Xn.O.v d.%XiXiXiXiXiX",
"iXiXiXiXiXiX&Xc.+.c ..*.u.g.b.m.|..XOXoXb.>.| +.h.&XiXiXiXiXiXiX",
"iXiXiXiXiXiXiXiX|.e.o. .X.%.;.e.i.e.w.%.X.o.e.|.iXiXiXiXiXiXiXiX",
"iXiXiXiXiXiXiXiXiX>XB.i.q.$.#.#.X.#.$.q.i.B.>XiXiXiXiXiXiXiXiXiX",
"iXiXiXiXiXiXiXiXiXiXiXiX-X XN.M.M.N. X-XiXiXiXiXiXiXiXiXiXiXiXiX",
"iXiXiXiXiXiXiXiXiXiXiXiXiXiXiXiXiXiXiXiXiXiXiXiXiXiXiXiXiXiXiXiX",
"iXiXiXiXiXiXiXiXiXiXiXiXiXiXiXiXiXiXiXiXiXiXiXiXiXiXiXiXiXiXiXiX"
};
