/* XPM */
static char *xpm_hover_pause[] = {
/* columns rows colors chars-per-pixel */
"32 32 115 2",
"   c #595756",
".  c #696361",
"X  c #FF4700",
"o  c #FF4B00",
"O  c #FF4F08",
"+  c #FF5301",
"@  c #FF5A01",
"#  c #FF530A",
"$  c #FF5C0B",
"%  c #FF5713",
"&  c #FF5D16",
"*  c #FF5E1C",
"=  c #FF6403",
"-  c #FF6903",
";  c #FF6409",
":  c #FF6C08",
">  c #FF6515",
",  c #FF6B13",
"<  c #FF651B",
"1  c #FF7112",
"2  c #FF721B",
"3  c #FF781B",
"4  c #FF6424",
"5  c #FF6C22",
"6  c #FF6B2C",
"7  c #FF7426",
"8  c #FF7C23",
"9  c #FF732C",
"0  c #FF782B",
"q  c #FE6F35",
"w  c #FF7036",
"e  c #FF7D35",
"r  c #FE753C",
"t  c #FE7F3F",
"y  c #FD7740",
"u  c #FE7F40",
"i  c #FF7F49",
"p  c #FF802A",
"a  c #FF8334",
"s  c #FF823D",
"d  c #FF8B3C",
"f  c #FF8641",
"g  c #FF8C41",
"h  c #FF8D4C",
"j  c #FF914E",
"k  c #FB8555",
"l  c #FF8B51",
"z  c #F4895D",
"x  c #FD8B5C",
"c  c #FE9656",
"v  c #FF955A",
"b  c #FF9B5B",
"n  c #F38D64",
"m  c #FF8E60",
"M  c #FF9463",
"N  c #FE9D64",
"B  c #F79168",
"V  c #F89469",
"C  c #FF996D",
"Z  c #E79675",
"A  c #ED9470",
"S  c #EC9C7B",
"D  c #F19772",
"F  c #FF9D74",
"G  c #FFA163",
"H  c #FFA76E",
"J  c #FEA96C",
"K  c #FDA473",
"L  c #FFAC77",
"P  c #F4A17C",
"I  c #FFA37E",
"U  c #FFAD7A",
"Y  c #9A8881",
"T  c #A28D84",
"R  c #B6998D",
"E  c #BB998C",
"W  c #B99D92",
"Q  c #D19B85",
"!  c #DFA58E",
"~  c #C9A292",
"^  c #FDAD83",
"/  c #FFAD8B",
"(  c #FEB585",
")  c #E9B095",
"_  c #FFB291",
"`  c #FFBC93",
"'  c #FFB799",
"]  c #FFBB9B",
"[  c #D2B5A7",
"{  c #E6BDA7",
"}  c #FFBEA3",
"|  c #FFC29C",
" . c #FCC5A0",
".. c #FFC8A7",
"X. c #FFCBAB",
"o. c #EACAB5",
"O. c #F6CEB2",
"+. c #FFCFB2",
"@. c #FFCDB9",
"#. c #FFD1B5",
"$. c #FFD1BE",
"%. c #FFD4C2",
"&. c #FFD9C1",
"*. c #FFDCCE",
"=. c #FFDED0",
"-. c #FFE0CE",
";. c #FFE0D3",
":. c #FFE6DB",
">. c #EBE7E3",
",. c #FFEBE2",
"<. c #FFF2EC",
"1. c #FFF6F1",
"2. c #FFF8F5",
"3. c #FFFFFE",
"4. c None",
/* pixels */
"4.4.4.4.4.4.4.4.4.4.4.4.4.4.4.4.4.4.4.4.4.4.4.4.4.4.4.4.4.4.4.4.",
"4.4.4.4.4.4.4.4.4.4.4.4.4.4.  . .   4.4.4.4.4.4.4.4.4.4.4.4.4.4.",
"4.4.4.4.4.4.4.4.4.4.  T Q Z n z n n Z Q T   4.4.4.4.4.4.4.4.4.4.",
"4.4.4.4.4.4.4.4.  E A r 4 O o o X o O 4 r A E   4.4.4.4.4.4.4.4.",
"4.4.4.4.4.4.4.Y S q O X O 6 i x x i 6 # X O q S Y 4.4.4.4.4.4.4.",
"4.4.4.4.4.4.R n % X 4 F @.:.<.<.<.<.:.@.F 4 X % n R 4.4.4.4.4.4.",
"4.4.4.4.4.E k O o m %.,.,.,.,.,.:.,.,.,.,.%.m o O k E 4.4.4.4.4.",
"4.4.4.4.T z O o F *.=.=.=.*.=.=.=.=.*.=.=.=.*.x o O n T 4.4.4.4.",
"4.4.4.4.! # X x %.@.%.@.@.%.@.%.%.%.@.%.%.%.%.@.x o % S 4.4.4.4.",
"4.4.4.~ q X 4 / } C B B B B V _ _ B B n n n C } / 4 X q ~ 4.4.4.",
"4.4.4.D O X k ' / z / ' ' _ n I F n _ ' ' / z / ] k X O D 4.4.4.",
"4.4.W y X X M / ^ n =.3.3.,.Z D D Z ,.3.3.*.n ^ _ M X X y W 4.4.",
"4.4.! * X o m ^ C n =.3.3.<.S n n S <.3.3.=.n C ^ m o X * ! 4.4.",
"4.4.S # o X i C n n :.3.3.<.Q x m Q 1.3.3.:.V n C i X X # S 4.4.",
"4.4.V o o O w m i B ,.3.3.1.! x x ! 1.3.3.,.B x x 4 X o o B 4.4.",
"4.4.n o o O 4 x m A >.3.3.2.! r r ! 2.3.3.>.B m q O o o o n 4.4.",
"4.4.n o o # % w x S <.3.3.2.! r q ! 2.3.3.<.V w & o o o o z 4.4.",
"4.4.V + + # & 4 w P 2.3.3.2.) 4 6 ) 2.3.3.2.n # o o o + + V 4.4.",
"4.4.P # + # & 4 6 P 2.3.3.3.) * * ) 3.3.3.2.x o + + o o # P 4.4.",
"4.4.) < + $ > 4 9 ^ 3.3.3.3.] $ $ ] 3.3.3.3.v + + o $ + < ) 4.4.",
"4.4.[ u + $ > 2 6 / 3.3.3.3.] + + ] 3.3.3.3.M + + $ l $ f [ 4.4.",
"4.4.4.K $ @ > 5 7 K <.<.<.1.` + + ( ,.,.,.,.v + > / v $ K 4.4.4.",
"4.4.4.{ e + ; 5 0 f v N G U K s > > 2 5 7 5 , s X. .; e { 4.4.4.",
"4.4.4.4.^ , @ > 0 e f h v G K U L v f e s v ` *.#.7 > ^ 4.4.4.4.",
"4.4.4.4.4.N ; @ , a g h v N K U ( ` | ..#.&.-...0 ; N 4.4.4.4.4.",
"4.4.4.4.4.o.c ; = , a j b G L U ( ` | X.#.#.L 2 ; c o.4.4.4.4.4.",
"4.4.4.4.4.4.o.G 1 = - 3 g b K U ( | | ` J p - , G o.4.4.4.4.4.4.",
"4.4.4.4.4.4.4.4.( a : - - 1 8 a d d p 1 = : a ( 4.4.4.4.4.4.4.4.",
"4.4.4.4.4.4.4.4.4.O.U g p : - - - - : 3 g L O.4.4.4.4.4.4.4.4.4.",
"4.4.4.4.4.4.4.4.4.4.4.4.| U J G G J ( | 4.4.4.4.4.4.4.4.4.4.4.4.",
"4.4.4.4.4.4.4.4.4.4.4.4.4.4.4.4.4.4.4.4.4.4.4.4.4.4.4.4.4.4.4.4.",
"4.4.4.4.4.4.4.4.4.4.4.4.4.4.4.4.4.4.4.4.4.4.4.4.4.4.4.4.4.4.4.4."
};
