/* XPM */
static char *xpm_play[] = {
/* columns rows colors chars-per-pixel */
"32 32 211 2",
"   c #171978",
".  c #191B7A",
"X  c #19217D",
"o  c #21237E",
"O  c #59595A",
"+  c #656568",
"@  c #162981",
"#  c #192B82",
"$  c #143286",
"%  c #1A3789",
"&  c #123C8B",
"*  c #1E3B8B",
"=  c #232580",
"-  c #262982",
";  c #2C2E85",
":  c #213387",
">  c #2C3387",
",  c #233588",
"<  c #2B3C8C",
"1  c #303287",
"2  c #333589",
"3  c #3D3E8E",
"4  c #0E438E",
"5  c #18408E",
"6  c #0D4E94",
"7  c #1D4590",
"8  c #1A4C95",
"9  c #0B5799",
"0  c #0E5A9A",
"q  c #115196",
"w  c #1E5096",
"e  c #165598",
"r  c #165F9E",
"t  c #26428F",
"y  c #294591",
"u  c #284E95",
"i  c #354592",
"p  c #344E96",
"a  c #26569A",
"s  c #2D5298",
"d  c #245E9E",
"f  c #32569A",
"g  c #3E579B",
"h  c #305E9F",
"j  c #0A629F",
"k  c #18619F",
"l  c #3C5FA0",
"z  c #0C6EA5",
"x  c #1D6EA6",
"c  c #0675A9",
"v  c #037DAD",
"b  c #0E79AC",
"n  c #1170A7",
"m  c #1A7DAE",
"M  c #2267A2",
"N  c #2F67A3",
"B  c #2C6EA7",
"V  c #3B66A4",
"C  c #396EA8",
"Z  c #2F7AAD",
"A  c #3876AC",
"S  c #357DB0",
"D  c #404190",
"F  c #424894",
"G  c #4A4C96",
"H  c #4A599D",
"J  c #54569B",
"K  c #5A5C9F",
"L  c #5A5CA0",
"P  c #4767A5",
"I  c #4D64A3",
"U  c #456FA8",
"Y  c #506FA9",
"T  c #4476AC",
"R  c #4F76AC",
"E  c #417CAF",
"W  c #427DB0",
"Q  c #5A7FB2",
"!  c #6264A4",
"~  c #6368A7",
"^  c #696AA6",
"/  c #616EAA",
"(  c #6B6DAA",
")  c #6F71A7",
"_  c #6F71AC",
"`  c #7274AB",
"'  c #797BAD",
"]  c #7B7CB2",
"[  c #0880AF",
"{  c #0187B2",
"}  c #0B81B0",
"|  c #0589B4",
" . c #0B8CB6",
".. c #1F83B1",
"X. c #1788B4",
"o. c #1988B4",
"O. c #0191B8",
"+. c #0A95BA",
"@. c #1691B8",
"#. c #1D9DBF",
"$. c #258FB8",
"%. c #3185B3",
"&. c #3C8BB7",
"*. c #2799BE",
"=. c #3A92BB",
"-. c #3498BE",
";. c #4383B3",
":. c #4880B2",
">. c #4989B7",
",. c #4B8BB8",
"<. c #5D80B3",
"1. c #4B93BC",
"2. c #6A8CBA",
"3. c #7983B3",
"4. c #6791BC",
"5. c #1E9DC0",
"6. c #2D9DC0",
"7. c #3CA3C4",
"8. c #549DC2",
"9. c #649AC1",
"0. c #6E9BC2",
"q. c #45A0C3",
"w. c #44ADCA",
"e. c #5FA5C6",
"r. c #60A0C4",
"t. c #6CA5C7",
"y. c #60A7C8",
"u. c #6AA6C8",
"i. c #60ADCC",
"p. c #6AACCB",
"a. c #76ABCB",
"s. c #7EACCC",
"d. c #6AB1CD",
"f. c #74B2CF",
"g. c #71B6D1",
"h. c #7BB7D2",
"j. c #7FBAD4",
"k. c #65C1D6",
"l. c #70C5D9",
"z. c #7DC5D9",
"x. c #8B8B94",
"c. c #8383AF",
"v. c #9596A5",
"b. c #9191AC",
"n. c #9A9BA8",
"m. c #8384B2",
"M. c #8A8BB4",
"N. c #8B8CBB",
"B. c #8A97BD",
"V. c #9C9DB0",
"C. c #9A9BB8",
"Z. c #9596C2",
"A. c #999AC4",
"S. c #81A1C4",
"D. c #81AFCE",
"F. c #8CAACC",
"G. c #9FA0C7",
"H. c #9FACC5",
"J. c #8CB2CD",
"K. c #80B3D0",
"L. c #8BBCD6",
"P. c #98B5D2",
"I. c #99BDD7",
"U. c #A5A6CB",
"Y. c #A8A9CD",
"T. c #AEB6C2",
"R. c #AFAFD0",
"E. c #A9B6D4",
"W. c #B6B7D5",
"Q. c #B9B9D7",
"!. c #B3BFD9",
"~. c #BCBDD9",
"^. c #8AC4D9",
"/. c #85CDDD",
"(. c #95C4DA",
"). c #98C1D9",
"_. c #95C8DD",
"`. c #9ACBDE",
"'. c #AFC0CF",
"]. c #BCC8CF",
"[. c #A3C4DB",
"{. c #A0CADE",
"}. c #BFC0DA",
"|. c #B3CADF",
" X c #BACFD9",
".X c #BCD3DD",
"XX c #AACDE0",
"oX c #ACD1E2",
"OX c #A5D8E4",
"+X c #B6D5E5",
"@X c #B8D2E4",
"#X c #B7DAE4",
"$X c #B8D8E6",
"%X c #C5C6DE",
"&X c #C7C8DF",
"*X c #C7D8DE",
"=X c #D9DDDE",
"-X c #CBCBE1",
";X c #C4DCE9",
":X c #D4D5E7",
">X c #D7D7E8",
",X c #DEDEEC",
"<X c #D0E2ED",
"1X c #E4E4EF",
"2X c #E5EAEB",
"3X c #E6E6F0",
"4X c #EEEEF5",
"5X c #F0F0F7",
"6X c #F3F3F8",
"7X c #FEFEFF",
"8X c None",
/* pixels */
"8X8X8X8X8X8X8X8X8X8X8X8X8X8X8X8X8X8X8X8X8X8X8X8X8X8X8X8X8X8X8X8X",
"8X8X8X8X8X8X8X8X8X8X8X8X8X8XO + + O 8X8X8X8X8X8X8X8X8X8X8X8X8X8X",
"8X8X8X8X8X8X8X8X8X8XO x.b.c.' ) ) ' c.b.x.O 8X8X8X8X8X8X8X8X8X8X",
"8X8X8X8X8X8X8X8XO b.c.J 2 o . . . . o 2 J c.v.O 8X8X8X8X8X8X8X8X",
"8X8X8X8X8X8X8Xx.M.G o   - D L ^ ^ K i o   o G M.x.8X8X8X8X8X8X8X",
"8X8X8X8X8X8Xv.` ; . - ] Q.,X4X5X4X4X,X~.] -   ; ` v.8X8X8X8X8X8X",
"8X8X8X8X8Xv.^ o . _ %X3X3X3X1X1X3X1X3X3X1X}._ . o ^ v.8X8X8X8X8X",
"8X8X8X8Xx.` o . ^ -X-X#X-X:X:X:X:X:X:X:X>X>X-X( . o ' x.8X8X8X8X",
"8X8X8X8XM.; . J ~.-X#Xb.C.Q.%X-X%X%X%X%X%X%X&X}.J . ; M.8X8X8X8X",
"8X8X8XV.G   - Z.Q.W.R.b.V.b.H.Y.W.W.W.W.W.W.W.Q.Z.- . G V.8X8X8X",
"8X8X8Xm.o . G U.Y.Z.A.b.*X*XV.b.U.U.Z.U.Y.Y.Y.Y.U.G . o m.8X8X8X",
"8X8Xn.K . . L A.A.A.Z.b.=X7X2X].V.M.B.A.A.A.A.A.A.L .   J n.8X8X",
"8X8XC.2 . . L N.N.N.0.b.=X7X7X7X2X].C.M.S.N.N.N.N.L . . 2 C.8X8X",
"8X8XM.- . . G ] ] ] ] c.=X7X7X7X7X6X2X].M.' ' ] ] G   . - M.8X8X",
"8X8X' . . . 3 L ` ( ^ ' 2X7X7X7X7X7X7X6X2XE.m.! ( 1 . . o ' 8X8X",
"8X8X` . . - 1 ! ` ! L ' 2X7X7X7X7X7X7X7X7X7X3XU.L o . . . ` 8X8X",
"8X8X' X X = > F ( ~ 3 ) 2X7X7X7X7X7X7X7X7X7X3XA.2 . X X X ` 8X8X",
"8X8X3.X # : < i H / 3 ^ 2X7X7X7X7X7X7X7X4XE.L , @ @ @ @ # 3.8X8X",
"8X8XB.5 $ * y p g I Y ) 4X7X7X7X7X7X6X%XQ t % $ $ $ $ $ * B.8X8X",
"8X8XU.s & 7 u f l P R c.6X7X7X7X7X&X2.t 4 4 & & & & 5 5 s H.8X8X",
"8X8XT.R 4 8 a h V U R M.6X7X7X3Xs.d 4 4 6 6 6 6 4 8 <.w R T.8X8X",
"8X8X8XS.e q d N C T R B.6X7X!.A 6 6 q 6 6 6 6 6 d F.4.e S.8X8X8X",
"8X8X8X'.W 9 r B A W >.s.<XP.0.:.M 0 9 9 9 9 r :.|.[.k E '.8X8X8X",
"8X8X8X8XJ.x j x S &.,.9.t.t.a.D.D.9.,.;.>.9.I.<X@XZ x J.8X8X8X8X",
"8X8X8X8X8Xt.n z m &.1.8.9.u.a.h.L.I.{.XX+X;X<XXX%.n t.8X8X8X8X8X",
"8X8X8X8X8X.Xe.b c ..=.8.e.p.g.h.L.(.{.oX+X#Xh...b e. X8X8X8X8X8X",
"8X8X8X8X8X8X.Xd.o.v } $.q.e.g.j.^._.`._.g.-.[ X.p..X8X8X8X8X8X8X",
"8X8X8X8X8X8X8X8X^.7. .{ | @.6.7.7.7.6.@.|  .7.^.8X8X8X8X8X8X8X8X",
"8X8X8X8X8X8X8X8X8X#Xz.w.5.+.O.O.O.O.+.5.w.z.#X8X8X8X8X8X8X8X8X8X",
"8X8X8X8X8X8X8X8X8X8X8X8XOX/.l.k.k.l./.OX8X8X8X8X8X8X8X8X8X8X8X8X",
"8X8X8X8X8X8X8X8X8X8X8X8X8X8X8X8X8X8X8X8X8X8X8X8X8X8X8X8X8X8X8X8X",
"8X8X8X8X8X8X8X8X8X8X8X8X8X8X8X8X8X8X8X8X8X8X8X8X8X8X8X8X8X8X8X8X"
};
