/* XPM */
static char *xpm_disabled_prev[] = {
/* columns rows colors chars-per-pixel */
"32 32 147 2",
"   c gray28",
".  c #484848",
"X  c #494949",
"o  c gray29",
"O  c #4B4B4B",
"+  c #4C4C4C",
"@  c gray30",
"#  c #4E4E4E",
"$  c gray31",
"%  c #505050",
"&  c #515151",
"*  c gray32",
"=  c #535353",
"-  c gray33",
";  c #555555",
":  c #565656",
">  c gray34",
",  c #585858",
"<  c gray35",
"1  c #5A5A5A",
"2  c #5B5B5B",
"3  c gray36",
"4  c #5D5D5D",
"5  c gray37",
"6  c #5F5F5F",
"7  c #606060",
"8  c gray38",
"9  c #626262",
"0  c gray39",
"q  c #656565",
"w  c gray40",
"e  c #676767",
"r  c #686868",
"t  c DimGray",
"y  c #6C6C6C",
"u  c gray43",
"i  c #6F6F6F",
"p  c gray44",
"a  c #727272",
"s  c #767676",
"d  c #777777",
"f  c gray47",
"g  c #797979",
"h  c gray48",
"j  c #7B7B7B",
"k  c #7C7C7C",
"l  c gray49",
"z  c #7E7E7E",
"x  c gray50",
"c  c #808080",
"v  c #818181",
"b  c gray51",
"n  c #838383",
"m  c #848484",
"M  c gray52",
"N  c #868686",
"B  c gray53",
"V  c #888888",
"C  c #898989",
"Z  c gray54",
"A  c #8B8B8B",
"S  c gray55",
"D  c #8D8D8D",
"F  c #8E8E8E",
"G  c gray56",
"H  c #909090",
"J  c gray57",
"K  c #929292",
"L  c #939393",
"P  c gray58",
"I  c #959595",
"U  c gray59",
"Y  c #979797",
"T  c #989898",
"R  c gray60",
"E  c #9A9A9A",
"W  c #9B9B9B",
"Q  c gray61",
"!  c #9D9D9D",
"~  c gray62",
"^  c #9F9F9F",
"/  c #A0A0A0",
"(  c gray63",
")  c #A2A2A2",
"_  c gray64",
"`  c #A4A4A4",
"'  c #A5A5A5",
"]  c gray65",
"[  c #A7A7A7",
"{  c gray66",
"}  c #A9A9A9",
"|  c #AAAAAA",
" . c gray67",
".. c #ACACAC",
"X. c gray68",
"o. c #AEAEAE",
"O. c #AFAFAF",
"+. c gray69",
"@. c #B1B1B1",
"#. c gray70",
"$. c #B6B6B6",
"%. c #B7B7B7",
"&. c gray72",
"*. c #B9B9B9",
"=. c gray73",
"-. c #BCBCBC",
";. c gray74",
":. c gray",
">. c gray75",
",. c #C0C0C0",
"<. c #C3C3C3",
"1. c gray77",
"2. c #C5C5C5",
"3. c #C6C6C6",
"4. c gray78",
"5. c #C8C8C8",
"6. c gray79",
"7. c #CBCBCB",
"8. c gray80",
"9. c #CDCDCD",
"0. c #CECECE",
"q. c gray81",
"w. c gray82",
"e. c #D2D2D2",
"r. c LightGray",
"t. c gray84",
"y. c #D7D7D7",
"u. c #DDDDDD",
"i. c gray87",
"p. c #DFDFDF",
"a. c gray88",
"s. c gray90",
"d. c #E6E6E6",
"f. c #E9E9E9",
"g. c #EAEAEA",
"h. c gray92",
"j. c #ECECEC",
"k. c #EEEEEE",
"l. c #F1F1F1",
"z. c #F3F3F3",
"x. c #F4F4F4",
"c. c #F9F9F9",
"v. c #FBFBFB",
"b. c #FDFDFD",
"n. c #FEFEFE",
"m. c gray100",
"M. c None",
/* pixels */
"M.M.M.M.M.M.M.M.M.M.M.M.M.M.M.M.M.M.M.M.M.M.M.M.M.M.M.M.M.M.M.M.",
"M.M.M.M.M.M.M.M.M.M.M.M.M.M., q r , M.M.M.M.M.M.M.M.M.M.M.M.M.M.",
"M.M.M.M.M.M.M.M.M.M., S Q E J C C J E Q J , M.M.M.M.M.M.M.M.M.M.",
"M.M.M.M.M.M.M.M., Q E s 7 % O   O O % 7 s E Q , M.M.M.M.M.M.M.M.",
"M.M.M.M.M.M.M.S Q p $ O % r l C C l q %   $ u Q S M.M.M.M.M.M.M.",
"M.M.M.M.M.M.Q S ,   5 P 7.d.l.l.l.l.d.7.P 5 O - S Q M.M.M.M.M.M.",
"M.M.M.M.M.Q N $ $ l q.g.g.g.g.g.g.g.g.g.g.q.l $ % C Q M.M.M.M.M.",
"M.M.M.M.P S $ O C t.u.u.u.u.u.u.u.u.u.u.u.a.t.C O % S J M.M.M.M.",
"M.M.M.M./ ,   s 7.e.e.e.e.e.e.e.e.e.e.e.e.e.e.7.s O , Q M.M.M.M.",
"M.M.M.] u   - ..7.<.3.3.3.3.3.3.3.3.3.7.3.3.3.7...%   p ] M.M.M.",
"M.M.M.E $   u &.&.&.&.&.&.;.&.3.u.7.&.&.&.&.;.&.&.u   $ E M.M.M.",
"M.M./ f   O l @.@.@...@...@.q.l.n.3...@...@.....@.l O   f / M.M.",
"M.M.} 5 O   f ] / ] / ] ;.d.n.n.n.<.Q / / / / ] ] f O   5 } M.M.",
"M.M.Q % O   u E P P } y.c.n.n.n.n.a.e.t.e.7.&...Q u     % Q M.M.",
"M.M.P $ O $ q S E <.l.n.n.n.n.n.n.n.n.n.n.k.e.&.E 5   O $ P M.M.",
"M.M.S O O $ 5 } g.n.n.n.n.n.n.n.n.n.n.n.n.g.q...l $ O   O J M.M.",
"M.M.S O $ % 5 P d.n.n.n.n.n.n.n.n.n.n.n.n.g.7./ r $ O O O S M.M.",
"M.M.P $ $ - 5 7 v ;.l.n.n.n.n.n.n.n.n.n.n.g.<.J 7 $ O O $ J M.M.",
"M.M.] - O - 5 q u s E 3.x.n.n.n.n.q.&.&.&.] S p , $ O $ % ] M.M.",
"M.M.@.7 $ - 7 q u s l f C q.n.n.n.S % - % $ $ % $ $ % - 7 @.M.M.",
"M.M.%.l % - 7 r u s l N f 7 P a.c.C $ % % % % % % , C , l %.M.M.",
"M.M.M./ , - 7 r p f v N S N 7 r } f % - - % % % 7 ..J - ] M.M.M.",
"M.M.M.;.f % , r p f v C J E P l 7 - % % % % , l 7.<.5 s ;.M.M.M.",
"M.M.M.M...q - 7 s f v C J E / } ] P N f v P &.a.q.u 7 ..M.M.M.M.",
"M.M.M.M.M.E 5 - q f N C P E / } @.&.;.<.q.t.u.3.p , E M.M.M.M.M.",
"M.M.M.M.M.7.J 5 , q f C P E / } @.&.;.7.q.q.] q 5 J 7.M.M.M.M.M.",
"M.M.M.M.M.M.q.E q , 5 u N P / } @.&.;.&./ f 5 q E q.M.M.M.M.M.M.",
"M.M.M.M.M.M.M.M.@.l 7 , 5 q p v v v s q 5 5 l @.M.M.M.M.M.M.M.M.",
"M.M.M.M.M.M.M.M.M.q.} N u q 5 5 5 5 7 p N } q.M.M.M.M.M.M.M.M.M.",
"M.M.M.M.M.M.M.M.M.M.M.M.3...] Q Q / ..3.M.M.M.M.M.M.M.M.M.M.M.M.",
"M.M.M.M.M.M.M.M.M.M.M.M.M.M.M.M.M.M.M.M.M.M.M.M.M.M.M.M.M.M.M.M.",
"M.M.M.M.M.M.M.M.M.M.M.M.M.M.M.M.M.M.M.M.M.M.M.M.M.M.M.M.M.M.M.M."
};
