/* XPM */
static char *xpm_disabled_delete[] = {
/* columns rows colors chars-per-pixel */
"32 32 113 2",
"   c #585858",
".  c gray35",
"X  c #656565",
"o  c #818181",
"O  c gray51",
"+  c #838383",
"@  c #848484",
"#  c gray52",
"$  c #868686",
"%  c gray53",
"&  c #888888",
"*  c #898989",
"=  c gray54",
"-  c #8B8B8B",
";  c gray55",
":  c #8D8D8D",
">  c #8E8E8E",
",  c #909090",
"<  c gray57",
"1  c #929292",
"2  c #939393",
"3  c gray58",
"4  c #959595",
"5  c gray59",
"6  c #979797",
"7  c #989898",
"8  c gray60",
"9  c #9A9A9A",
"0  c #9B9B9B",
"q  c gray61",
"w  c #9D9D9D",
"e  c gray62",
"r  c #9F9F9F",
"t  c #A0A0A0",
"y  c gray63",
"u  c #A2A2A2",
"i  c #A4A4A4",
"p  c #A5A5A5",
"a  c gray65",
"s  c #A7A7A7",
"d  c gray66",
"f  c #A9A9A9",
"g  c #AAAAAA",
"h  c gray67",
"j  c #ACACAC",
"k  c gray68",
"l  c #AEAEAE",
"z  c #AFAFAF",
"x  c gray69",
"c  c #B1B1B1",
"v  c #B2B2B2",
"b  c gray70",
"n  c #B4B4B4",
"m  c gray71",
"M  c #B6B6B6",
"N  c #B7B7B7",
"B  c gray72",
"V  c #B9B9B9",
"C  c gray73",
"Z  c #BCBCBC",
"A  c gray74",
"S  c gray",
"D  c gray75",
"F  c #C0C0C0",
"G  c gray76",
"H  c #C3C3C3",
"J  c gray77",
"K  c #C6C6C6",
"L  c gray78",
"P  c #C8C8C8",
"I  c gray79",
"U  c #CACACA",
"Y  c gray80",
"T  c #CECECE",
"R  c gray81",
"E  c #D0D0D0",
"W  c gray82",
"Q  c #D2D2D2",
"!  c LightGray",
"~  c #D5D5D5",
"^  c gray84",
"/  c #D7D7D7",
"(  c #D8D8D8",
")  c gray85",
"_  c #DADADA",
"`  c gainsboro",
"'  c #DDDDDD",
"]  c gray87",
"[  c #DFDFDF",
"{  c gray88",
"}  c #E1E1E1",
"|  c #E2E2E2",
" . c gray90",
".. c #E6E6E6",
"X. c #E7E7E7",
"o. c gray91",
"O. c #ECECEC",
"+. c gray93",
"@. c #EEEEEE",
"#. c #EFEFEF",
"$. c gray94",
"%. c #F1F1F1",
"&. c #F4F4F4",
"*. c gray96",
"=. c #F6F6F6",
"-. c gray97",
";. c #F8F8F8",
":. c #F9F9F9",
">. c gray98",
",. c #FBFBFB",
"<. c gray99",
"1. c #FEFEFE",
"2. c None",
/* pixels */
"2.2.2.2.2.2.2.2.2.2.2.2.2.2.2.2.2.2.2.2.2.2.2.2.2.2.2.2.2.2.2.2.",
"2.2.2.2.2.2.2.2.2.2.2.2.2.2.  X X   2.2.2.2.2.2.2.2.2.2.2.2.2.2.",
"2.2.2.2.2.2.2.2.2.2.  4 j c d d d j c j <   2.2.2.2.2.2.2.2.2.2.",
"2.2.2.2.2.2.2.2.  p c w > @ O O O O @ > u c p   2.2.2.2.2.2.2.2.",
"2.2.2.2.2.2.2.> m 8 @ O * 4 p j j p 4 * O @ 8 c > 2.2.2.2.2.2.2.",
"2.2.2.2.2.2.u j * O 4 B [ O.*.;.*.*.O.[ B < O > j u 2.2.2.2.2.2.",
"2.2.2.2.2.p d @ @ c { $.O.$.$.O.O.$.$.$.$.{ c @ @ d p 2.2.2.2.2.",
"2.2.2.2.4 j @ @ B  .o.o. . . . . .o. . .o.o. .B @ @ j 4 2.2.2.2.",
"2.2.2.2.m * O j { [ [ [ [ [ [ [ [ [ [ [ [ [ [ [ c O * m 2.2.2.2.",
"2.2.2.j 8 O < E ( ^ ( [ [ ( ^ ^ ^ ^ ^ [ { ( ^ ^ E < O 8 c 2.2.2.",
"2.2.2.m @ O d R E E O.<.;.{ R R R R  .;.<.O.E E R d O @ m 2.2.2.",
"2.2.p u O O m P L E <.<.<.;.[ P P ( <.<.<.;.E L P c @ O w p 2.2.",
"2.2.B > O O c F D L *.<.<.<.<.( ( ;.<.<.<.*.P D F c * @ > B 2.2.",
"2.2.m @ O O p m m m E ;.<.<.<.<.<.<.<.<.;.E B m m p @ > @ m 2.2.",
"2.2.c O O O w m c j j R ;.<.<.<.<.<.<.;.R j j c j 8 O X @ c 2.2.",
"2.2.j O O O < j c d d p P <.<.<.<.<.<.P p d p p u @ O O O j 2.2.",
"2.2.j O O * > 8 j d w w L <.<.<.<.<.<.L w w w w > O O X > j 2.2.",
"2.2.c O O @ * < u d u F *.<.<.<.<.<.<.*.F 4 4 * O O O O * m 2.2.",
"2.2.B @ O @ > < 4 u P ;.<.<.<.;.;.<.<.<.;.B @ O O @ @ O @ B 2.2.",
"2.2.F > O @ > < 4 d $.<.<.<.*.m m ;.<.<.<.O.< O X > * @ < F 2.2.",
"2.2.F u O @ > < 4 c *.<.<.*.c O @ c *.<.<.;.w O O @ d * u D 2.2.",
"2.2.2.B @ O * < 8 u ( ;.*.P > O O O c O.*.R @ O > L j @ B 2.2.2.",
"2.2.2.L 8 O @ < 4 w d B B m c w > O O > 8 @ @ w ^ R @ w L 2.2.2.",
"2.2.2.2.D * O * 8 w u d j c B D B c u w w c R  .( < * D 2.2.2.2.",
"2.2.2.2.2.c @ O * 8 u d j c B D L P R E ( {  .^ 8 @ c 2.2.2.2.2.",
"2.2.2.2.2.R d @ O * 8 d c c m D F P R ^ [ ( B > @ j E 2.2.2.2.2.",
"2.2.2.2.2.2.^ c > O O > u j B D L L R P m 8 O * c E 2.2.2.2.2.2.",
"2.2.2.2.2.2.2.2.F 8 @ O O * < w w w 4 * O @ w F 2.2.2.2.2.2.2.2.",
"2.2.2.2.2.2.2.2.2.^ D u > @ O O O O O > u B ( 2.2.2.2.2.2.2.2.2.",
"2.2.2.2.2.2.2.2.2.2.2.2.R F c c c m D R 2.2.2.2.2.2.2.2.2.2.2.2.",
"2.2.2.2.2.2.2.2.2.2.2.2.2.2.2.2.2.2.2.2.2.2.2.2.2.2.2.2.2.2.2.2.",
"2.2.2.2.2.2.2.2.2.2.2.2.2.2.2.2.2.2.2.2.2.2.2.2.2.2.2.2.2.2.2.2."
};
