/* XPM */
static char *xpm_hover_delete[] = {
/* columns rows colors chars-per-pixel */
"32 32 118 2",
"   c #59BD5783569C",
".  c #6961639D6147",
"X  c #FFFF478D0000",
"o  c #FFFF4B760152",
"O  c #FFFF4F540855",
"+  c #FFFF535200B7",
"@  c #FFFF5A380133",
"#  c #FFFF535F0A9B",
"$  c #FFFF5CD90A74",
"%  c #FFFF578D1303",
"&  c #FFFF5B18153F",
"*  c #FFFF5DD41B78",
"=  c #FFFF64BF02E0",
"-  c #FFFF69F702C0",
";  c #FFFF62B70A17",
":  c #FFFF6D3508AE",
">  c #FFFF6516156F",
",  c #FFFF6AB913F5",
"<  c #FFFF655D1BC0",
"1  c #FFFF6A901CD9",
"2  c #FFFF717D12E4",
"3  c #FFFF70FF1920",
"4  c #FFFF791A1AFF",
"5  c #FFFF64B423CC",
"6  c #FFFF6CF8221B",
"7  c #FFFF6B1C2C36",
"8  c #FFFF764D234F",
"9  c #FFFF7C6E23D5",
"0  c #FFFF74742C55",
"q  c #FFFF79522B7E",
"w  c #FEA96FC13567",
"e  c #FFFF7153367F",
"r  c #FFD77C70353A",
"t  c #FFFF74D23AF5",
"y  c #FFFF79C13DFD",
"u  c #FD6F76EF4029",
"i  c #FF347D154087",
"p  c #FFFF7F3C4A9D",
"a  c #FFFF80A62ABA",
"s  c #FFEA843D346B",
"d  c #FFFF829B3D9A",
"f  c #FFFF8B153C1D",
"g  c #FFFF85F242CF",
"h  c #FFD98D0541A9",
"j  c #FFFF80D74CED",
"k  c #FFFF8C704C7C",
"l  c #FFFF91994EAD",
"z  c #FDFE85E05437",
"x  c #FFFF8B05522B",
"c  c #F49F89095D1A",
"v  c #FEAF8C2F5D42",
"b  c #FE8196C856E6",
"n  c #FFFF96A85C53",
"m  c #FFFF9A765CB4",
"M  c #F5378CE4624B",
"N  c #FFFF8ED760AC",
"B  c #FFFF943863FB",
"V  c #FF279D56649E",
"C  c #F71A91FF68D7",
"Z  c #FD8A967D6B93",
"A  c #FFFF99D16C4A",
"S  c #E7309673757E",
"D  c #EDA094CD7089",
"F  c #ECBE9BDE7AD3",
"G  c #F1F697AA72C1",
"H  c #FFFF9D4574D5",
"J  c #FF60A29362A2",
"K  c #FFFFA7C26E95",
"L  c #FEDCA9A86C18",
"P  c #FE73A4B672BA",
"I  c #FFFFAC087790",
"U  c #F414A19F7C30",
"Y  c #FFFFA41B7E0F",
"T  c #FF67AD777A61",
"R  c #9A018886815F",
"E  c #A2FA8DA38501",
"W  c #B68C99198D21",
"Q  c #BBC99A428CA5",
"!  c #B9189DD392AC",
"~  c #D13D9B33853F",
"^  c #DF49A5A68E3D",
"/  c #C9D8A278926F",
"(  c #FB32ADB08342",
")  c #FFFFAE538CE0",
"_  c #FE61B52084CE",
"`  c #FFFFB0668C7F",
"'  c #E9EBB0509503",
"]  c #FFFFB25C90E8",
"[  c #FFFFBCB09363",
"{  c #FFFFB79499F1",
"}  c #FFFFBB5C9E63",
"|  c #D2F9B5BFA738",
" . c #E665BD79A722",
".. c #FFFFBE15A312",
"X. c #FFFFC23A9BF5",
"o. c #FDF3C603A23C",
"O. c #FFFFC87CA736",
"+. c #FFFFC65EAEE8",
"@. c #FFFFCB18AD2F",
"#. c #EB2FCA4FB5D7",
"$. c #F687CE6DB2E5",
"%. c #FFFFCAF9B2D8",
"&. c #FFFFCEC6BAA4",
"*. c #FFFFD185B55F",
"=. c #FFFFD1FDBF27",
"-. c #FFFFD436C24E",
";. c #FFFFD905C1D5",
":. c #FFFFDDD3CF52",
">. c #FFFFDF81D210",
",. c #FFFFE105CEB0",
"<. c #FFFFE6AADBA9",
"1. c #FFFFE86DDD5A",
"2. c #FFFFEAF1E246",
"3. c #FFFFF34FED83",
"4. c #FFFFF6F1F2F7",
"5. c #FFFFF9C7F71E",
"6. c #FFFFFF5CFF19",
"7. c None",
/* pixels */
"7.7.7.7.7.7.7.7.7.7.7.7.7.7.7.7.7.7.7.7.7.7.7.7.7.7.7.7.7.7.7.7.",
"7.7.7.7.7.7.7.7.7.7.7.7.7.7.  . .   7.7.7.7.7.7.7.7.7.7.7.7.7.7.",
"7.7.7.7.7.7.7.7.7.7.  E ~ S M c c M S ~ E   7.7.7.7.7.7.7.7.7.7.",
"7.7.7.7.7.7.7.7.  Q D u * O o o o o O * u D Q   7.7.7.7.7.7.7.7.",
"7.7.7.7.7.7.7.R F w O X % 7 p z v p 7 O X O w F R 7.7.7.7.7.7.7.",
"7.7.7.7.7.7.W M % X 5 H &.<.3.3.3.3.<.&.H 5 X % M W 7.7.7.7.7.7.",
"7.7.7.7.7.W z O O v -.2.2.2.2.1.1.2.2.2.2.-.N O # z W 7.7.7.7.7.",
"7.7.7.7.E M O # H :.>.:.:.>.>.>.:.:.:.:.>.>.:.H O O M E 7.7.7.7.",
"7.7.7.7.F % X N -.-.&.-.&.-.-.&.-.&.-.-.&.-.-.-.v o % F 7.7.7.7.",
"7.7.7./ w X 5 ..+.+.+.-.&.%.+.+.+.+.+.&.-.&...+...5 X w / 7.7.7.",
"7.7.7.G O X p ......<.5.4.-...} { ..-.5.5.<.......z X O G 7.7.7.",
"7.7.! u X O Z ) ) ..5.6.6.5.&.) ) &.5.6.6.5...] ) B O X u ! 7.7.",
"7.7.^ * o O N ( H ] 3.6.6.6.5.%.%.5.6.6.6.3.) H Y N O X * ^ 7.7.",
"7.7.F # X o p A A A ..5.6.6.6.5.5.6.6.6.5...A A A p o o # F 7.7.",
"7.7.C o o O w B N N N { 4.6.6.6.6.6.6.5.{ v v N v 7 X o o C 7.7.",
"7.7.M o o # 5 z N p p p ] 5.6.6.6.6.5.) p p p p u O o o o M 7.7.",
"7.7.M o o # & e v z t t ) 5.6.6.6.6.5.) t t t t & o o o o v 7.7.",
"7.7.C + + # & 5 y z y Y 4.6.6.6.6.6.6.4.Y 7 5 & + o + o o C 7.7.",
"7.7.U # + # & 6 7 y ` 4.6.6.6.4.5.6.6.6.3.H # + o + o o $ U 7.7.",
"7.7.' < + $ & 6 0 x 2.6.6.6.3.A A 3.6.6.6.1.6 o + + $ + < ' 7.7.",
"7.7.| g + $ > 6 0 B 4.6.6.3.n + + B 3.6.6.3.r + + $ x $ i | 7.7.",
"7.7.7.H $ @ > 6 0 d %.4.3.] 1 @ + @ n 1.4.} ; + > _ B $ P 7.7.7.",
"7.7.7. .r @ ; 6 q r k P P A V g , @ @ 1 r ; $ d @.o.; r  .7.7.7.",
"7.7.7.7.( , @ , q d g l b V P T I n g d d m [ ,.%.0 > ( 7.7.7.7.",
"7.7.7.7.7.B ; = , r g l b V P T _ [ X.O.*.=.,.O.q = V 7.7.7.7.7.",
"7.7.7.7.7.#.b - = : s b n J I T _ X.X.O.*.*.T 3 ; b #.7.7.7.7.7.",
"7.7.7.7.7.7.#.J 2 = - 4 h m K T _ [ X.[ L s - , J #.7.7.7.7.7.7.",
"7.7.7.7.7.7.7.7._ f : - - 2 9 s f f a 2 - - s _ 7.7.7.7.7.7.7.7.",
"7.7.7.7.7.7.7.7.7.$.T h a 2 - - - - - 4 h T $.7.7.7.7.7.7.7.7.7.",
"7.7.7.7.7.7.7.7.7.7.7.7.X.T L J J L _ X.7.7.7.7.7.7.7.7.7.7.7.7.",
"7.7.7.7.7.7.7.7.7.7.7.7.7.7.7.7.7.7.7.7.7.7.7.7.7.7.7.7.7.7.7.7.",
"7.7.7.7.7.7.7.7.7.7.7.7.7.7.7.7.7.7.7.7.7.7.7.7.7.7.7.7.7.7.7.7."
};
