/* XPM */
static char *xpm_pause[] = {
/* columns rows colors chars-per-pixel */
"32 32 224 2",
"   c #1709191278C7",
".  c #19FA1C047A75",
"X  c #1A6E20D27CE7",
"o  c #214523387EF1",
"O  c #59EC59F45AEA",
"+  c #658365A2684D",
"@  c #15802AB981CE",
"#  c #18E32BAC82C8",
"$  c #0F4F39898953",
"%  c #150633308687",
"&  c #1F5E3158842D",
"*  c #129B3C638B58",
"=  c #1ED13BB98BB7",
"-  c #23B025A88023",
";  c #242F2BC2834B",
":  c #2AAC2C868443",
">  c #2106331E8717",
",  c #2C8333C087EA",
"<  c #2B503C918CB9",
"1  c #30CF328687A1",
"2  c #3373353E8959",
"3  c #3D433ED08EDA",
"4  c #0E97443B8F39",
"5  c #1A8D42BA8EED",
"6  c #0B3C4D0993B3",
"7  c #1195468490A4",
"8  c #1D59453B9095",
"9  c #1A574D3994A5",
"0  c #0B6A57D2998B",
"q  c #10B050EA9616",
"w  c #1E195069968A",
"e  c #16F0557598F0",
"r  c #16FC5FCC9E6B",
"t  c #2C0546A98F94",
"y  c #29EC454E9146",
"u  c #281F4E0795CC",
"i  c #357D46049257",
"p  c #342E4E6096A9",
"a  c #3B244A959151",
"s  c #265656A39A4C",
"d  c #2DB252A398B4",
"f  c #23665E589E3B",
"g  c #3280569D9AFC",
"h  c #3ADA53D798AE",
"j  c #30BB5EB59F2B",
"k  c #39ED5CA09E2E",
"l  c #0A9062029F00",
"z  c #18E461539F4C",
"x  c #0C496DE2A571",
"c  c #1D696E06A66E",
"v  c #0698751EA919",
"b  c #03507DCEAD9F",
"n  c #0E90796CABE0",
"m  c #115270E5A756",
"M  c #1B7B7C20ADE8",
"N  c #210A66A1A284",
"B  c #2F2A672DA386",
"V  c #26D86B79A56E",
"C  c #2C7A6E9EA75F",
"Z  c #385F64B3A2B9",
"A  c #36FF6CF0A703",
"S  c #2F397A24ADD7",
"D  c #382A7688AC3A",
"F  c #35BE7DC2B00F",
"G  c #400D41AD907F",
"H  c #42DB495B938E",
"J  c #4A774CD29605",
"K  c #45C454B5991A",
"L  c #54E356609BFF",
"P  c #56AE584A98E2",
"I  c #5A685BD69F50",
"U  c #621E63D39F3F",
"Y  c #5CF75E69A13C",
"T  c #4F3075CDAC96",
"R  c #42007CBDAFF0",
"E  c #645A65EFA476",
"W  c #62D2682AA44F",
"Q  c #6AFD6C78A62C",
"!  c #6AFE6C4DA98A",
"~  c #6F1E7188A7AC",
"^  c #6A6E7BE2AC7F",
"/  c #758C78A3A7E4",
"(  c #7AC57CB5A6DD",
")  c #72BB74DFAB5D",
"_  c #76F67B32AC21",
"`  c #797F7AA3AD2A",
"'  c #7A907D2BB201",
"]  c #08A780A6AF68",
"[  c #0100875FB29B",
"{  c #0B3281E9B03A",
"}  c #05428975B3F0",
"|  c #0B988C2DB5B1",
" . c #1B748595B2FC",
".. c #198C88F0B4B7",
"X. c #00D59191B82B",
"o. c #02299221B88A",
"O. c #0A8E959CBAD0",
"+. c #164491D6B94C",
"@. c #1D8A9D77BFF3",
"#. c #25028F80B8D0",
"$. c #31BF8506B3B5",
"%. c #3CE78B0CB78C",
"&. c #273399E6BE7B",
"*. c #3A5F9214BB51",
"=. c #34CA9818BE2B",
"-. c #40D98452B41F",
";. c #49BC8223B341",
":. c #479C881CB683",
">. c #4AA78A1CB7AF",
",. c #4AD28B38B84C",
"<. c #5D9680F7B3C3",
"1. c #4B7E93C2BCED",
"2. c #55B0922EBC8B",
"3. c #7E2780B4A995",
"4. c #6CF78645B606",
"5. c #60038B41B953",
"6. c #6D8F8E1EBB96",
"7. c #7CEC81C8B38E",
"8. c #64CC9269BD6F",
"9. c #1E979DFDC049",
"0. c #2DE49D57C09C",
"q. c #3C2DA36FC486",
"w. c #549C9CE7C24B",
"e. c #62FA9A16C17E",
"r. c #6B3B9D0FC38D",
"t. c #45A2A03DC37C",
"y. c #44B9ADC0CA91",
"u. c #5F5CA51EC6A4",
"i. c #6051A04BC4A3",
"p. c #6C64A5CAC748",
"a. c #6059A701C84C",
"s. c #6AFBA69EC89B",
"d. c #6095ADECCC21",
"f. c #6A4FAC99CBD0",
"g. c #74ECA0CFC5DB",
"h. c #7973A38AC7A4",
"j. c #76D9A7C1C9DB",
"k. c #7ED3A7A0CA0B",
"l. c #75C8AD30CC9A",
"z. c #7E69AC2BCC8E",
"x. c #6AAAB110CD86",
"c. c #74E0B27DCF7C",
"v. c #71DEB73FD1EB",
"b. c #7B9CB73AD256",
"n. c #7FA9BB18D4A2",
"m. c #6518C146D665",
"M. c #704CC580D916",
"N. c #7DBAC533D921",
"B. c #880188329099",
"V. c #8C1F8C6496AB",
"C. c #83288412AED1",
"Z. c #95CC961DA5DE",
"A. c #915291E0ACB8",
"S. c #9AF49B45A877",
"D. c #834B853EB210",
"F. c #8ADA8C4AB368",
"G. c #8BFF8D60BB70",
"H. c #86C2949CBB05",
"J. c #8B22969BBBBF",
"K. c #933E94D8B46A",
"L. c #9BAD9C41B424",
"P. c #94C19829BEA7",
"I. c #9A559B87B8A8",
"U. c #9DC2A046BCB0",
"Y. c #8B309F29C4BA",
"T. c #97859887C384",
"R. c #9AE89CB4C400",
"E. c #81C7A155C437",
"W. c #8293A460C88F",
"Q. c #8C74A61CCA02",
"!. c #821FAF03CE3E",
"~. c #8D21AB91CCF1",
"^. c #9F58A113C7BE",
"/. c #9FB4ACB1C5BD",
"(. c #8C3EB23DCDB6",
"). c #80B2B3ADD0AA",
"_. c #8B72BCA0D603",
"`. c #997CB51ED2AE",
"'. c #990DBCC0D6C9",
"]. c #A1AEA5B3C5AB",
"[. c #A6C1A765CC0B",
"{. c #A24CAC7EC917",
"}. c #AC80ADC7CF88",
"|. c #AE8EB69FC28C",
" X c #AF07C022CF9B",
".X c #A201B46ED21F",
"XX c #BBCEBC47D849",
"oX c #BE6CBF04DA02",
"OX c #8AAEC4CFD96A",
"+X c #85BDCD64DDF9",
"@X c #9577C4A7DADD",
"#X c #9853C1FED984",
"$X c #953EC930DD52",
"%X c #9A79CBC0DEE6",
"&X c #A3DAC533DBCF",
"*X c #A0C9CAD6DEB7",
"=X c #AA1FCC7BE010",
"-X c #B303CA19DF26",
";X c #BA6FCF13D95A",
":X c #BCD6D3C9DD50",
">X c #AA81CD78E097",
",X c #ACBDD17FE2F1",
"<X c #A505D891E4B6",
"1X c #B601D54BE556",
"2X c #B88FD574E5A1",
"3X c #B7DFDAC4E49E",
"4X c #C48BC4FDDD99",
"5X c #CBA6CBF1E19D",
"6X c #C410DC31E9C8",
"7X c #D4D2D539E666",
"8X c #DCC5DD98E6B0",
"9X c #D777D7AAE883",
"0X c #DE74DE9DEC66",
"qX c #D0A1E267EDB8",
"wX c #E45CE4AFEEA0",
"eX c #E995E9EAEDA1",
"rX c #E62FE67AF11A",
"tX c #E30DEB8CF397",
"yX c #EC77ED86F307",
"uX c #EC3EF20BF784",
"iX c #F341F366F629",
"pX c #F198F5E5F9D0",
"aX c #FF43FF43FF41",
"sX c None",
/* pixels */
"sXsXsXsXsXsXsXsXsXsXsXsXsXsXsXsXsXsXsXsXsXsXsXsXsXsXsXsXsXsXsXsX",
"sXsXsXsXsXsXsXsXsXsXsXsXsXsXO + + O sXsXsXsXsXsXsXsXsXsXsXsXsXsX",
"sXsXsXsXsXsXsXsXsXsXO V.A.C.` ~ ~ ` C.A.V.O sXsXsXsXsXsXsXsXsXsX",
"sXsXsXsXsXsXsXsXO Z.' L 2 - .     . o 2 L D.Z.O sXsXsXsXsXsXsXsX",
"sXsXsXsXsXsXsXB.F.J -   - a Y ! ! I G -   o J D.B.sXsXsXsXsXsXsX",
"sXsXsXsXsXsXZ.) : . 2 ' XX0XyXuXiXyX0XXX` 2   : ) Z.sXsXsXsXsXsX",
"sXsXsXsXsXZ.Q o . Y oXwXrXwXrXwXrXrXrXrXwXoXY - o Q S.sXsXsXsXsX",
"sXsXsXsXV.) o . ! 5X9X7X7X7X7X7X7X7X7X7X7X9X5X! . o ) V.sXsXsXsX",
"sXsXsXsXG.:   L XX5X4X4X4X4X4X4X4X4X4X4X4X4X4XoXL   : F.sXsXsXsX",
"sXsXsXL.J   : T.}.' ' ` ' ` ' ^.^.' ' ' ` ' 7.}.T.;   J L.sXsXsX",
"sXsXsXD.-   J [.T.Q T.].].^.) G.G./ R.].].T.~ T.[.J   - D.sXsXsX",
"sXsXS.P     Y R.G.) 7XaXaXeXD.D.D.D.eXaXaX7X/ G.R.Y     I S.sXsX",
"sXsXI.2 . . Y G.C.( 8XaXaXeXF./ _ F.yXaXaX8X( ' G.Y .   2 I.sXsX",
"sXsXF.- . . J ' ) ( qXaXaXiXK.Q Q K.iXaXaX8X( ) ' J . . o F.sXsX",
"sXsX' . . o 3 ) E ( wXaXaXiXL.U U I.iXaXaXwX( E ! 1 . . o ` sXsX",
"sXsX) . . - 2 E Q C.eXaXaXiXI.P P I.iXaXaXeX( I J o   . . ) sXsX",
"sXsX) . X ; , H W F.eXaXaXiXU.J J U.aXaXaXeXC.a ; X . . X ^ sXsX",
"sXsX7.# # > < i K K.iXaXaXaX/.a a U.aXaXaXiX3.& @ @ @ @ # 7.sXsX",
"sXsXJ.= % > y p h H.aXaXaXaX{.t t {.aXaXaXpX^ @ % % % % = J.sXsX",
"sXsX/.g 4 8 u g k Q.aXaXaXaX.X8 5 .XaXaXaXaX4.* * * 5 5 d /.sXsX",
"sXsX|.T 7 9 s j Z Q.aXaXaXaX.X7 7 .XaXaXaXaX6.4 7 9 <.9 T |.sXsX",
"sXsXsXW.e q f B A E.uXuXuXpX`.q 6 ~.tXtXtXtX5.6 f ~.8.e E.sXsXsX",
"sXsXsX&XF 0 r C D ;.2.r.g.k.h.R N c V V V V N R -X&Xz R &XsXsXsX",
"sXsXsXsX(.V l c F :.>.2.e.r.k.!.!.8.,.-.:.e.'.qX1XD V (.sXsXsXsX",
"sXsXsXsXsXj.m x M %.1.2.u.s.l.b._.#X*X=X1X6XqX=X$.x p.sXsXsXsXsX",
"sXsXsXsXsX;Xu.n v  .*.w.u.f.v.b._.@X*X,X2X1Xb. .n i.:XsXsXsXsXsX",
"sXsXsXsXsXsX:Xf...] { #.t.u.v.N.OX@X%X$Xv.=.] ..x.:XsXsXsXsXsXsX",
"sXsXsXsXsXsXsXsXOXq.| [ } +.0.q.t.q.0.+.} | q.OXsXsXsXsXsXsXsXsX",
"sXsXsXsXsXsXsXsXsX3XN.y.9.O.o.o.o.o.O.@.y.N.3XsXsXsXsXsXsXsXsXsX",
"sXsXsXsXsXsXsXsXsXsXsXsX<X+XM.m.m.M.+X<XsXsXsXsXsXsXsXsXsXsXsXsX",
"sXsXsXsXsXsXsXsXsXsXsXsXsXsXsXsXsXsXsXsXsXsXsXsXsXsXsXsXsXsXsXsX",
"sXsXsXsXsXsXsXsXsXsXsXsXsXsXsXsXsXsXsXsXsXsXsXsXsXsXsXsXsXsXsXsX"
};
