/* XPM */
static char *xpm_help[] = {
/* columns rows colors chars-per-pixel */
"32 32 216 2",
"   c #171978",
".  c #191B7A",
"X  c #19217D",
"o  c #21237E",
"O  c #59595A",
"+  c #656568",
"@  c #162981",
"#  c #192B82",
"$  c #143286",
"%  c #1A3789",
"&  c #123C8B",
"*  c #1E3B8B",
"=  c #232580",
"-  c #262A82",
";  c #2C2E85",
":  c #213387",
">  c #2C3387",
",  c #233588",
"<  c #2B3C8C",
"1  c #303287",
"2  c #333589",
"3  c #3D3E8E",
"4  c #0E448F",
"5  c #17408D",
"6  c #19418E",
"7  c #0C4E94",
"8  c #1D4590",
"9  c #1A4D95",
"0  c #0B5799",
"q  c #115196",
"w  c #1E5096",
"e  c #165598",
"r  c #165F9E",
"t  c #294591",
"y  c #214892",
"u  c #284E95",
"i  c #364792",
"p  c #344E96",
"a  c #3E4E97",
"s  c #26569A",
"d  c #2D5298",
"f  c #235E9E",
"g  c #32569A",
"h  c #3E579B",
"j  c #305E9F",
"k  c #0A629F",
"l  c #18619F",
"z  c #3C5FA0",
"x  c #0C6DA5",
"c  c #1D6EA6",
"v  c #0675A9",
"b  c #037DAD",
"n  c #0E78AC",
"m  c #1170A7",
"M  c #1B7CAE",
"N  c #2F67A3",
"B  c #2C6EA7",
"V  c #3B66A4",
"C  c #396EA8",
"Z  c #2F7AAD",
"A  c #3876AC",
"S  c #357DB0",
"D  c #404190",
"F  c #424894",
"G  c #494C96",
"H  c #4E549B",
"J  c #4C5A9E",
"K  c #54569B",
"L  c #5A5C9F",
"P  c #5C5EA1",
"I  c #4767A5",
"U  c #4D64A3",
"Y  c #4969A6",
"T  c #456FA8",
"R  c #5967A5",
"E  c #4476AC",
"W  c #4D75AC",
"Q  c #417CAF",
"!  c #5174AC",
"~  c #427DB0",
"^  c #4E7EB1",
"/  c #5A7FB2",
"(  c #6264A4",
")  c #6368A7",
"_  c #696AA6",
"`  c #646DA9",
"'  c #6B6DAA",
"]  c #6F71A7",
"[  c #6F71AC",
"{  c #7274AB",
"}  c #797AAD",
"|  c #7A7CB2",
" . c #0880AF",
".. c #0187B2",
"X. c #0B81B0",
"o. c #0589B4",
"O. c #0B8CB6",
"+. c #1F83B1",
"@. c #1788B4",
"#. c #1988B4",
"$. c #0191B8",
"%. c #0A95BA",
"&. c #1691B8",
"*. c #1D9DBF",
"=. c #258FB8",
"-. c #3185B3",
";. c #3C8BB7",
":. c #2799BE",
">. c #3A92BB",
",. c #3498BE",
"<. c #4185B4",
"1. c #4C84B4",
"2. c #4989B7",
"3. c #4B8BB8",
"4. c #5482B3",
"5. c #5B82B4",
"6. c #588CB9",
"7. c #4B93BC",
"8. c #5693BD",
"9. c #648EBB",
"0. c #6D8FBC",
"q. c #7983B3",
"w. c #7A8ABA",
"e. c #6592BD",
"r. c #1E9DC0",
"t. c #2D9DC0",
"y. c #3CA3C4",
"u. c #549CC1",
"i. c #649AC1",
"p. c #45A0C3",
"a. c #44ADCA",
"s. c #5FA5C6",
"d. c #60A0C4",
"f. c #6CA5C7",
"g. c #60A7C8",
"h. c #6AA6C8",
"j. c #60ADCC",
"k. c #6AACCB",
"l. c #75ADCC",
"z. c #7EACCC",
"x. c #6AB1CD",
"c. c #74B2CF",
"v. c #71B6D1",
"b. c #7BB7D2",
"n. c #7FBAD4",
"m. c #65C1D6",
"M. c #70C5D9",
"N. c #7DC5D9",
"B. c #8B8B94",
"V. c #8383AF",
"C. c #9596A5",
"Z. c #9191AC",
"A. c #9A9BA8",
"S. c #8384B2",
"D. c #8A8BB4",
"F. c #8586B8",
"G. c #8A8BBB",
"H. c #8A97BD",
"J. c #9C9DB0",
"K. c #9A9BB8",
"L. c #9596C2",
"P. c #9A9BC4",
"I. c #81A1C4",
"U. c #85A7CA",
"Y. c #86A8CB",
"T. c #8CAACC",
"R. c #9FACC5",
"E. c #8CB2CD",
"W. c #80B3D0",
"Q. c #8BBCD6",
"!. c #98B5D2",
"~. c #99BDD7",
"^. c #A5A6CB",
"/. c #A8A9CD",
"(. c #AEB6C2",
"). c #AFAFD0",
"_. c #B6B6D5",
"`. c #B9BAD7",
"'. c #BCBDD8",
"]. c #8AC4D9",
"[. c #85CDDD",
"{. c #95C4DA",
"}. c #95C8DD",
"|. c #9ACBDE",
" X c #AFC0CF",
".X c #A4C4DB",
"XX c #A0CADE",
"oX c #BFC0DA",
"OX c #B3CADF",
"+X c #BACFD9",
"@X c #BCD3DD",
"#X c #AACCE0",
"$X c #B8CCE0",
"%X c #ACD1E2",
"&X c #A5D8E4",
"*X c #B6D5E5",
"=X c #B8D2E4",
"-X c #B7DAE4",
";X c #B8D8E6",
":X c #C5C5DE",
">X c #CBCBE1",
",X c #C4DCE9",
"<X c #D4D5E7",
"1X c #D7D7E8",
"2X c #D6DBEA",
"3X c #DDDEEB",
"4X c #D0E1ED",
"5X c #E4E4EF",
"6X c #E5E5F0",
"7X c #E7EAF3",
"8X c #EDEDF5",
"9X c #F0F0F7",
"0X c #F2F4F9",
"qX c #F6F9FB",
"wX c #FEFEFE",
"eX c None",
/* pixels */
"eXeXeXeXeXeXeXeXeXeXeXeXeXeXeXeXeXeXeXeXeXeXeXeXeXeXeXeXeXeXeXeX",
"eXeXeXeXeXeXeXeXeXeXeXeXeXeXO + + O eXeXeXeXeXeXeXeXeXeXeXeXeXeX",
"eXeXeXeXeXeXeXeXeXeXO B.Z.V.} ] ] } V.Z.B.O eXeXeXeXeXeXeXeXeXeX",
"eXeXeXeXeXeXeXeXO Z.V.K 2 o . . . . o 2 K V.C.O eXeXeXeXeXeXeXeX",
"eXeXeXeXeXeXeXB.D.G o   - 3 P ' _ P D -   X G D.B.eXeXeXeXeXeXeX",
"eXeXeXeXeXeXC.{ ;   - | `.3X8X9X8X8X3X'.| - . ; { C.eXeXeXeXeXeX",
"eXeXeXeXeXC._ o . { oX6X6X6X5X5X5X5X6X6X5XoX[ . o _ C.eXeXeXeXeX",
"eXeXeXeXB.{ o . ' >X1X<X<X<X<X<X<X<X<X<X<X1X>X' . o } B.eXeXeXeX",
"eXeXeXeXD.; . K '.>X:X:X>X>X3X6X5X3X>X:X:X:X>X'.K . ; D.eXeXeXeX",
"eXeXeXJ.G   - L.`._._._.1X0XwXwXwXwXwX4X`._._.`.L.-   G J.eXeXeX",
"eXeXeXS.o . G ^./././.>XwXwXwX6X5X0XwXwX1X^././.^.G . o S.eXeXeX",
"eXeXA.L .   P P.P.P.L.0XwX9X_.P.P.^.7XwXqX).L.P.P.L   . L A.eXeX",
"eXeXK.2 . . P G.G.G.).8X0X:XG.G.G.F.:XwXwX_.F.G.G.P . . 2 K.eXeX",
"eXeXD.- . . G | | | w.G.L.F.| | | | >XwXwX^.| | | G   . o D.eXeX",
"eXeX} . . . 3 P [ ' ' ' ( ' ' ( { `.wXwX3X| ' ' ' 1 . . o } eXeX",
"eXeX{ . . - 1 ( { ( G P P P G ( :XwXwX6X| G P ( G . . . . { eXeX",
"eXeX{ X X = > F ' ) H K H H G _.wXwX1X{ H H H G - . X X X { eXeX",
"eXeXq.X # : < i J ` J D a i ' 0XwX1XR i a h i : @ @ @ @ @ q.eXeX",
"eXeXH.* % & t p h U P g u t w.wXwX| < u u < % $ $ $ $ $ * H.eXeX",
"eXeX^.d & y u g z I ! Y y & / $X`.E 6 6 & 4 & & & & 6 6 d R.eXeX",
"eXeX(.^ 4 9 s j V T W 5.W 9 d 4./ N 4 7 7 7 7 7 5 9 / 9 W (.eXeX",
"eXeXeXI.e q f N C E ^ 4.9.4.z.wXwXU.7 q 7 7 7 7 f T.0.e I.eXeXeX",
"eXeXeX XE 0 r B A ~ 1.6.e.0.#XwXwXY.7 0 0 0 r ^ %X.Xc A  XeXeXeX",
"eXeXeXeXT.c x c S <.3.u.i.h.!.2X2X~.1.<.2.i.~.4X=XZ c E.eXeXeXeX",
"eXeXeXeXeXh.m x M ;.3.u.i.h.l.b.Q.~.XX#X=X,X4X.X-.m f.eXeXeXeXeX",
"eXeXeXeXeX@Xs.n v @.>.u.s.k.v.b.Q.{.|.%X;X;Xb.=.n d.+XeXeXeXeXeX",
"eXeXeXeXeXeX@Xx.#.b X.=.p.j.v.n.].{.|.}.v.,.b #.x.@XeXeXeXeXeXeX",
"eXeXeXeXeXeXeXeX].y.O.o.o.&.t.y.y.p.t.&.o.O.y.].eXeXeXeXeXeXeXeX",
"eXeXeXeXeXeXeXeXeX-XN.a.r.%.$.$.$.$.%.r.a.N.-XeXeXeXeXeXeXeXeXeX",
"eXeXeXeXeXeXeXeXeXeXeXeX&X[.M.m.m.M.[.&XeXeXeXeXeXeXeXeXeXeXeXeX",
"eXeXeXeXeXeXeXeXeXeXeXeXeXeXeXeXeXeXeXeXeXeXeXeXeXeXeXeXeXeXeXeX",
"eXeXeXeXeXeXeXeXeXeXeXeXeXeXeXeXeXeXeXeXeXeXeXeXeXeXeXeXeXeXeXeX"
};
