/* XPM */
static char *xpm_disabled_help[] = {
/* columns rows colors chars-per-pixel */
"32 32 147 2",
"   c gray28",
".  c #484848",
"X  c #494949",
"o  c gray29",
"O  c #4B4B4B",
"+  c #4C4C4C",
"@  c gray30",
"#  c #4E4E4E",
"$  c gray31",
"%  c #505050",
"&  c #515151",
"*  c gray32",
"=  c #535353",
"-  c gray33",
";  c #555555",
":  c #565656",
">  c gray34",
",  c #585858",
"<  c gray35",
"1  c #5A5A5A",
"2  c #5B5B5B",
"3  c gray36",
"4  c #5D5D5D",
"5  c gray37",
"6  c #5F5F5F",
"7  c #606060",
"8  c gray38",
"9  c #626262",
"0  c gray39",
"q  c #646464",
"w  c #656565",
"e  c gray40",
"r  c #676767",
"t  c #686868",
"y  c DimGray",
"u  c #6A6A6A",
"i  c gray42",
"p  c #6C6C6C",
"a  c gray43",
"s  c #6F6F6F",
"d  c gray44",
"f  c #727272",
"g  c gray45",
"h  c #747474",
"j  c #767676",
"k  c #777777",
"l  c gray47",
"z  c #797979",
"x  c gray48",
"c  c #7B7B7B",
"v  c #7C7C7C",
"b  c gray49",
"n  c #7E7E7E",
"m  c gray50",
"M  c #808080",
"N  c #818181",
"B  c gray51",
"V  c #838383",
"C  c #848484",
"Z  c gray52",
"A  c #868686",
"S  c gray53",
"D  c #888888",
"F  c #898989",
"G  c gray54",
"H  c #8B8B8B",
"J  c gray55",
"K  c #8D8D8D",
"L  c #8E8E8E",
"P  c gray56",
"I  c #909090",
"U  c gray57",
"Y  c #929292",
"T  c gray58",
"R  c #959595",
"E  c gray59",
"W  c #979797",
"Q  c #989898",
"!  c gray60",
"~  c #9A9A9A",
"^  c gray61",
"/  c #9D9D9D",
"(  c gray62",
")  c #9F9F9F",
"_  c #A0A0A0",
"`  c gray63",
"'  c #A2A2A2",
"]  c gray64",
"[  c #A4A4A4",
"{  c #A5A5A5",
"}  c gray65",
"|  c #A7A7A7",
" . c gray66",
".. c #A9A9A9",
"X. c #AAAAAA",
"o. c gray67",
"O. c #ACACAC",
"+. c gray68",
"@. c #AEAEAE",
"#. c gray69",
"$. c #B1B1B1",
"%. c #B2B2B2",
"&. c gray71",
"*. c #B7B7B7",
"=. c gray72",
"-. c #B9B9B9",
";. c gray73",
":. c #BCBCBC",
">. c gray",
",. c gray75",
"<. c #C0C0C0",
"1. c #C3C3C3",
"2. c gray77",
"3. c #C5C5C5",
"4. c gray78",
"5. c #C8C8C8",
"6. c gray79",
"7. c #CBCBCB",
"8. c gray80",
"9. c #CDCDCD",
"0. c #CECECE",
"q. c gray81",
"w. c gray82",
"e. c LightGray",
"r. c gray84",
"t. c #DDDDDD",
"y. c gray87",
"u. c #DFDFDF",
"i. c gray88",
"p. c gray90",
"a. c #E9E9E9",
"s. c #EAEAEA",
"d. c #ECECEC",
"f. c gray93",
"g. c #F1F1F1",
"h. c #F3F3F3",
"j. c gray96",
"k. c #F6F6F6",
"l. c #F8F8F8",
"z. c #F9F9F9",
"x. c gray98",
"c. c #FBFBFB",
"v. c gray99",
"b. c #FDFDFD",
"n. c #FEFEFE",
"m. c gray100",
"M. c None",
/* pixels */
"M.M.M.M.M.M.M.M.M.M.M.M.M.M.M.M.M.M.M.M.M.M.M.M.M.M.M.M.M.M.M.M.",
"M.M.M.M.M.M.M.M.M.M.M.M.M.M.2 e e 2 M.M.M.M.M.M.M.M.M.M.M.M.M.M.",
"M.M.M.M.M.M.M.M.M.M.2 J / ~ J D D J ~ / Y 2 M.M.M.M.M.M.M.M.M.M.",
"M.M.M.M.M.M.M.M.2 / ~ z 5 % O O O O $ 5 h ~ / 2 M.M.M.M.M.M.M.M.",
"M.M.M.M.M.M.M.J ~ d $   % y b D D b e %   $ a / J M.M.M.M.M.M.M.",
"M.M.M.M.M.M./ J 2   - T 7.p.g.g.j.g.p.7.T - O - J / M.M.M.M.M.M.",
"M.M.M.M.M./ D $ $ J q.s.d.s.s.s.s.s.s.s.s.q.J $ % D / M.M.M.M.M.",
"M.M.M.M.Y J $ O D r.t.t.t.t.t.t.t.t.t.t.t.i.r.D O % J Y M.M.M.M.",
"M.M.M.M./ 2 O h 7.e.e.q.e.r.p.s.s.p.r.e.e.q.e.7.h O 2 / M.M.M.M.",
"M.M.M.} a   % @.7.1.4.4.i.j.n.n.n.n.z.p.4.4.1.7.@.-   d } M.M.M.",
"M.M.M.~ $ O a -.-.-.-.r.n.n.z.d.s.j.n.n.t.-.-.-.*.a O % ~ M.M.M.",
"M.M._ z   O b @.#.@...j.n.j.4.#.#.-.d.n.z.,.@.@.#.b     z _ M.M.",
"M.M...5 O   b } _ _ -.g.z.q.} _ _ / q.n.n.4./ } _ b O   5 ..M.M.",
"M.M./ % O   d T T ~ / _ ../ T T T ~ r.n.n.-.T T ~ a     % / M.M.",
"M.M.T $ O O 0 b J D J D C J D C J 7.n.n.p.T J D D 5   O $ T M.M.",
"M.M.J O O % 2 V Y V d V V b d C q.n.n.s.T a V V a O O O O J M.M.",
"M.M.J $ $ % 2 y D C h h h d a 7.n.n.i.J h h h a - O O O O J M.M.",
"M.M.T $ $ % 2 0 h C h y y e C j.n.i.V e y y e - O O O O $ T M.M.",
"M.M._ - $ - 5 e a z b y 0 5 ~ n.n.T 2 5 5 2 $ $ $ $ O $ - } M.M.",
"M.M.#.0 $ - 5 e a h b h 2 % C q.7.z % % % $ $ $ $ O % - 0 #.M.M.",
"M.M.-.b $ - 0 e d h b D b 2 e C C y % $ $ $ % $ $ - D 2 z -.M.M.",
"M.M.M._ 2 - 0 e d z b D J V } z.n...% % % % % % 0 @.Y - _ M.M.M.",
"M.M.M.,.h % 2 y d z V D Y T 4.n.n...$ % % % 2 b 7.,.2 h ,.M.M.M.",
"M.M.M.M.@.0 - 0 d z V D J ~ *.t.i.-.V z V T -.t.q.a 0 @.M.M.M.M.",
"M.M.M.M.M.~ 2 - e z C D T ~ _ ..@.*.,.4.7.r.t.4.d 2 ~ M.M.M.M.M.",
"M.M.M.M.M.7.Y 5 - e z J T ~ _ ..#.*.,.4.q.q.} e 2 Y 7.M.M.M.M.M.",
"M.M.M.M.M.M.7.~ e - 5 a C T _ ..#.-.,.-._ z 5 e ~ 7.M.M.M.M.M.M.",
"M.M.M.M.M.M.M.M.#.b 0 2 5 e d V V V h e 5 5 b #.M.M.M.M.M.M.M.M.",
"M.M.M.M.M.M.M.M.M.q...C a e 5 2 2 5 5 a C @.q.M.M.M.M.M.M.M.M.M.",
"M.M.M.M.M.M.M.M.M.M.M.M.4.#._ / ~ } @.4.M.M.M.M.M.M.M.M.M.M.M.M.",
"M.M.M.M.M.M.M.M.M.M.M.M.M.M.M.M.M.M.M.M.M.M.M.M.M.M.M.M.M.M.M.M.",
"M.M.M.M.M.M.M.M.M.M.M.M.M.M.M.M.M.M.M.M.M.M.M.M.M.M.M.M.M.M.M.M."
};
