/* XPM */
static char *xpm_hover_next[] = {
/* columns rows colors chars-per-pixel */
"32 32 119 2",
"   c #59BD5783569C",
".  c #6961639D6147",
"X  c #FFFF478D0000",
"o  c #FFFF4B870155",
"O  c #FFFF4F540855",
"+  c #FFFF543C006C",
"@  c #FFFF5A130093",
"#  c #FFFF53AB0AB5",
"$  c #FFFF5C2B0AD9",
"%  c #FFFF578D1303",
"&  c #FFFF5BCD14D9",
"*  c #FFFF5DD41B78",
"=  c #FFFF64BF02E0",
"-  c #FFFF69F702C0",
";  c #FFFF62E8099E",
":  c #FFFF6D3508AE",
">  c #FFFF656B1532",
",  c #FFFF6BA61324",
"<  c #FFFF655D1BC0",
"1  c #FFFF6A841C98",
"2  c #FFFF717D12E4",
"3  c #FFFF70FF1920",
"4  c #FFFF791A1AFF",
"5  c #FFFF641F2497",
"6  c #FFFF6D5E217D",
"7  c #FFFF69812AFF",
"8  c #FFFF764D234F",
"9  c #FFFF7C6E23D5",
"0  c #FFFF75032D2D",
"q  c #FFFF79522B7E",
"w  c #FEA96FC13567",
"e  c #FFFF724F31E1",
"r  c #FF887C77356D",
"t  c #FFFF72263815",
"y  c #FFFF7BC73A73",
"u  c #FD6F76EF4029",
"i  c #FECE7F6A403F",
"p  c #FFFF7EA449BA",
"a  c #FFFF80A62ABA",
"s  c #FFEA843D346B",
"d  c #FFFF81653AC3",
"f  c #FFFF8B153C1D",
"g  c #FFFF84EC42FD",
"h  c #FFD98D0541A9",
"j  c #FFFF82614BD7",
"k  c #FFFF8B994E49",
"l  c #FFFF91994EAD",
"z  c #FCFE858854B2",
"x  c #FFFF8C4353EE",
"c  c #F49F89095D1A",
"v  c #FE148C1B5CF1",
"b  c #FE8196C856E6",
"n  c #FFFF95535AF8",
"m  c #FFFF9AA45CFB",
"M  c #F5378CE4624B",
"N  c #FFFF8ED760AB",
"B  c #FFFF94986560",
"V  c #FEF19D9F6449",
"C  c #F71A91FF68D7",
"Z  c #FD0C96036AE2",
"A  c #FFFF9BDA6C61",
"S  c #E7309673757E",
"D  c #EDA094CD7089",
"F  c #ECBE9BDE7AD3",
"G  c #F1F697AA72C1",
"H  c #FFFF9D4574D5",
"J  c #FFFFA01B78E7",
"K  c #FF60A29362A2",
"L  c #FFFFA7C26E95",
"P  c #FEDCA9A86C18",
"I  c #FD37A4C172D4",
"U  c #FFFFAC087790",
"Y  c #F41AA1947C24",
"T  c #FFFFA33B7D20",
"R  c #FF7AAD3E7AF9",
"E  c #9A018886815F",
"W  c #A2FA8DA38501",
"Q  c #B68C99198D21",
"!  c #BBC99A428CA5",
"~  c #B9189DD392AC",
"^  c #D13D9B33853F",
"/  c #DF49A5A68E3D",
"(  c #C9D8A278926F",
")  c #FD1DAC2F8439",
"_  c #FFFFAED58D62",
"`  c #FE61B52084CE",
"'  c #E9ECB0509503",
"]  c #FFFFB2DA932D",
"[  c #FFFFBCAE9361",
"{  c #FFFFB8269AB8",
"}  c #FFFFBAB59DEE",
"|  c #D2F9B5BFA738",
" . c #E665BD79A722",
".. c #FFFFBE5EA21B",
"X. c #FFFFC23A9BF5",
"o. c #FDF3C603A23C",
"O. c #FFFFC87CA736",
"+. c #FFFFC612AE77",
"@. c #FFFFCB13AC71",
"#. c #EB2FCA4FB5D7",
"$. c #FFFFC746B035",
"%. c #F687CE6DB2E5",
"&. c #FFFFCB33B359",
"*. c #FFFFCF23BA39",
"=. c #FFFFD185B55F",
"-. c #FFFFD231BF5E",
";. c #FFFFD493C2CE",
":. c #FFFFD905C1D5",
">. c #FFFFDDD3CF52",
",. c #FFFFDF3CD1C3",
"<. c #FFFFE105CEB0",
"1. c #FFFFE16DD3CC",
"2. c #FFFFE71CDCE5",
"3. c #FFFFEB61E2EB",
"4. c #FFFFF2B3ED32",
"5. c #FFFFF5FDF150",
"6. c #FFFFF9EDF77C",
"7. c #FFFFFF99FF6D",
"8. c None",
/* pixels */
"8.8.8.8.8.8.8.8.8.8.8.8.8.8.8.8.8.8.8.8.8.8.8.8.8.8.8.8.8.8.8.8.",
"8.8.8.8.8.8.8.8.8.8.8.8.8.8.  . .   8.8.8.8.8.8.8.8.8.8.8.8.8.8.",
"8.8.8.8.8.8.8.8.8.8.  W ^ S M c c M S ^ W   8.8.8.8.8.8.8.8.8.8.",
"8.8.8.8.8.8.8.8.  ! D u * O o o o o O * u G !   8.8.8.8.8.8.8.8.",
"8.8.8.8.8.8.8.E S w O X O 7 p z v p 7 # X O w S E 8.8.8.8.8.8.8.",
"8.8.8.8.8.8.Q M % X 5 H *.2.4.4.4.4.2.*.H 5 X % M Q 8.8.8.8.8.8.",
"8.8.8.8.8.! z O O N ;.3.3.3.3.3.3.2.3.3.3.;.v O O z ! 8.8.8.8.8.",
"8.8.8.8.W c O # H >.,.>.,.,.>.>.>.>.,.>.,.,.>.H # O M W 8.8.8.8.",
"8.8.8.8.F % o v *.;.;.*.;.;.;.;.;.>.;.;.;.;.;.;.v o % F 8.8.8.8.",
"8.8.8.( w X 5 ..$.$.$.$...$.$.$...........$.......5 X w ( 8.8.8.",
"8.8.8.G O o z ..} } } ....{ &.,.....{ ............z X # G 8.8.8.",
"8.8.~ u X o B ] _ _ _ _ _ _ $.7.5.;.] _ ] ] _ _ _ B o X u ~ 8.8.",
"8.8./ * o O N T J ) J J ) H ..7.6.6.3...) J ) J ) N O X * / 8.8.",
"8.8.F O o o p J _ { $.;.;.;.,.7.7.7.7.6.;.) Z Z Z p o X # F 8.8.",
"8.8.C O o O w T { ;.3.7.6.7.7.7.7.7.7.7.7.4.+.Z v 7 o o o C 8.8.",
"8.8.M o o O 5 Z { *.3.7.7.7.7.7.7.7.7.7.7.7.7.3.J # X o o N 8.8.",
"8.8.v o O # & z ] -.2.7.7.7.7.7.7.7.7.7.7.7.7.1.v o o o o v 8.8.",
"8.8.C o o # & y ) -.3.7.7.7.7.7.7.7.7.7.7.3._ 7 o o o o + C 8.8.",
"8.8.F $ + # & e v R ....{ { *.7.7.7.7.5...y # o + o + + # Y 8.8.",
"8.8.' < + $ > 5 0 t i y & @ x 7.7.6.*.j # + + + + + # + < ' 8.8.",
"8.8.| g + $ > 6 0 r g k y $ x 6.1.B $ + + @ + + @ $ x $ g | 8.8.",
"8.8.8.I $ @ > 6 0 y g z b j n R 1 @ @ @ + @ @ @ < ) n $ I 8.8.8.",
"8.8.8. .r @ $ 8 q r g k b A A f > @ @ @ @ @ $ d +.o.; r  .8.8.8.",
"8.8.8.8.) , @ > q d h k b V I R U n g d g n [ >.*.8 , ) 8.8.8.8.",
"8.8.8.8.8.V ; @ , d h k b V I R ` [ X.O.&.:.<.O.q ; V 8.8.8.8.8.",
"8.8.8.8.8.#.b : @ : s b m K U R ` [ X.@.=.=.U 3 = b #.8.8.8.8.8.",
"8.8.8.8.8.8.#.V , - - 4 h m P R ` [ X.[ P s - 2 V #.8.8.8.8.8.8.",
"8.8.8.8.8.8.8.8.` f : - = 2 9 s f h a 2 - - s ` 8.8.8.8.8.8.8.8.",
"8.8.8.8.8.8.8.8.8.%.R h a : - - - - : 4 h U %.8.8.8.8.8.8.8.8.8.",
"8.8.8.8.8.8.8.8.8.8.8.8.X.R P K K P ` X.8.8.8.8.8.8.8.8.8.8.8.8.",
"8.8.8.8.8.8.8.8.8.8.8.8.8.8.8.8.8.8.8.8.8.8.8.8.8.8.8.8.8.8.8.8.",
"8.8.8.8.8.8.8.8.8.8.8.8.8.8.8.8.8.8.8.8.8.8.8.8.8.8.8.8.8.8.8.8."
};
