/* XPM */
static char *xpm_disabled_stop[] = {
/* columns rows colors chars-per-pixel */
"32 32 142 2",
"   c gray28",
".  c #484848",
"X  c #494949",
"o  c gray29",
"O  c #4B4B4B",
"+  c #4C4C4C",
"@  c gray30",
"#  c #4E4E4E",
"$  c gray31",
"%  c #505050",
"&  c #515151",
"*  c gray32",
"=  c #535353",
"-  c gray33",
";  c #555555",
":  c #565656",
">  c gray34",
",  c #585858",
"<  c gray35",
"1  c #5A5A5A",
"2  c #5B5B5B",
"3  c gray36",
"4  c #5D5D5D",
"5  c gray37",
"6  c #5F5F5F",
"7  c #606060",
"8  c gray38",
"9  c #626262",
"0  c gray39",
"q  c #656565",
"w  c gray40",
"e  c #676767",
"r  c #686868",
"t  c DimGray",
"y  c gray42",
"u  c #6D6D6D",
"i  c gray43",
"p  c #6F6F6F",
"a  c gray44",
"s  c #727272",
"d  c gray45",
"f  c #767676",
"g  c #777777",
"h  c gray47",
"j  c #797979",
"k  c gray48",
"l  c #7B7B7B",
"z  c #7C7C7C",
"x  c gray49",
"c  c #7E7E7E",
"v  c gray50",
"b  c #808080",
"n  c #818181",
"m  c gray51",
"M  c #838383",
"N  c #848484",
"B  c gray52",
"V  c #868686",
"C  c gray53",
"Z  c #888888",
"A  c #898989",
"S  c gray54",
"D  c #8B8B8B",
"F  c gray55",
"G  c #8D8D8D",
"H  c #8E8E8E",
"J  c gray56",
"K  c #909090",
"L  c gray57",
"P  c #929292",
"I  c gray58",
"U  c #959595",
"Y  c gray59",
"T  c #979797",
"R  c #989898",
"E  c gray60",
"W  c #9A9A9A",
"Q  c #9B9B9B",
"!  c gray61",
"~  c #9D9D9D",
"^  c gray62",
"/  c #9F9F9F",
"(  c #A0A0A0",
")  c gray63",
"_  c #A2A2A2",
"`  c gray64",
"'  c #A4A4A4",
"]  c #A5A5A5",
"[  c gray65",
"{  c gray66",
"}  c #A9A9A9",
"|  c #AAAAAA",
" . c gray67",
".. c #ACACAC",
"X. c gray68",
"o. c gray69",
"O. c #B1B1B1",
"+. c gray70",
"@. c #B4B4B4",
"#. c #B7B7B7",
"$. c gray72",
"%. c #B9B9B9",
"&. c #BCBCBC",
"*. c gray74",
"=. c gray",
"-. c gray75",
";. c #C0C0C0",
":. c #C1C1C1",
">. c gray77",
",. c #C5C5C5",
"<. c #C6C6C6",
"1. c gray78",
"2. c gray79",
"3. c #CBCBCB",
"4. c gray80",
"5. c #CDCDCD",
"6. c #CECECE",
"7. c gray81",
"8. c #D0D0D0",
"9. c gray82",
"0. c #D2D2D2",
"q. c gray84",
"w. c #D7D7D7",
"e. c gray85",
"r. c #DADADA",
"t. c gray87",
"y. c #DFDFDF",
"u. c #E1E1E1",
"i. c gray90",
"p. c gray91",
"a. c #E9E9E9",
"s. c #EAEAEA",
"d. c #ECECEC",
"f. c gray93",
"g. c #F1F1F1",
"h. c gray95",
"j. c #F3F3F3",
"k. c gray99",
"l. c #FDFDFD",
"z. c #FEFEFE",
"x. c gray100",
"c. c None",
/* pixels */
"c.c.c.c.c.c.c.c.c.c.c.c.c.c.c.c.c.c.c.c.c.c.c.c.c.c.c.c.c.c.c.c.",
"c.c.c.c.c.c.c.c.c.c.c.c.c.c.2 q q 2 c.c.c.c.c.c.c.c.c.c.c.c.c.c.",
"c.c.c.c.c.c.c.c.c.c.2 L ! W L A A L W ! L 2 c.c.c.c.c.c.c.c.c.c.",
"c.c.c.c.c.c.c.c.2 ! I f 5 % O   O O % 5 h I ! 2 c.c.c.c.c.c.c.c.",
"c.c.c.c.c.c.c.F W a $   % q z A V z q % O $ p ! F c.c.c.c.c.c.c.",
"c.c.c.c.c.c.! F 2 O 5 I 3.i.j.j.j.j.i.3.I 5 O - F ! c.c.c.c.c.c.",
"c.c.c.c.c.! V $ O z 4.a.d.a.a.a.a.i.a.d.a.3.z $ % A ! c.c.c.c.c.",
"c.c.c.c.I F $ O A q.y.y.y.y.y.y.y.y.y.y.y.y.e.A O $ F L c.c.c.c.",
"c.c.c.c.! 2   f 3.0.0.0.0.0.4.0.0.0.4.0.0.0.0.4.f O 2 ! c.c.c.c.",
"c.c.c.[ p   - X.,.( I I I L I I I I I L I I ( ,.X.%   a [ c.c.c.",
"c.c.c.W $   p %.%.F ! +.#.#.#.#.#.+.#.#.+.! L %.%.a O $ W c.c.c.",
"c.c.( h   O z X.X.F %.k.k.k.k.k.k.k.k.k.k.%.F X.X.z     h ( c.c.",
"c.c.} 5 O   z [ ( A =.k.k.k.k.k.k.k.k.k.k.=.A ( [ h O   5 } c.c.",
"c.c.! % O   p W I m ,.k.k.k.k.k.k.k.k.k.k.:.m I I p   O % ! c.c.",
"c.c.I $ O $ q F F z ,.k.k.k.k.k.k.k.k.k.k.3.z F A 5     $ I c.c.",
"c.c.F O O % 2 m L z 4.k.k.k.k.k.k.k.k.k.k.4.h z p O O O O F c.c.",
"c.c.F O $ % 2 p V m q.k.k.k.k.k.k.k.k.k.k.0.f p - O O O O F c.c.",
"c.c.I $ $ % 2 8 a V e.k.k.k.k.k.k.k.k.k.k.q.t - O O O O $ L c.c.",
"c.c.( - $ % 5 q p h u.k.k.k.k.k.k.k.k.k.k.y.5 O $ O $ $ - ( c.c.",
"c.c.+.8 $ - 8 q p m a.k.k.k.k.k.k.k.k.k.k.u.5 $ $ $ % % q +.c.c.",
"c.c.%.z $ - 8 q p V a.k.k.k.k.k.k.k.k.k.k.a.8 $ $ 2 A 5 z %.c.c.",
"c.c.c.( 2 - 5 t p m u.j.j.j.j.d.a.d.a.a.d.e.8 $ 8 } L - ( c.c.c.",
"c.c.c.:.h % 2 t f z F I ! [ } L h t q q q q 5 z 3.=.5 f =.c.c.c.",
"c.c.c.c.X.8 - 8 a h m A F W ( [ [ L m h z I #.y.4.p 8 } c.c.c.c.",
"c.c.c.c.c.W 2 - q h V A L W ( } +.#.=.,.4.q.y.,.a 2 W c.c.c.c.c.",
"c.c.c.c.c.3.L 5 - 8 h F I W ( } X.#.:.,.0.4.[ t 5 L 3.c.c.c.c.c.",
"c.c.c.c.c.c.4.! q 2 2 p V I ( } +.%.=.%.( h 5 q W 4.c.c.c.c.c.c.",
"c.c.c.c.c.c.c.c.+.z 8 2 5 q a m z m f q 5 5 z +.c.c.c.c.c.c.c.c.",
"c.c.c.c.c.c.c.c.c.4.X.V p 8 5 5 5 5 8 p V } 4.c.c.c.c.c.c.c.c.c.",
"c.c.c.c.c.c.c.c.c.c.c.c.,.+.( ! ! [ +.:.c.c.c.c.c.c.c.c.c.c.c.c.",
"c.c.c.c.c.c.c.c.c.c.c.c.c.c.c.c.c.c.c.c.c.c.c.c.c.c.c.c.c.c.c.c.",
"c.c.c.c.c.c.c.c.c.c.c.c.c.c.c.c.c.c.c.c.c.c.c.c.c.c.c.c.c.c.c.c."
};
