/* XPM */
static char *xpm_hover_stop[] = {
/* columns rows colors chars-per-pixel */
"32 32 117 2",
"   c #595756",
".  c #696361",
"X  c #FF4700",
"o  c #FF4B00",
"O  c #FF4F08",
"+  c #FF5301",
"@  c #FF5B00",
"#  c #FF530A",
"$  c #FF5C0A",
"%  c #FF5713",
"&  c #FF5D16",
"*  c #FF5E1C",
"=  c #FF6403",
"-  c #FF6903",
";  c #FF630A",
":  c #FF6C08",
">  c #FF6415",
",  c #FF6B13",
"<  c #FF661A",
"1  c #FF7112",
"2  c #FF741C",
"3  c #FF781B",
"4  c #FF6424",
"5  c #FF6E20",
"6  c #FF6B2C",
"7  c #FF7426",
"8  c #FF7C23",
"9  c #FF732C",
"0  c #FF782B",
"q  c #FE6F35",
"w  c #FF7036",
"e  c #FF7C34",
"r  c #FE743C",
"t  c #FF7C3E",
"y  c #FD7740",
"u  c #FF7C40",
"i  c #FF7F4A",
"p  c #FF802A",
"a  c #FF8334",
"s  c #FF813C",
"d  c #FF8B3C",
"f  c #FF8641",
"g  c #FF8C41",
"h  c #FF834D",
"j  c #FF8A4C",
"k  c #FF914E",
"l  c #FB8555",
"z  c #FF8B51",
"x  c #F4895D",
"c  c #FE8B5C",
"v  c #FE9656",
"b  c #FF955B",
"n  c #FF9B5B",
"m  c #F58D61",
"M  c #FF8E60",
"N  c #FF9366",
"B  c #FE9D64",
"V  c #F79168",
"C  c #FC956A",
"Z  c #FF9A6D",
"A  c #E79675",
"S  c #ED9470",
"D  c #EC9B7A",
"F  c #F19772",
"G  c #FF9D74",
"H  c #FFA163",
"J  c #FFA76E",
"K  c #FEA96C",
"L  c #FDA572",
"P  c #FFAC77",
"I  c #F4A17C",
"U  c #FFA37D",
"Y  c #FFAD7B",
"T  c #9A8881",
"R  c #A28D84",
"E  c #B6998D",
"W  c #BB998C",
"Q  c #B99D92",
"!  c #D19B85",
"~  c #DFA58E",
"^  c #C9A292",
"/  c #FAAD83",
"(  c #FFAE8C",
")  c #FEB585",
"_  c #E9B095",
"`  c #FFB090",
"'  c #FFBC93",
"]  c #FFB799",
"[  c #FFB99C",
"{  c #D2B5A7",
"}  c #E6BDA7",
"|  c #FFBCA0",
" . c #FFC29C",
".. c #D9C3B6",
"X. c #FDC3A2",
"o. c #FFC8A7",
"O. c #FFC6AE",
"+. c #FFCBAB",
"@. c #EACAB5",
"#. c #F6CEB2",
"$. c #FFCFB2",
"%. c #FFCDB9",
"&. c #FFD1B5",
"*. c #FFD1BE",
"=. c #DEDAD6",
"-. c #E7D1C2",
";. c #FFD5C4",
":. c #FFD9C1",
">. c #FFDCCD",
",. c #FFDED0",
"<. c #FFE0CE",
"1. c #FFE6DC",
"2. c #FFE8DD",
"3. c #FFEBE3",
"4. c #FFF2EC",
"5. c #FFFFFF",
"6. c None",
/* pixels */
"6.6.6.6.6.6.6.6.6.6.6.6.6.6.6.6.6.6.6.6.6.6.6.6.6.6.6.6.6.6.6.6.",
"6.6.6.6.6.6.6.6.6.6.6.6.6.6.  . .   6.6.6.6.6.6.6.6.6.6.6.6.6.6.",
"6.6.6.6.6.6.6.6.6.6.  R ! A m m m m A ! R   6.6.6.6.6.6.6.6.6.6.",
"6.6.6.6.6.6.6.6.  W S r 4 O o o X o O 4 y S W   6.6.6.6.6.6.6.6.",
"6.6.6.6.6.6.6.T D q O X O 6 i c c i 6 O X O q A T 6.6.6.6.6.6.6.",
"6.6.6.6.6.6.E m % o 4 G %.1.4.4.4.4.1.%.G 4 X % m E 6.6.6.6.6.6.",
"6.6.6.6.6.E l O o M ;.3.3.3.3.3.3.3.3.3.3.;.M o # l E 6.6.6.6.6.",
"6.6.6.6.R m O o G >.,.,.>.>.,.,.>.,.>.,.,.,.>.c o O m R 6.6.6.6.",
"6.6.6.6.~ # X c ;.;.%.;.*.*.*.*.*.*.*.*.;.%.;.%.c X % D 6.6.6.6.",
"6.6.6.^ q X 4 | | / V m V m V V V V V m V V U O.| 4 X q ^ 6.6.6.",
"6.6.6.F O X i | ] m F ] ] ] ] ] ] ] ] ] ] S M [ | l X O F 6.6.6.",
"6.6.Q y X X C ` ( x | 5.5.5.5.5.5.5.5.5.5.| x ( ` N X o y Q 6.6.",
"6.6.~ * o X M / G M X.5.5.5.5.5.5.5.5.5.5.| c U / M o X * ~ 6.6.",
"6.6.D # o X i Z C c O.5.5.5.5.5.5.5.5.5.5.%.c C C i X o # D 6.6.",
"6.6.V o o O q N c i { 5.5.5.5.5.5.5.5.5.5.{ c G c 6 X X o V 6.6.",
"6.6.m o o # * c N M ;.5.5.5.5.5.5.5.5.5.5.;.N i y O o o o M 6.6.",
"6.6.m o o # & w c l >.5.5.5.5.5.5.5.5.5.5.;.y r & o o o o x 6.6.",
"6.6.C + o # & 4 r c >.5.5.5.5.5.5.5.5.5.5.;.w # o o o o + C 6.6.",
"6.6.I # + $ & 4 6 h =.5.5.5.5.5.5.5.5.5.5.>.& + + o o + $ I 6.6.",
"6.6._ < o $ > 5 7 j 1.5.5.5.5.5.5.5.5.5.5.1.> + + + $ + < _ 6.6.",
"6.6.{ u + $ > < 6 j 3.5.5.5.5.5.5.5.5.5.5.2.< + + $ z $ u { 6.6.",
"6.6.6.L $ @ > 7 9 j <.4.4.4.4.3.3.3.3.3.3.-.< + > ) N $ L 6.6.6.",
"6.6.6.} e + $ 2 0 s b B Z L / b e 2 5 5 5 < ; s +.X.; e } 6.6.6.",
"6.6.6.6./ , @ > 0 s f j v B L Y P b f e s n ' ,.&.7 > / 6.6.6.6.",
"6.6.6.6.6.B ; @ , s g k b B K Y ) '  .o.&.:.>.o.0 ; B 6.6.6.6.6.",
"6.6.6.6.6.@.b = = : a j n H P Y ) '  .+.&.&.P 2 = v @.6.6.6.6.6.",
"6.6.6.6.6.6.@.H 1 = : 3 g n L Y ) '  .' K p - 1 B @.6.6.6.6.6.6.",
"6.6.6.6.6.6.6.6.) a : - - 1 8 a d d p 1 = : a ) 6.6.6.6.6.6.6.6.",
"6.6.6.6.6.6.6.6.6.#.Y g p : - - - - : 3 g P #.6.6.6.6.6.6.6.6.6.",
"6.6.6.6.6.6.6.6.6.6.6.6. .Y K H H K )  .6.6.6.6.6.6.6.6.6.6.6.6.",
"6.6.6.6.6.6.6.6.6.6.6.6.6.6.6.6.6.6.6.6.6.6.6.6.6.6.6.6.6.6.6.6.",
"6.6.6.6.6.6.6.6.6.6.6.6.6.6.6.6.6.6.6.6.6.6.6.6.6.6.6.6.6.6.6.6."
};
