/* XPM */
static char *xpm_next[] = {
/* columns rows colors chars-per-pixel */
"32 32 220 2",
"   c #1709191278C7",
".  c #19F81C027A74",
"X  c #1A5621567D2A",
"o  c #212C23227EDC",
"O  c #59EC59F45AEA",
"+  c #658365A2684D",
"@  c #148827838041",
"#  c #1689297F816A",
"$  c #18E42BAC82C8",
"%  c #14C032ED865C",
"&  c #1A0B37968920",
"*  c #130A3CB18B86",
"=  c #1ECE3BB68BB5",
"-  c #23AD25A58021",
";  c #22C52A5B8267",
":  c #2AAC2C868443",
">  c #20F4330D870D",
",  c #2D44347F8856",
"<  c #2BF43D338D18",
"1  c #30913249877D",
"2  c #338935548967",
"3  c #3DAE3F3D8F1B",
"4  c #0ED044578F4A",
"5  c #106D45909006",
"6  c #1999420F8EB6",
"7  c #0E004EED94DA",
"8  c #1111461B9058",
"9  c #1D59453B9095",
"0  c #19E84CD9946D",
"q  c #0B0D57AC996D",
"w  c #0F475A719B1C",
"e  c #1194518C9682",
"r  c #1E5650A596A7",
"t  c #16F0557598F0",
"y  c #16755F4F9E1C",
"u  c #2A4445A09178",
"i  c #21F648E192C4",
"p  c #281E4E0695CC",
"a  c #3610471292D5",
"s  c #265656A29A4C",
"d  c #2DB252A398B4",
"f  c #23665E589E3B",
"g  c #325F56819AE4",
"h  c #30B95EB39F2A",
"j  c #3CA35EEE9FDE",
"k  c #0A9062029F00",
"l  c #18E461539F4C",
"z  c #0C496DE2A571",
"x  c #1D696E06A66E",
"c  c #0698751EA919",
"v  c #03507DCEAD9F",
"b  c #0E90796CABE0",
"n  c #115270E5A756",
"m  c #1B7B7C20ADE8",
"M  c #209165B2A1F6",
"N  c #2C676584A27C",
"B  c #2C7A6E9EA75F",
"V  c #3B3766E8A40A",
"C  c #398C6ECFA826",
"Z  c #2F397A24ADD7",
"A  c #387F76C5AC5F",
"S  c #35B87DBEB00C",
"D  c #400D41AD907F",
"F  c #4AA34C2B966C",
"G  c #42BE5B4E9E34",
"H  c #54E1565E9BFE",
"J  c #5AB65C1D9FF6",
"K  c #4F6F5DCFA054",
"L  c #5C2A5E7CA13C",
"P  c #46CB673CA4EA",
"I  c #4AD16310A2A7",
"U  c #497D6956A607",
"Y  c #45BF6F0CA8F3",
"T  c #44377697ACCF",
"R  c #4DDD74DFAC2E",
"E  c #42007CBDAFF0",
"W  c #533674A4ACB6",
"Q  c #42EE7E01B0B7",
"!  c #4EBA7E4EB175",
"~  c #5AB77F73B2CD",
"^  c #677168D4A769",
"/  c #695A6AB3A63D",
"(  c #66166C60A93C",
")  c #6B436C8FA9AC",
"_  c #6FEB7132A7E1",
"`  c #72BD74B6ABBD",
"'  c #797C7A9BAD29",
"]  c #646C7C55B1B9",
"[  c #7AB67BCEB273",
"{  c #08A780A6AF68",
"}  c #0100875FB29B",
"|  c #0B3281E9B03A",
" . c #05428975B3F0",
".. c #0B988C2DB5B1",
"X. c #1B748595B2FC",
"o. c #198C88F0B4B7",
"O. c #00D59191B82B",
"+. c #02299221B88A",
"@. c #0A8E959CBAD0",
"#. c #164491D6B94C",
"$. c #1D8A9D77BFF3",
"%. c #25028F80B8D0",
"&. c #31BF8506B3B5",
"*. c #3CE78B0CB78C",
"=. c #273399E6BE7B",
"-. c #3A5F9214BB51",
";. c #34CA9818BE2B",
":. c #4206852AB4A1",
">. c #4AC882BBB3A8",
",. c #496E8969B74C",
"<. c #4C538BCDB8AE",
"1. c #54948241B3EC",
"2. c #5B7C838DB504",
"3. c #58388C81B9B4",
"4. c #4B7E93C2BCED",
"5. c #56F29315BD16",
"6. c #63788D6EBABA",
"7. c #6D8C8F79BC46",
"8. c #79B383EEB3E0",
"9. c #65439282BD78",
"0. c #1E979DFDC049",
"q. c #2DE49D57C09C",
"w. c #3C2DA36FC486",
"e. c #549C9CE7C24B",
"r. c #64569B10C214",
"t. c #6E439BE8C2F2",
"y. c #724C9E7CC493",
"u. c #45A2A03DC37C",
"i. c #44B9ADC0CA91",
"p. c #5F5CA51EC6A4",
"a. c #6051A04BC4A3",
"s. c #6C4DA418C6B7",
"d. c #6059A701C84C",
"f. c #6AFBA69EC89B",
"g. c #6095ADECCC21",
"h. c #6A4FAC99CBD0",
"j. c #7756A81BCA11",
"k. c #75C8AD30CC9A",
"l. c #7E6CAC2DCC8F",
"z. c #6AAAB110CD86",
"x. c #74E0B27DCF7C",
"c. c #71DEB73FD1EB",
"v. c #7B9CB73AD256",
"b. c #7FA9BB18D4A2",
"n. c #6518C146D665",
"m. c #704CC580D916",
"M. c #7DBAC533D921",
"N. c #880188329099",
"B. c #8C1F8C6496AB",
"V. c #83288412AED1",
"C. c #95CC961DA5DE",
"Z. c #915291E0ACB8",
"A. c #9AF49B45A877",
"S. c #83818492B22D",
"D. c #8A9A8B78B415",
"F. c #854C8650B8BE",
"G. c #87A388A5B9EC",
"H. c #8AAA8BABBBAE",
"J. c #8A0E9788BD80",
"K. c #9BAD9C41B424",
"L. c #8C6495B1C148",
"P. c #889598CBC2BC",
"I. c #960C96F8C274",
"U. c #96E79AE4C464",
"Y. c #9A019AE7C46D",
"T. c #81C7A155C437",
"R. c #844EABCDCC9A",
"E. c #8C60AA32CC2E",
"W. c #9FDCA0BAC7D5",
"Q. c #9FB3ACB1C5BD",
"!. c #9EF6A25BC8F5",
"~. c #8C3EB23DCDB6",
"^. c #80B2B3ADD0AA",
"/. c #8B72BCA0D603",
"(. c #99C1BD40D716",
"). c #A643A701CBCD",
"_. c #A48CABC0CE2B",
"`. c #A902A9A7CD53",
"'. c #AE8EB69FC28C",
"]. c #AF07C022CF9B",
"[. c #AE81AF33D08E",
"{. c #A7BBB41FD2E7",
"}. c #A97BB608D3ED",
"|. c #B688B74ED584",
" X c #BA12BAB2D766",
".X c #BE82BF13DA07",
"XX c #8AAEC4CFD96A",
"oX c #85BDCD64DDF9",
"OX c #9577C4A7DADD",
"+X c #9853C1FED984",
"@X c #953EC930DD52",
"#X c #9A79CBC0DEE6",
"$X c #A3DAC533DBCF",
"%X c #A0C9CAD6DEB7",
"&X c #AA1FCC7BE010",
"*X c #B303CA19DF26",
"=X c #BC8CCC6ADC7C",
"-X c #BCD6D3C9DD50",
";X c #AA81CD78E097",
":X c #ACBDD17FE2F1",
">X c #A505D891E4B6",
",X c #B601D54BE556",
"<X c #B88FD574E5A1",
"1X c #B7DFDAC4E49E",
"2X c #C5A9C658DE53",
"3X c #CC20CC79E1E4",
"4X c #C410DC31E9C8",
"5X c #D508D546E71A",
"6X c #D75DD791E873",
"7X c #D5C3DC32EABC",
"8X c #DC71DCA2EB42",
"9X c #D09EE264EDB6",
"0X c #E38CE3ECEF92",
"qX c #E62EE67BF117",
"wX c #E76CE99BF2C1",
"eX c #ED4BED64F510",
"rX c #F0EBF0EFF724",
"tX c #F565F677FA5E",
"yX c #FF79FF88FFB9",
"uX c None",
/* pixels */
"uXuXuXuXuXuXuXuXuXuXuXuXuXuXuXuXuXuXuXuXuXuXuXuXuXuXuXuXuXuXuXuX",
"uXuXuXuXuXuXuXuXuXuXuXuXuXuXO + + O uXuXuXuXuXuXuXuXuXuXuXuXuXuX",
"uXuXuXuXuXuXuXuXuXuXO B.Z.V.' _ _ ' V.Z.B.O uXuXuXuXuXuXuXuXuXuX",
"uXuXuXuXuXuXuXuXO Z.V.H 2 o .     . o 2 H V.C.O uXuXuXuXuXuXuXuX",
"uXuXuXuXuXuXuXN.D.F o   - D J ) ) J D o . o F D.N.uXuXuXuXuXuXuX",
"uXuXuXuXuXuXC.` :   1 '  X8XeXrXrXeX8X.X[ 2   1 ` C.uXuXuXuXuXuX",
"uXuXuXuXuXC./ o . ^ .X0XwXqX0XqX0X0X0XqX0X2XJ X o / C.uXuXuXuXuX",
"uXuXuXuXB.` o . ) 3X6X5X5X5X5X5X5X5X5X5X5X5X2X) . o ` B.uXuXuXuX",
"uXuXuXuXD.: . H  X3X2X2X2X2X2X2X2X2X2X2X2X2X2X.XH . : D.uXuXuXuX",
"uXuXuXK.F   : I. X|.|.|.|.|. X|.|.|.|. X|.|.|. XI.:   F A.uXuXuX",
"uXuXuXS.-   F ).`.).).).`.)..X5X|.).`.`.`.`.`.`.).F   o F.uXuXuX",
"uXuXC.J     L Y.Y.Y.Y.Y.Y.I. XyXeX2XY.Y.Y.Y.Y.Y.Y.J   . J A.uXuX",
"uXuXK.2 . . L H.H.H.H.H.G.G.[.yXyXyX8X`.H.G.H.H.H.J . . 2 K.uXuX",
"uXuXD.o . . F G.Y.).|.2X2X2X6XyXyXyXyXyX3XI.[ [ [ F . . o D.uXuX",
"uXuX' o . o 3 F.).3XwXyXyXyXyXyXyXyXyXyXyXeX|.[ / 1 . . . [ uXuX",
"uXuX` X . - 2 ` )..XqXyXyXyXyXyXyXyXyXyXyXyXyX0XF.o . . . ` uXuX",
"uXuX` X X ; , L Y.2XqXyXyXyXyXyXyXyXyXyXyXyXyX7X( X X X X ` uXuX",
"uXuX8.$ $ > < K L.2XqXyXyXyXyXyXyXyXyXyXyXwXU.a @ # # @ # 8.uXuX",
"uXuXJ.= % > u G ] P.{.{._.Q.=XyXyXyXyXtX}.I & % % % % % = J.uXuX",
"uXuX_.d * 0 p g j P W U i 8 ] yXyXyX=XW 6 * * * * * 6 6 d Q.uXuX",
"uXuX'.R 8 0 s h V Y W 2.T 0 ~ tX7X7.r 4 8 8 5 5 5 0 2.r R '.uXuX",
"uXuXuXT.t 7 f N C T ! 2.6.1.6.R.N 7 7 7 7 7 7 7 f E.6.t T.uXuXuX",
"uXuXuX*XE q y B A Q ,.3.9.t.y.>.x t q q q q y ! *X$Xl >.$XuXuXuX",
"uXuXuXuXE.x z x S :.<.5.r.t.j.R.j.r.,.:.,.r.(.9X,XA M ~.uXuXuXuX",
"uXuXuXuXuXf.n z m *.<.5.d.s.k.v./.+X%X&X,X4X9X&X&.z f.uXuXuXuXuX",
"uXuXuXuXuX=Xp.b c X.-.u.d.h.x.b./.OX%X:X<X<Xv.X.b d.=XuXuXuXuXuX",
"uXuXuXuXuXuX-Xz.o.v | %.u.g.c.b.XXOX#X#Xc.;.{ o.z.-XuXuXuXuXuXuX",
"uXuXuXuXuXuXuXuXXXw... ...#.=.w.i.w.=.#. ...w.XXuXuXuXuXuXuXuXuX",
"uXuXuXuXuXuXuXuXuX1XM.i.0.@.+.+. .+.@.0.i.M.1XuXuXuXuXuXuXuXuXuX",
"uXuXuXuXuXuXuXuXuXuXuXuX>XoXm.n.n.m.oX>XuXuXuXuXuXuXuXuXuXuXuXuX",
"uXuXuXuXuXuXuXuXuXuXuXuXuXuXuXuXuXuXuXuXuXuXuXuXuXuXuXuXuXuXuXuX",
"uXuXuXuXuXuXuXuXuXuXuXuXuXuXuXuXuXuXuXuXuXuXuXuXuXuXuXuXuXuXuXuX"
};
