/* XPM */
static char *xpm_disabled_play[] = {
/* columns rows colors chars-per-pixel */
"32 32 145 2",
"   c gray28",
".  c #484848",
"X  c #494949",
"o  c gray29",
"O  c #4B4B4B",
"+  c #4C4C4C",
"@  c gray30",
"#  c #4E4E4E",
"$  c gray31",
"%  c #505050",
"&  c #515151",
"*  c gray32",
"=  c #535353",
"-  c gray33",
";  c #555555",
":  c #565656",
">  c gray34",
",  c #585858",
"<  c gray35",
"1  c #5A5A5A",
"2  c #5B5B5B",
"3  c gray36",
"4  c #5D5D5D",
"5  c gray37",
"6  c #5F5F5F",
"7  c #606060",
"8  c gray38",
"9  c #626262",
"0  c gray39",
"q  c #656565",
"w  c gray40",
"e  c #676767",
"r  c #686868",
"t  c DimGray",
"y  c gray42",
"u  c #6C6C6C",
"i  c gray43",
"p  c #6F6F6F",
"a  c gray44",
"s  c #727272",
"d  c gray45",
"f  c #767676",
"g  c #777777",
"h  c gray47",
"j  c #797979",
"k  c gray48",
"l  c #7B7B7B",
"z  c #7C7C7C",
"x  c gray49",
"c  c #7E7E7E",
"v  c #808080",
"b  c #818181",
"n  c gray51",
"m  c #838383",
"M  c #848484",
"N  c gray52",
"B  c #868686",
"V  c gray53",
"C  c #888888",
"Z  c #898989",
"A  c gray54",
"S  c #8B8B8B",
"D  c gray55",
"F  c #8D8D8D",
"G  c #8E8E8E",
"H  c gray56",
"J  c #909090",
"K  c gray57",
"L  c #929292",
"P  c #939393",
"I  c gray58",
"U  c #959595",
"Y  c gray59",
"T  c #979797",
"R  c #989898",
"E  c gray60",
"W  c #9A9A9A",
"Q  c gray61",
"!  c #9D9D9D",
"~  c gray62",
"^  c #9F9F9F",
"/  c #A0A0A0",
"(  c gray63",
")  c #A2A2A2",
"_  c gray64",
"`  c #A4A4A4",
"'  c #A5A5A5",
"]  c gray65",
"[  c #A7A7A7",
"{  c gray66",
"}  c #A9A9A9",
"|  c #AAAAAA",
" . c gray67",
".. c #ACACAC",
"X. c gray68",
"o. c #AEAEAE",
"O. c gray69",
"+. c #B1B1B1",
"@. c #B2B2B2",
"#. c gray70",
"$. c gray71",
"%. c #B7B7B7",
"&. c gray72",
"*. c #B9B9B9",
"=. c gray73",
"-. c #BCBCBC",
";. c gray",
":. c gray75",
">. c #C0C0C0",
",. c gray77",
"<. c #C5C5C5",
"1. c #C6C6C6",
"2. c gray78",
"3. c #C8C8C8",
"4. c gray79",
"5. c #CBCBCB",
"6. c gray80",
"7. c #CDCDCD",
"8. c #CECECE",
"9. c gray81",
"0. c gray82",
"q. c #D2D2D2",
"w. c LightGray",
"e. c gray84",
"r. c gray86",
"t. c #DDDDDD",
"y. c gray87",
"u. c #DFDFDF",
"i. c gray90",
"p. c #E6E6E6",
"a. c gray91",
"s. c #E9E9E9",
"d. c #EAEAEA",
"f. c gray92",
"g. c #ECECEC",
"h. c #F1F1F1",
"j. c gray95",
"k. c #F3F3F3",
"l. c gray96",
"z. c #F6F6F6",
"x. c gray98",
"c. c gray99",
"v. c #FDFDFD",
"b. c gray100",
"n. c None",
/* pixels */
"n.n.n.n.n.n.n.n.n.n.n.n.n.n.n.n.n.n.n.n.n.n.n.n.n.n.n.n.n.n.n.n.",
"n.n.n.n.n.n.n.n.n.n.n.n.n.n.2 w w 2 n.n.n.n.n.n.n.n.n.n.n.n.n.n.",
"n.n.n.n.n.n.n.n.n.n.> P ! W D C C D W ! D 2 n.n.n.n.n.n.n.n.n.n.",
"n.n.n.n.n.n.n.n.5 ! I f 5 % O O O O $ 5 f W ! 2 n.n.n.n.n.n.n.n.",
"n.n.n.n.n.n.n.D ! a $   % t x C C x t % O $ i ! D n.n.n.n.n.n.n.",
"n.n.n.n.n.n.! D > O > P 4.i.j.l.j.j.i.4.I %   2 D ! n.n.n.n.n.n.",
"n.n.n.n.n.! C $ $ C 7.a.g.a.a.a.a.a.g.g.g.4.D O % C ! n.n.n.n.n.",
"n.n.n.n.P D $ O C r.w.7.w.i.t.t.t.t.t.t.t.i.w.D O % D P n.n.n.n.",
"n.n.n.n.! 2 O f 4.w.7.! } ,.w.w.w.w.w.w.w.w.w.7.f O > ! n.n.n.n.",
"n.n.n.] i   % o.4.,.>.! ] ! #.:.,.,.>.,.>.,.,.4.o.% O i ] n.n.n.",
"n.n.n.W $ O i *.*.o.$.! w.w.} ! #.$.o.*.*.:.*.*.*.i O $ W n.n.n.",
"n.n./ h   O x o.o.o.} ! r.b.a.>.] / / o.o.o.o.o.#.h O   h / n.n.",
"n.n.} 5 O   x ] / / / / t.b.b.b.a.,.} W / / ] ] ] h O   5 } n.n.",
"n.n.! % O   a I I W I I r.b.b.b.b.x.a.,./ I I I W i     % / n.n.",
"n.n.I $ O O 0 x D C C P i.b.b.b.b.b.b.x.i.>.W M C 5 O O $ I n.n.",
"n.n.D O O % 2 m P m x P a.b.b.b.b.b.b.b.b.b.a.$.x O   O O D n.n.",
"n.n.D $ O > 2 t C M w C a.b.b.b.b.b.b.b.b.b.a.o.5 O O O O D n.n.",
"n.n.I $ $ % 2 0 f M w C a.b.b.b.b.b.b.b.j.:.x > O O O O O I n.n.",
"n.n./ % $ % 5 w i f x D j.b.b.b.b.b.x.4.M 5 % $ O $ O $ > / n.n.",
"n.n.#.0 $ > 5 w i f x I l.b.b.b.b.w.P 2 $ $ $ $ $ O % > 0 #.n.n.",
"n.n.*.x $ > 5 w a f x ! l.b.b.a.] 0 $ $ $ $ % $ $ 2 M 2 x $.n.n.",
"n.n.n./ 2 > 5 t a h x ] x.x.,.a $ $ % % % % % $ 0 } P > / n.n.n.",
"n.n.n.:.h % 2 t f h x } t.$.W h 0 % % > % % 2 x ,.>.2 f :.n.n.n.",
"n.n.n.n.} w % 0 a h x P W W / } ] P m h m I *.t.7.i 0 o.n.n.n.n.",
"n.n.n.n.n.W 2 > w h m C P W / } #.*.:.,.7.w.i.,.a 5 W n.n.n.n.n.",
"n.n.n.n.n.4.P 5 > 0 h D I W / } o.$.:.4.w.7./ w 2 P 4.n.n.n.n.n.",
"n.n.n.n.n.n.4.W w > 5 i M I / } #.$.:.$./ h 2 w W 4.n.n.n.n.n.n.",
"n.n.n.n.n.n.n.n.#.x 0 2 5 w a m m m f w 2 0 x #.n.n.n.n.n.n.n.n.",
"n.n.n.n.n.n.n.n.n.7.} M i 0 5 2 2 5 5 i M o.7.n.n.n.n.n.n.n.n.n.",
"n.n.n.n.n.n.n.n.n.n.n.n.,.#./ ! W ] #.,.n.n.n.n.n.n.n.n.n.n.n.n.",
"n.n.n.n.n.n.n.n.n.n.n.n.n.n.n.n.n.n.n.n.n.n.n.n.n.n.n.n.n.n.n.n.",
"n.n.n.n.n.n.n.n.n.n.n.n.n.n.n.n.n.n.n.n.n.n.n.n.n.n.n.n.n.n.n.n."
};
