/* XPM */
static char *xpm_delete[] = {
/* columns rows colors chars-per-pixel */
"32 32 221 2",
"   c #1709191278C7",
".  c #19FA1C047A75",
"X  c #1A6E20D27CE7",
"o  c #214523387EF1",
"O  c #59EC59F45AEA",
"+  c #658365A2684D",
"@  c #169329898170",
"#  c #18E32BAC82C8",
"$  c #14F2331C8677",
"%  c #12363C0F8B23",
"&  c #1DF73B018B40",
"*  c #23B025A88023",
"=  c #241B2BAE832D",
"-  c #2AAC2C868443",
";  c #2106331E8717",
":  c #2C8333C087EA",
">  c #2356356C8870",
",  c #2B503C918CB9",
"<  c #30CF328687A1",
"1  c #3373353E8959",
"2  c #3D433ED08EDA",
"3  c #0EDE44728F59",
"4  c #18E841668E56",
"5  c #0CF84E419470",
"6  c #119346789092",
"7  c #1D59453B9095",
"8  c #1A574D3994A5",
"9  c #0B16579A9966",
"0  c #0ED95A1F9AEB",
"q  c #10A350D9960C",
"w  c #1E195069968A",
"e  c #172355989906",
"r  c #15F05EEE9DE1",
"t  c #19D257DA9A3B",
"y  c #29EC454E9146",
"u  c #281F4E0795CC",
"i  c #355D45DF9226",
"p  c #34214E50968D",
"a  c #3B884BCE9595",
"s  c #265656A39A4C",
"d  c #2DB252A398B4",
"f  c #23665E589E3B",
"g  c #333157029B39",
"h  c #3E27570C9BC0",
"j  c #30BB5EB59F2B",
"k  c #3B735E009F52",
"l  c #0A9062029F00",
"z  c #16B65FE79E6D",
"x  c #18E461539F4C",
"c  c #0C496DE2A571",
"v  c #1D696E06A66E",
"b  c #0698751EA919",
"n  c #03507DCEAD9F",
"m  c #0E90796CABE0",
"M  c #115270E5A756",
"N  c #1B7B7C20ADE8",
"B  c #2273671EA2D0",
"V  c #2CBD6528A256",
"C  c #2C0C6EB6A765",
"Z  c #39056531A303",
"A  c #38F76E5FA7E2",
"S  c #2F397A24ADD7",
"D  c #388676CAAC62",
"F  c #35B87DBEB00C",
"G  c #3C6E7ABDAEAC",
"H  c #400D41AD907F",
"J  c #4201489A9433",
"K  c #4A6A4C74969C",
"L  c #4E55549B9B36",
"P  c #4BB35A859E59",
"I  c #54E1565E9BFE",
"U  c #5AB75C1D9FF7",
"Y  c #5D965F11A1C9",
"T  c #4D496461A3AA",
"R  c #42756CB4A786",
"E  c #5F2E60A8A2DA",
"W  c #4F3075CDAC96",
"Q  c #41D67C9FAFDE",
"!  c #422B7D71B060",
"~  c #4CDD7D25B0BE",
"^  c #5F8B7B73B0EE",
"/  c #621B63A4A485",
"(  c #636A68C2A713",
")  c #695A6AB3A63D",
"_  c #619B6EBDAA58",
"`  c #6BBC6D70AA1B",
"'  c #6FEB7132A7E1",
"]  c #6FB57115AC36",
"[  c #72907477ABDC",
"{  c #797F7AA3AD2A",
"}  c #7B527C5EB2C3",
"|  c #08A780A6AF68",
" . c #0100875FB29B",
".. c #0B3281E9B03A",
"X. c #05428975B3F0",
"o. c #0B988C2DB5B1",
"O. c #1B748595B2FC",
"+. c #198C88F0B4B7",
"@. c #00D59191B82B",
"#. c #02299221B88A",
"$. c #0A8E959CBAD0",
"%. c #164491D6B94C",
"&. c #1D8A9D77BFF3",
"*. c #25028F80B8D0",
"=. c #31BF8506B3B5",
"-. c #3CE78B0CB78C",
";. c #273399E6BE7B",
":. c #3A5F9214BB51",
">. c #34CA9818BE2B",
",. c #42D68567B4CE",
"<. c #49338166B2D3",
"1. c #4BFD8B8FB888",
"2. c #5D9680F7B3C3",
"3. c #55CD8B0DB8C2",
"4. c #4B7E93C2BCED",
"5. c #54E0919BBC32",
"6. c #6C118DBEBB46",
"7. c #79BA83EFB3E7",
"8. c #73A28D7FBBC5",
"9. c #7A968AE7BA69",
"0. c #67A29109BCD3",
"q. c #68269206BD65",
"w. c #1E979DFDC049",
"e. c #2DE49D57C09C",
"r. c #3C2DA36FC486",
"t. c #549C9CE7C24B",
"y. c #63A09A8DC1C6",
"u. c #6E329BA9C2D8",
"i. c #45A2A03DC37C",
"p. c #44B9ADC0CA91",
"a. c #5F5CA51EC6A4",
"s. c #6051A04BC4A3",
"d. c #6C44A412C6B2",
"f. c #6059A701C84C",
"g. c #6AFBA69EC89B",
"h. c #6095ADECCC21",
"j. c #6A4FAC99CBD0",
"k. c #790EA3B5C7A1",
"l. c #7ACFA515C897",
"z. c #76AFAABCCB63",
"x. c #7E6AAC2BCC8E",
"c. c #6AAAB110CD86",
"v. c #74E0B27DCF7C",
"b. c #71DEB73FD1EB",
"n. c #7B9CB73AD256",
"m. c #7FA9BB18D4A2",
"M. c #6518C146D665",
"N. c #704CC580D916",
"B. c #7DBAC533D921",
"V. c #880188329099",
"C. c #8C1F8C6496AB",
"Z. c #83288412AED1",
"A. c #95CC961DA5DE",
"S. c #915291E0ACB8",
"D. c #9AF49B45A877",
"F. c #83818492B22D",
"G. c #8A9A8B7AB418",
"H. c #8B1B8C1CBBEF",
"J. c #8A259543BE95",
"K. c #9BAD9C41B424",
"L. c #96C397CDC310",
"P. c #958B9880C331",
"I. c #9A679B51C4CC",
"U. c #81CAA157C438",
"Y. c #8221AF05CE3F",
"T. c #8C60AA32CC2E",
"R. c #9FB4ACB1C5BD",
"E. c #9569A256C872",
"W. c #8C3EB23DCDB6",
"Q. c #80B2B3ADD0AA",
"!. c #8B72BCA0D603",
"~. c #98D4B517D29A",
"^. c #99C9BD46D71A",
"/. c #A513A5D7CB22",
"(. c #AA22AAC6CDFF",
"). c #AE8EB69FC28C",
"_. c #AF08C022CF9C",
"`. c #AF0AAFBBD0AB",
"'. c #A039BAFAD635",
"]. c #B6DAB7A5D5BC",
"[. c #BA7BBB25D7A9",
"{. c #BE9ABF30DA1D",
"}. c #8AAEC4CFD96A",
"|. c #85BDCD64DDF9",
" X c #9577C4A7DADD",
".X c #9853C1FED984",
"XX c #953EC930DD52",
"oX c #9A79CBC0DEE6",
"OX c #A3DAC533DBCF",
"+X c #A0C9CAD6DEB7",
"@X c #AA1FCC7BE010",
"#X c #B303CA19DF26",
"$X c #BA6FCF13D95A",
"%X c #BCD6D3C9DD50",
"&X c #AA81CD78E097",
"*X c #B873CC7AE0C2",
"=X c #ACBDD17FE2F1",
"-X c #A505D891E4B6",
";X c #B601D54BE556",
":X c #B88FD574E5A1",
">X c #B7DFDAC4E49E",
",X c #C58BC5FFDE25",
"<X c #CB24CB7FE14C",
"1X c #C410DC31E9C8",
"2X c #D4F2D52CE70D",
"3X c #D75DD791E873",
"4X c #DE95DED0EC8E",
"5X c #D09EE264EDB6",
"6X c #DFE1E526F000",
"7X c #DDA3E7A4F131",
"8X c #E44BE49BF000",
"9X c #E62FE67AF11A",
"0X c #E58EE9DAF2CB",
"qX c #EE39EE4FF59D",
"wX c #EE41F2A9F7F7",
"eX c #F030F3D2F8AE",
"rX c #F0EBF0EFF724",
"tX c #F52CF620FA2B",
"yX c #F685F955FBF7",
"uX c #FF30FF33FF87",
"iX c None",
/* pixels */
"iXiXiXiXiXiXiXiXiXiXiXiXiXiXiXiXiXiXiXiXiXiXiXiXiXiXiXiXiXiXiXiX",
"iXiXiXiXiXiXiXiXiXiXiXiXiXiXO + + O iXiXiXiXiXiXiXiXiXiXiXiXiXiX",
"iXiXiXiXiXiXiXiXiXiXO C.S.Z.{ ' ' { Z.S.C.O iXiXiXiXiXiXiXiXiXiX",
"iXiXiXiXiXiXiXiXO A.Z.I 1 o .     . o 1 I Z.A.O iXiXiXiXiXiXiXiX",
"iXiXiXiXiXiXiXV.G.K o   o H U ` ) Y H *   o K G.V.iXiXiXiXiXiXiX",
"iXiXiXiXiXiXA.[ - . 1 { [.4XqXrXqXqX4X[.} 1 . - [ A.iXiXiXiXiXiX",
"iXiXiXiXiXA.) o . Y ,X8X9X9X8X8X8X8X9X9X8X{.E . o ) A.iXiXiXiXiX",
"iXiXiXiXC.[ o . ] ,X2X2X2X2X2X2X2X2X2X2X2X2X<X` . o [ C.iXiXiXiX",
"iXiXiXiXG.- . I [.<X,X,X,X,X,X,X,X,X,X,X,X,X,X{.I . - G.iXiXiXiX",
"iXiXiXK.K   - L.].].[.,X,X].].].].].].,X,X[.].[.L.- . K D.iXiXiX",
"iXiXiXF.*   K /./.`.4XyXtX,X(.(.(./.<XtXuX4X(.(./.K   o G.iXiXiX",
"iXiXA.U   . Y I.I.`.yXuXuXtX,XI.I.,XyXuXuXyX`.I.I.U     I D.iXiX",
"iXiXK.1 . . Y H.H.I.qXyXuXuXyX[.[.yXuXuXuXqXI.H.H.U . . 1 K.iXiX",
"iXiXG.o . . K } } } `.tXuXuXuXyXyXuXuXuXtX(.} } } K . . * H.iXiX",
"iXiX{ o . o 2 [ ] ] ` /.tXuXuXuXuXuXuXtX/.` ` ` ) < . . . } iXiX",
"iXiX[ X . * < / [ / Y E I.yXuXuXuXuXyXI.Y Y / / K . . . . [ iXiX",
"iXiX{ X . = : J ` ( L L L.yXuXuXuXuXyXL.L L L K = X . X X ] iXiX",
"iXiX7.X # ; , i P _ P J.tXuXuXuXuXuXuXtXJ.a i > # # @ # @ 7.iXiX",
"iXiXJ.4 $ > y p h T E.tXuXuXuXtXtXuXuXuXeX9.& $ $ $ $ $ 4 J.iXiX",
"iXiX/.d % 8 u g k ^ 0XuXuXuXeX8.8.eXuXuXuX6Xg % % % 4 4 g R.iXiX",
"iXiX).~ 6 8 s j Z 6.tXuXuXrX6.6 6 6.eXuXuXeXR 3 3 8 2.8 W ).iXiX",
"iXiXiXU.e q f V A ~ *XtXqX~.V 5 5 q 0.7XtX^.t 5 f T.q.e U.iXiXiX",
"iXiXiX#X! 9 r C D Q 3.l.l.u.u.<.B r 9 V G x r ~ #XOXx Q _.iXiXiX",
"iXiXiXiXW.v l v F -.1.5.t.d.l.Y.x.y.1.-.,.y.^.5X:XF v W.iXiXiXiX",
"iXiXiXiXiXd.M c N -.4.5.a.g.z.n.!..X+X@X:X1X5X@X=.c d.iXiXiXiXiX",
"iXiXiXiXiX$Xa.m b O.:.t.f.j.v.m.!. X+X=X;X;Xn.O.m s.$XiXiXiXiXiX",
"iXiXiXiXiXiX%Xc.+.n ..*.i.h.b.m.}.XXoXXXb.>.| +.c.%XiXiXiXiXiXiX",
"iXiXiXiXiXiXiXiX}.r.o.X.X.%.;.r.i.r.e.%.X.o.r.}.iXiXiXiXiXiXiXiX",
"iXiXiXiXiXiXiXiXiX>XB.p.w.$.@.@.@.@.$.w.p.B.>XiXiXiXiXiXiXiXiXiX",
"iXiXiXiXiXiXiXiXiXiXiXiX-X|.N.M.M.N.|.-XiXiXiXiXiXiXiXiXiXiXiXiX",
"iXiXiXiXiXiXiXiXiXiXiXiXiXiXiXiXiXiXiXiXiXiXiXiXiXiXiXiXiXiXiXiX",
"iXiXiXiXiXiXiXiXiXiXiXiXiXiXiXiXiXiXiXiXiXiXiXiXiXiXiXiXiXiXiXiX"
};
