/* XPM */
static char *xpm_hover_prev[] = {
/* columns rows colors chars-per-pixel */
"32 32 117 2",
"   c #59BD5783569C",
".  c #6961639D6147",
"X  c #FFFF478D0000",
"o  c #FFFF4B6E015B",
"O  c #FFFF4F540855",
"+  c #FFFF548D00EA",
"@  c #FFFF5A1E0115",
"#  c #FFFF53300ABA",
"$  c #FFFF5BCF0ACF",
"%  c #FFFF578D1303",
"&  c #FFFF5B7E148E",
"*  c #FFFF5D991AF2",
"=  c #FFFF64BF02E0",
"-  c #FFFF69F702C0",
";  c #FFFF628B098C",
":  c #FFFF6D3508AE",
">  c #FFFF6516156F",
",  c #FFFF6ACB1415",
"<  c #FFFF66681ABC",
"1  c #FFFF6B841DE2",
"2  c #FFFF717D12E4",
"3  c #FFFF70FF1920",
"4  c #FFFF791A1AFF",
"5  c #FFFF64CA2399",
"6  c #FFFF6D622184",
"7  c #FFFF6ADA2C37",
"8  c #FFFF764D234F",
"9  c #FFFF7C6E23D5",
"0  c #FFFF75102D3F",
"q  c #FFFF79522B7E",
"w  c #FEED6F9C34EC",
"e  c #FFFF730E3619",
"r  c #FF887C77356D",
"t  c #FFFF7C3939A0",
"y  c #FD6F76EF4029",
"u  c #FF677F4640F5",
"i  c #FFFF7EFF4A3C",
"p  c #FFFF80A62ABA",
"a  c #FFEA843D346B",
"s  c #FFFF814F3C0B",
"d  c #FFFF8B153C1D",
"f  c #FFFF85B64344",
"g  c #FFD98D0541A9",
"h  c #FFFF83A34D7A",
"j  c #FFFF8C124E5C",
"k  c #FFFF91994EAD",
"l  c #FCFE858854B2",
"z  c #FFFF8B9B52CF",
"x  c #F49F89095D1A",
"c  c #FDEC8C345D2C",
"v  c #FE8196C856E6",
"b  c #FFFF95CE5B4C",
"n  c #FFFF9AA45CFB",
"m  c #F5378CE4624B",
"M  c #FFFF8ED760AB",
"N  c #FFFF93A064CB",
"B  c #FF279D6F64C2",
"V  c #F71A91FF68D7",
"C  c #FD0C96016A5D",
"Z  c #FFFF994E6DE9",
"A  c #E7309673757E",
"S  c #EDA094CD7089",
"D  c #ECBE9BDE7AD3",
"F  c #F1F697AA72C1",
"G  c #FFFF9CDC7445",
"H  c #FF60A29362A2",
"J  c #FFFFA7C26E95",
"K  c #FEDCA9A86C18",
"L  c #FD37A4C972E1",
"P  c #FFFFAC087790",
"I  c #F41AA1947C24",
"U  c #FFFFA2C27CC9",
"Y  c #FF7AAD1E7AC9",
"T  c #9A018886815F",
"R  c #A2FA8DA38501",
"E  c #B68C99198D21",
"W  c #BBC99A428CA5",
"Q  c #B9189DD392AC",
"!  c #D13D9B33853F",
"~  c #DF49A5A68E3D",
"^  c #C9D8A278926F",
"/  c #FFFFA61380E3",
"(  c #FD1DAC10839A",
")  c #FFFFAED58D99",
"_  c #FE61B52084CE",
"`  c #E9ECB0509503",
"'  c #FFFFB1E291D7",
"]  c #FFFFBCAE9361",
"[  c #FFFFB6BD98AF",
"{  c #FFFFBAB59DB8",
"}  c #D2F9B5BFA738",
"|  c #E665BD79A722",
" . c #FFFFBD95A26F",
".. c #FFFFC23A9BF5",
"X. c #FE5BC50AA2E1",
"o. c #FFFFC87CA736",
"O. c #FFFFC61EAE4D",
"+. c #FFFFCB13AC71",
"@. c #EB2FCA4FB5D7",
"#. c #FFFFC746B035",
"$. c #F687CE6DB2E5",
"%. c #FFFFCB78B3D4",
"&. c #FFFFCE8CB9C8",
"*. c #FFFFD185B55F",
"=. c #FFFFD233BF70",
"-. c #FFFFD447C261",
";. c #FFFFD905C1D5",
":. c #FFFFDDD3CF52",
">. c #FFFFDF3CD1C3",
",. c #FFFFE105CEB0",
"<. c #FFFFE0DDD298",
"1. c #FFFFE71CDCCD",
"2. c #FFFFEAFAE265",
"3. c #FFFFF2F2ED6C",
"4. c #FFFFF9EDF77C",
"5. c #FFFFFF9BFF6E",
"6. c None",
/* pixels */
"6.6.6.6.6.6.6.6.6.6.6.6.6.6.6.6.6.6.6.6.6.6.6.6.6.6.6.6.6.6.6.6.",
"6.6.6.6.6.6.6.6.6.6.6.6.6.6.  . .   6.6.6.6.6.6.6.6.6.6.6.6.6.6.",
"6.6.6.6.6.6.6.6.6.6.  R ! A m x x m A ! R   6.6.6.6.6.6.6.6.6.6.",
"6.6.6.6.6.6.6.6.  W S y * O o o o o O * y S W   6.6.6.6.6.6.6.6.",
"6.6.6.6.6.6.6.T D w O X # 7 i c c i 7 # X O w A T 6.6.6.6.6.6.6.",
"6.6.6.6.6.6.E m % X 5 G &.1.3.3.3.3.1.&.G 5 X % m E 6.6.6.6.6.6.",
"6.6.6.6.6.W l O O c -.2.2.2.2.1.1.2.2.2.2.-.M O O l W 6.6.6.6.6.",
"6.6.6.6.R x O # G :.>.:.>.:.>.:.:.>.:.:.>.>.:.G # O m R 6.6.6.6.",
"6.6.6.6.D % o M &.-.-.&.=.=.=.=.&.-.&.-.&.-.-.&.c o % D 6.6.6.6.",
"6.6.6.^ w X 5  .#.#.#.#.O.O.O.O.#.#.#.O.#.#.#.O. .5 X w ^ 6.6.6.",
"6.6.6.F O o l  .{ { {  .{ { [ O.>.&.{ {  .{  .{  .l o # F 6.6.6.",
"6.6.Q y X O M ' ) ) ) ) ) [ &.3.5.#.) ) ) ) ) ' ' M o X y Q 6.6.",
"6.6.~ * X O M / G / U U  .1.5.5.5. .G / G / U G U M O X * ~ 6.6.",
"6.6.D # o o i Z C Z ) -.4.5.5.5.5.>.&.-.-.%. .) U i o X # D 6.6.",
"6.6.V O o O e M Z  .3.5.5.5.5.5.5.5.5.5.5.2.-.[ G 7 o o o V 6.6.",
"6.6.m o o O 5 ) 2.5.5.5.5.5.5.5.5.5.5.5.5.2.&.) l # X o o M 6.6.",
"6.6.M o o # * Z 1.5.5.5.5.5.5.5.5.5.5.5.5.1.#./ e o o o o c 6.6.",
"6.6.V + o # & 5 h X.3.5.5.5.5.5.5.5.5.5.5.2.O.C 5 o o o + V 6.6.",
"6.6.D # + $ & 6 7 t Z O.3.5.5.5.5.=.[ [ [ / b e & o + + # I 6.6.",
"6.6.` < + $ & 6 w t u u z *.4.5.5.z + $ + + + + + + + # < ` 6.6.",
"6.6.} u + $ > 6 0 t u j t < N <.4.j + + + + + + + $ z $ f } 6.6.",
"6.6.6.I $ @ > 6 0 r f z b j < 1 Y s + + @ @ + + < ( b $ L 6.6.6.",
"6.6.6.| r @ ; 6 q r f j b B B s < $ @ @ + @ ; s +.X.; r | 6.6.6.",
"6.6.6.6.( , @ , q s f j b B L Y P b f s d N ] :.*.0 , ( 6.6.6.6.",
"6.6.6.6.6.B = @ , r g j v H K Y _ ] ..o.%.;.,.o.q = B 6.6.6.6.6.",
"6.6.6.6.6.@.v : = , a k n H P Y _ ] ..o.*.*.P 3 ; v @.6.6.6.6.6.",
"6.6.6.6.6.6.@.B 2 - - 4 g n L Y ' ....] K a - 2 H @.6.6.6.6.6.6.",
"6.6.6.6.6.6.6.6._ d : - = 2 9 a d d p 2 - - a _ 6.6.6.6.6.6.6.6.",
"6.6.6.6.6.6.6.6.6.$.Y g p : - - - - - 4 g P $.6.6.6.6.6.6.6.6.6.",
"6.6.6.6.6.6.6.6.6.6.6.6...Y K H H K _ ..6.6.6.6.6.6.6.6.6.6.6.6.",
"6.6.6.6.6.6.6.6.6.6.6.6.6.6.6.6.6.6.6.6.6.6.6.6.6.6.6.6.6.6.6.6.",
"6.6.6.6.6.6.6.6.6.6.6.6.6.6.6.6.6.6.6.6.6.6.6.6.6.6.6.6.6.6.6.6."
};
